<svg width="24" height="20" viewBox="0 0 24 20" fill="none" xmlns="http://www.w3.org/2000/svg">
<path d="M4.26363 6.57158C4.54633 6.57158 4.81745 6.68388 5.01735 6.88378C5.21724 7.08368 5.32954 7.35479 5.32954 7.63749C7.00424 7.63502 8.63064 8.19844 9.94493 9.23635H12.258C13.6777 9.23635 14.9547 9.85351 15.8319 10.8341L19.1864 10.8352C20.1939 10.8349 21.1809 11.1203 22.0329 11.6581C22.8849 12.196 23.567 12.9644 24 13.8741C21.4791 17.2008 17.3978 19.3625 12.7909 19.3625C9.81702 19.3625 7.30148 18.7197 5.26559 17.5952C5.19102 17.801 5.05479 17.9788 4.87548 18.1043C4.69617 18.2298 4.48251 18.2969 4.26363 18.2966H1.06591C0.783212 18.2966 0.512094 18.1843 0.312197 17.9844C0.112301 17.7845 0 17.5134 0 17.2307V7.63749C0 7.35479 0.112301 7.08368 0.312197 6.88378C0.512094 6.68388 0.783212 6.57158 1.06591 6.57158H4.26363ZM5.33061 9.76931L5.32954 15.1212L5.37751 15.1564C7.29082 16.4995 9.78291 17.2307 12.7909 17.2307C15.9929 17.2307 18.9721 15.9985 21.1423 13.8944L21.2841 13.7526L21.1562 13.646C20.6528 13.2518 20.0427 13.0179 19.4049 12.9745L19.1864 12.967L16.9352 12.966C17.013 13.3092 17.0545 13.6663 17.0545 14.0329V15.0989H7.46136V12.967L14.6989 12.966L14.6626 12.8828C14.4584 12.456 14.1442 12.0912 13.7523 11.8259C13.3604 11.5607 12.905 11.4045 12.4328 11.3735L12.258 11.3682H9.13484C8.63952 10.8616 8.0479 10.4591 7.39477 10.1846C6.74163 9.90999 6.04018 9.7688 5.33168 9.76931H5.33061ZM3.19773 8.7034H2.13182V16.1648H3.19773V8.7034ZM13.4795 0.789027L13.8568 1.16742L14.2341 0.790093C14.4812 0.540903 14.7751 0.342971 15.0989 0.207661C15.4227 0.0723498 15.77 0.00232515 16.1209 0.00160674C16.4719 0.000888335 16.8195 0.0694904 17.1438 0.203474C17.4681 0.337458 17.7628 0.534185 18.0109 0.782361C18.259 1.03054 18.4557 1.32527 18.5896 1.64965C18.7235 1.97403 18.792 2.32166 18.7912 2.67258C18.7903 3.0235 18.7202 3.37081 18.5848 3.69456C18.4494 4.01831 18.2514 4.31213 18.0021 4.55915L13.8568 8.7034L9.71043 4.55701C9.46124 4.30993 9.26331 4.01605 9.128 3.69226C8.99268 3.36848 8.92266 3.02115 8.92194 2.67023C8.92122 2.3193 8.98983 1.97169 9.12381 1.64735C9.25779 1.32301 9.45452 1.02833 9.7027 0.780227C9.95087 0.532121 10.2456 0.335477 10.57 0.201585C10.8944 0.0676931 11.242 -0.000810431 11.5929 7.23427e-06C11.9438 0.0008249 12.2911 0.0709477 12.6149 0.20635C12.9386 0.341752 13.2325 0.539767 13.4795 0.789027ZM11.2198 2.29729C11.1314 2.38514 11.0766 2.50117 11.065 2.62521C11.0533 2.74925 11.0854 2.87347 11.1558 2.97627L11.2176 3.04982L13.8568 5.68688L16.496 3.04982C16.5843 2.96163 16.6388 2.84527 16.6501 2.721C16.6614 2.59672 16.6288 2.47243 16.5578 2.36977L16.496 2.29516C16.4077 2.20703 16.2913 2.15268 16.167 2.14158C16.0427 2.13048 15.9185 2.16333 15.816 2.2344L15.7413 2.29622L13.8557 4.18075L11.9723 2.29409L11.8998 2.2344C11.7971 2.16346 11.6728 2.1308 11.5486 2.14209C11.4243 2.15339 11.3079 2.20793 11.2198 2.29622V2.29729Z" fill="#FF0099"/>
</svg>
