<svg width="101" height="31" viewBox="0 0 101 31" fill="none" xmlns="http://www.w3.org/2000/svg">
<path d="M10.9619 9.66797C16.5253 9.66804 21.0371 14.1847 21.0371 19.7588C21.0371 25.3329 16.5253 29.8495 10.9619 29.8496C5.39851 29.8496 0.886736 25.3329 0.886719 19.7588C0.886719 14.1846 5.3985 9.66797 10.9619 9.66797Z" stroke="black" stroke-width="1.50147"/>
<path d="M10.9619 1.07178C16.5253 1.07185 21.0371 5.58849 21.0371 11.1626C21.0371 16.7367 16.5253 21.2533 10.9619 21.2534C5.39851 21.2534 0.886736 16.7367 0.886719 11.1626C0.886719 5.58845 5.3985 1.07178 10.9619 1.07178Z" stroke="black" stroke-width="1.50147"/>
<path d="M10.9619 5.30566C16.5253 5.30573 21.0371 9.82238 21.0371 15.3965C21.0371 20.9706 16.5253 25.4872 10.9619 25.4873C5.39851 25.4873 0.886736 20.9706 0.886719 15.3965C0.886719 9.82234 5.3985 5.30566 10.9619 5.30566Z" stroke="black" stroke-width="1.50147"/>
<circle cx="11.0347" cy="15.5225" r="1.11854" fill="black" stroke="black" stroke-width="1.76597"/>
<path d="M33.8425 0.783088H38.2594C38.8888 0.783088 39.4498 0.914446 39.9424 1.17716C40.435 1.43988 40.8236 1.82027 41.1082 2.31833C41.3983 2.81093 41.5433 3.3993 41.5433 4.08346C41.5433 4.76761 41.4202 5.32862 41.1739 5.76648C40.9331 6.19887 40.643 6.52452 40.3037 6.74345C39.9643 6.95691 39.6496 7.08553 39.3595 7.12932L41.9949 11.6201H39.2364L36.8883 7.31814H36.2972V11.6201H33.8425V0.783088ZM36.2972 5.6187H37.3809C37.8188 5.6187 38.2019 5.51197 38.5303 5.29852C38.8587 5.08506 39.0229 4.70741 39.0229 4.16555C39.0229 3.6237 38.8615 3.24879 38.5385 3.0408C38.2156 2.82735 37.8352 2.72062 37.3974 2.72062H36.2972V5.6187ZM44.4299 0.783088H51.3508V2.93407H46.8764V5.14253H51.3098V7.22784H46.8764V9.46913H51.3508V11.6201H44.4299V0.783088ZM56.0416 2.93407H53.4555V0.783088H61.0742V2.93407H58.4963V11.6201H56.0416V2.93407ZM63.3035 0.783088H65.7582V11.6201H63.3035V0.783088ZM70.75 3.03259L70.9306 3.06543V11.6201H68.4758V0.783088H71.8254L76.2177 9.32135L76.0371 9.35419V0.783088H78.4919V11.6201H75.1258L70.75 3.03259ZM84.6765 0.783088H87.1148L91.3921 11.6201H88.7732L87.985 9.4445H83.8144L83.0181 11.6201H80.3909L84.6765 0.783088ZM84.6354 7.29352H87.1723L85.9162 3.73864H85.8915L84.6354 7.29352ZM93.1455 0.783088H95.6002V9.46913H99.5327V11.6201H93.1455V0.783088Z" fill="black"/>
<path d="M46.8375 17.8084H50.1851C50.7533 17.8084 51.305 17.8784 51.8403 18.0184C52.3756 18.1501 52.8614 18.3972 53.2979 18.7595C53.7673 19.1466 54.109 19.6077 54.3231 20.143C54.5373 20.6701 54.6443 21.2218 54.6443 21.7983C54.6443 22.1688 54.599 22.5435 54.5084 22.9223C54.4261 23.2929 54.3067 23.6552 54.1502 24.0094C54.002 24.3552 53.8208 24.6846 53.6067 24.9976C53.4008 25.3022 53.1744 25.5781 52.9273 25.8252C52.3509 26.3934 51.7126 26.7845 51.0127 26.9987C50.3127 27.2128 49.5633 27.3198 48.7645 27.3198H44.4411L44.577 26.8257C44.8405 26.8257 45.0588 26.8093 45.2317 26.7763C45.4129 26.7434 45.5611 26.6775 45.6764 26.5787C45.7999 26.4716 45.9029 26.3234 45.9852 26.134C46.0758 25.9446 46.1623 25.6893 46.2446 25.3681L47.6651 19.9083C47.6816 19.8507 47.7022 19.7766 47.7269 19.686C47.7598 19.5954 47.7928 19.4966 47.8257 19.3895C47.8587 19.2825 47.8834 19.1795 47.8998 19.0807C47.9245 18.9819 47.9369 18.8954 47.9369 18.8213C47.9369 18.6978 47.8998 18.6031 47.8257 18.5372C47.7598 18.4713 47.6734 18.4219 47.5663 18.389C47.4675 18.3478 47.3563 18.3231 47.2328 18.3148C47.1175 18.3066 47.0105 18.3025 46.9116 18.3025H46.6769L46.8375 17.8084ZM47.7269 24.4664C47.661 24.7134 47.6075 24.9193 47.5663 25.084C47.5251 25.2405 47.4922 25.3722 47.4675 25.4793C47.451 25.5781 47.4387 25.6564 47.4304 25.714C47.4222 25.7716 47.4181 25.8211 47.4181 25.8622C47.4181 26.0846 47.4634 26.2575 47.554 26.381C47.6528 26.4963 47.7681 26.5869 47.8998 26.6528C48.0316 26.7104 48.1675 26.7475 48.3075 26.764C48.4475 26.7722 48.5628 26.7763 48.6533 26.7763C49.1886 26.7763 49.6745 26.7022 50.1109 26.554C50.5474 26.4057 50.9344 26.204 51.2721 25.9487C51.6097 25.6852 51.8979 25.3846 52.1368 25.047C52.3838 24.7093 52.5856 24.3511 52.742 23.9723C52.9067 23.5935 53.0261 23.2106 53.1002 22.8235C53.1744 22.4282 53.2114 22.0453 53.2114 21.6747C53.2114 20.6371 52.9314 19.8383 52.3715 19.2783C51.8197 18.7101 51.058 18.426 50.0862 18.426C49.8474 18.426 49.6539 18.4631 49.5057 18.5372C49.3657 18.6031 49.2586 18.776 49.1845 19.056L47.7269 24.4664ZM59.6478 25.6769C58.9313 26.8545 58.0502 27.4433 57.0043 27.4433C56.4361 27.4433 55.9996 27.2704 55.695 26.9245C55.3903 26.5704 55.2379 26.0722 55.2379 25.4299C55.2379 24.8617 55.3532 24.2935 55.5838 23.7252C55.8226 23.157 56.1314 22.6465 56.5102 22.1935C56.889 21.7324 57.3131 21.3618 57.7825 21.0818C58.2519 20.7936 58.7213 20.6495 59.1907 20.6495C59.586 20.6495 59.9072 20.7524 60.1542 20.9583C60.4095 21.1559 60.5371 21.4112 60.5371 21.7241C60.5371 22.0124 60.4301 22.3088 60.216 22.6135C60.0019 22.9182 59.7095 23.2064 59.3389 23.4782C58.9766 23.7499 58.5484 23.997 58.0543 24.2193C57.5684 24.4417 57.0496 24.6146 56.4979 24.7381C56.4814 24.8534 56.469 24.9687 56.4608 25.084C56.4526 25.1911 56.4485 25.3022 56.4485 25.4175C56.4485 26.3152 56.7655 26.764 57.3996 26.764C57.7043 26.764 58.0172 26.6446 58.3384 26.4057C58.6678 26.1669 58.9725 25.8375 59.2525 25.4175L59.6478 25.6769ZM58.9437 21.23C58.7296 21.23 58.5072 21.3124 58.2766 21.4771C58.046 21.6418 57.8237 21.8641 57.6096 22.1441C57.4037 22.4159 57.2143 22.7288 57.0414 23.0829C56.8684 23.437 56.7284 23.8035 56.6214 24.1823C57.0167 24.0752 57.3831 23.9352 57.7208 23.7623C58.0584 23.5894 58.3466 23.3958 58.5854 23.1817C58.8325 22.9594 59.026 22.7288 59.166 22.49C59.306 22.2429 59.376 21.9959 59.376 21.7488C59.376 21.403 59.2319 21.23 58.9437 21.23ZM62.9589 18.7842C63.0001 18.636 63.0413 18.4878 63.0824 18.3395C63.1236 18.1831 63.1442 18.0678 63.1442 17.9937C63.1442 17.7055 62.8313 17.5613 62.2054 17.5613L62.3042 17.1908L64.5647 17.0796L62.3536 25.1952C62.2878 25.4175 62.2383 25.6152 62.2054 25.7881C62.1725 25.9528 62.156 26.0928 62.156 26.2081C62.156 26.2822 62.1766 26.3481 62.2178 26.4057C62.2589 26.4634 62.3248 26.4922 62.4154 26.4922C62.5472 26.4922 62.6871 26.4387 62.8354 26.3316C62.9836 26.2163 63.1236 26.0846 63.2554 25.9363C63.3954 25.7799 63.5189 25.6234 63.6259 25.4669C63.733 25.3022 63.8112 25.1746 63.8606 25.084L64.2312 25.294C64.1077 25.574 63.9471 25.8458 63.7495 26.1093C63.5518 26.3646 63.3418 26.591 63.1195 26.7887C62.8971 26.9863 62.6707 27.1469 62.4401 27.2704C62.2178 27.3857 62.0119 27.4433 61.8225 27.4433C61.5342 27.4433 61.3201 27.3816 61.1801 27.2581C61.0484 27.1345 60.9825 26.9287 60.9825 26.6404C60.9825 26.4757 61.0072 26.2534 61.0566 25.9734C61.106 25.6934 61.1925 25.3105 61.316 24.8246L62.9589 18.7842ZM66.1888 23.2435C66.3041 22.9223 66.3864 22.6629 66.4358 22.4653C66.4853 22.2676 66.51 22.1112 66.51 21.9959C66.51 21.8806 66.4894 21.8065 66.4482 21.7735C66.4153 21.7324 66.3782 21.7118 66.337 21.7118C66.2464 21.7118 66.1476 21.7571 66.0406 21.8477C65.9335 21.93 65.8265 22.0288 65.7194 22.1441C65.6123 22.2594 65.5176 22.3747 65.4353 22.49C65.3529 22.6053 65.2953 22.6959 65.2624 22.7617L64.9041 22.5394C65.003 22.3582 65.1388 22.1565 65.3118 21.9341C65.4929 21.7118 65.6947 21.5059 65.917 21.3165C66.1394 21.1271 66.37 20.9706 66.6088 20.8471C66.8476 20.7153 67.0741 20.6495 67.2882 20.6495C67.494 20.6495 67.6464 20.7112 67.7452 20.8348C67.8523 20.95 67.9058 21.1642 67.9058 21.4771C67.9058 21.7159 67.8317 22.0371 67.6834 22.4406C67.5435 22.8441 67.3582 23.3629 67.1276 23.997L66.6705 25.2446C66.6541 25.2858 66.6294 25.3517 66.5964 25.4422C66.5717 25.5246 66.5429 25.6152 66.51 25.714C66.4853 25.8046 66.4606 25.8952 66.4358 25.9858C66.4194 26.0763 66.4111 26.1505 66.4111 26.2081C66.4111 26.2822 66.4317 26.3481 66.4729 26.4057C66.5141 26.4634 66.58 26.4922 66.6705 26.4922C66.7941 26.4922 66.9217 26.4428 67.0535 26.344C67.1852 26.2369 67.3129 26.1134 67.4364 25.9734C67.5599 25.8334 67.6711 25.6934 67.7699 25.5534C67.8687 25.4052 67.9429 25.2899 67.9923 25.2075L68.3628 25.4175C68.264 25.6152 68.1281 25.8334 67.9552 26.0722C67.7905 26.311 67.6011 26.5334 67.387 26.7393C67.1729 26.9369 66.9382 27.1057 66.6829 27.2457C66.4276 27.3775 66.1641 27.4433 65.8923 27.4433C65.6535 27.4433 65.4723 27.3816 65.3488 27.2581C65.2335 27.1345 65.1759 26.9287 65.1759 26.6404C65.1759 26.4016 65.2129 26.1463 65.2871 25.8746C65.3694 25.5946 65.4847 25.2446 65.6329 24.8246L66.1888 23.2435ZM68.0046 18.6237C67.7987 18.6237 67.6176 18.5537 67.4611 18.4137C67.3129 18.2737 67.2388 18.0925 67.2388 17.8702C67.2388 17.6478 67.3129 17.4584 67.4611 17.3019C67.6093 17.1455 67.7905 17.0672 68.0046 17.0672C68.2352 17.0672 68.4246 17.1455 68.5728 17.3019C68.7211 17.4584 68.7952 17.6437 68.7952 17.8578C68.7952 18.0719 68.7169 18.2531 68.5605 18.4013C68.404 18.5495 68.2187 18.6237 68.0046 18.6237ZM74.1901 28.2216C74.1901 28.5757 74.1119 28.8927 73.9554 29.1727C73.8072 29.4609 73.589 29.7039 73.3008 29.9015C73.0208 30.1074 72.679 30.2638 72.2755 30.3709C71.872 30.4779 71.4191 30.5315 70.9167 30.5315C70.4638 30.5315 70.052 30.4903 69.6815 30.408C69.3109 30.3256 68.9938 30.2062 68.7303 30.0497C68.4586 29.8933 68.2527 29.708 68.1127 29.4939C67.9645 29.288 67.8904 29.0533 67.8904 28.7898C67.8904 28.4521 68.0015 28.1721 68.2239 27.9498C68.438 27.7275 68.7139 27.6163 69.0515 27.6163C69.1503 27.6163 69.245 27.6286 69.3356 27.6533C69.4262 27.678 69.5415 27.7233 69.6815 27.7892C69.2203 27.9786 68.9897 28.3368 68.9897 28.8639C68.9897 29.2098 69.1627 29.4815 69.5085 29.6792C69.8626 29.8768 70.3444 29.9756 70.9538 29.9756C71.2832 29.9756 71.5879 29.9386 71.8679 29.8644C72.1479 29.7903 72.3867 29.6956 72.5843 29.5803C72.7902 29.465 72.9466 29.3333 73.0537 29.1851C73.169 29.0451 73.2266 28.9051 73.2266 28.7651C73.2266 28.5345 73.0866 28.3245 72.8067 28.1351C72.5349 27.9539 72.1479 27.818 71.6455 27.7275C70.7479 27.571 70.0891 27.3898 69.6691 27.1839C69.2491 26.9781 69.0391 26.6898 69.0391 26.3193C69.0391 26.0805 69.1421 25.8787 69.348 25.714C69.5621 25.5493 69.9409 25.3846 70.4844 25.2199L70.5091 25.1705C69.8832 24.7258 69.5703 24.1535 69.5703 23.4535C69.5703 23.0747 69.6485 22.7165 69.805 22.3788C69.9615 22.0329 70.1715 21.7324 70.435 21.4771C70.7067 21.2136 71.0197 21.0077 71.3738 20.8595C71.7361 20.7112 72.1149 20.6371 72.5102 20.6371C73.1196 20.6371 73.6302 20.8595 74.0419 21.3042C74.429 20.8677 74.8036 20.6495 75.166 20.6495C75.4295 20.6495 75.6601 20.7318 75.8577 20.8965C76.0554 21.053 76.1542 21.2383 76.1542 21.4524C76.1542 21.6171 76.0965 21.7571 75.9813 21.8724C75.8742 21.9794 75.7383 22.0329 75.5736 22.0329C75.4501 22.0329 75.3513 22.0082 75.2772 21.9588C75.2113 21.9012 75.1536 21.8394 75.1042 21.7735C75.0548 21.7077 74.9972 21.65 74.9313 21.6006C74.8736 21.543 74.7913 21.5141 74.6842 21.5141C74.6266 21.5141 74.5731 21.5265 74.5237 21.5512C74.4742 21.5677 74.3837 21.6212 74.2519 21.7118C74.2931 21.8271 74.3219 21.9382 74.3384 22.0453C74.3548 22.1441 74.3631 22.2718 74.3631 22.4282C74.3631 23.3341 74.1119 24.0588 73.6096 24.6023C73.1072 25.1375 72.4155 25.4381 71.5343 25.504C71.1391 25.5369 70.855 25.5864 70.682 25.6522C70.5173 25.7181 70.435 25.8169 70.435 25.9487C70.435 26.1216 70.5256 26.2534 70.7067 26.344C70.8961 26.4263 71.1308 26.4963 71.4108 26.554C71.6908 26.6116 71.9914 26.6693 72.3126 26.7269C72.6337 26.7845 72.9343 26.871 73.2143 26.9863C73.4943 27.0934 73.7249 27.2416 73.906 27.431C74.0954 27.6286 74.1901 27.8922 74.1901 28.2216ZM71.5961 24.9605C71.7937 24.9605 71.9873 24.8823 72.1767 24.7258C72.3661 24.5693 72.5349 24.3635 72.6831 24.1082C72.8396 23.8447 72.9631 23.5482 73.0537 23.2188C73.1443 22.8894 73.1896 22.5518 73.1896 22.2059C73.1896 21.8765 73.1155 21.6171 72.9672 21.4277C72.819 21.23 72.6255 21.1312 72.3867 21.1312C72.1973 21.1312 72.0037 21.2177 71.8061 21.3906C71.6085 21.5553 71.4273 21.7694 71.2626 22.0329C71.1061 22.2965 70.9785 22.597 70.8797 22.9347C70.7808 23.2641 70.7314 23.5894 70.7314 23.9105C70.7314 24.2235 70.8097 24.4787 70.9661 24.6764C71.1226 24.8658 71.3326 24.9605 71.5961 24.9605ZM80.0058 23.4782C80.1458 23.0582 80.2446 22.7247 80.3022 22.4776C80.3681 22.2306 80.401 22.0124 80.401 21.823C80.401 21.6336 80.3681 21.5018 80.3022 21.4277C80.2446 21.3453 80.1416 21.3042 79.9934 21.3042C79.7381 21.3042 79.4869 21.403 79.2399 21.6006C78.9928 21.7983 78.7417 22.1071 78.4864 22.527C78.2393 22.947 77.9799 23.4823 77.7082 24.1329C77.4364 24.7834 77.1482 25.5617 76.8435 26.4675L76.5594 27.3198H75.5218L77.9676 18.9448C78.0252 18.7389 78.0705 18.5578 78.1035 18.4013C78.1364 18.2448 78.1529 18.1213 78.1529 18.0307C78.1529 17.866 78.0746 17.7507 77.9182 17.6849C77.7617 17.619 77.4735 17.5778 77.0535 17.5613L77.14 17.0672H79.6599L78.2517 21.8353L78.2888 21.86C78.5523 21.473 78.857 21.1765 79.2028 20.9706C79.5487 20.7565 79.9111 20.6495 80.2899 20.6495C80.6851 20.6495 80.9857 20.7648 81.1916 20.9953C81.3975 21.2259 81.5004 21.5594 81.5004 21.9959C81.5004 22.2676 81.4592 22.5847 81.3769 22.947C81.2945 23.3094 81.1669 23.7252 80.994 24.1946C80.8293 24.6393 80.7016 24.9893 80.611 25.2446C80.5204 25.4999 80.4546 25.6975 80.4134 25.8375C80.3722 25.9693 80.3434 26.0599 80.3269 26.1093C80.3187 26.1587 80.3146 26.1999 80.3146 26.2328C80.3146 26.4222 80.3928 26.5169 80.5493 26.5169C80.714 26.5169 80.9157 26.4222 81.1545 26.2328C81.4016 26.0352 81.6486 25.7634 81.8957 25.4175L82.2416 25.6769C82.1098 25.9158 81.9451 26.1422 81.7475 26.3563C81.5581 26.5704 81.3481 26.7598 81.1175 26.9245C80.8951 27.081 80.6646 27.2087 80.4257 27.3075C80.1952 27.3981 79.9769 27.4433 79.7711 27.4433C79.5487 27.4433 79.3881 27.3816 79.2893 27.2581C79.1905 27.1345 79.1411 26.9369 79.1411 26.6651C79.1411 26.5251 79.1534 26.3769 79.1781 26.2205C79.2028 26.064 79.244 25.8705 79.3017 25.6399C79.3675 25.4011 79.454 25.1128 79.5611 24.7752C79.6764 24.4293 79.8246 23.997 80.0058 23.4782ZM85.6041 21.7983L84.5789 25.1952C84.4389 25.6399 84.3648 25.9775 84.3565 26.2081C84.3565 26.2822 84.373 26.3481 84.4059 26.4057C84.4471 26.4634 84.513 26.4922 84.6036 26.4922C84.7518 26.4922 84.9083 26.4387 85.073 26.3316C85.2377 26.2163 85.3941 26.0846 85.5424 25.9363C85.6988 25.7799 85.8347 25.6234 85.95 25.4669C86.0735 25.3022 86.1641 25.1746 86.2218 25.084L86.58 25.294C86.44 25.574 86.2629 25.8458 86.0488 26.1093C85.8347 26.3646 85.6083 26.591 85.3694 26.7887C85.1306 26.9863 84.8877 27.1469 84.6406 27.2704C84.4018 27.3857 84.1836 27.4433 83.986 27.4433C83.6977 27.4433 83.4877 27.3816 83.356 27.2581C83.2325 27.1345 83.1707 26.9287 83.1707 26.6404C83.1707 26.4757 83.1995 26.2534 83.2572 25.9734C83.3148 25.6934 83.4136 25.3105 83.5536 24.8246L84.4677 21.7983H83.4054L83.566 21.23H84.6406L85.283 19.1054H86.4194L85.7771 21.23H87.1235L86.9506 21.7983H85.6041ZM88.164 22.5394C88.164 22.2676 88.2134 22.0165 88.3122 21.7859C88.4193 21.5553 88.5634 21.3577 88.7446 21.193C88.9257 21.02 89.1399 20.8883 89.3869 20.7977C89.6422 20.6989 89.9181 20.6495 90.2145 20.6495C90.6098 20.6495 90.9392 20.7483 91.2027 20.9459C91.4662 21.1436 91.598 21.3989 91.598 21.7118C91.598 21.8847 91.5486 22.0206 91.4498 22.1194C91.3592 22.2182 91.2316 22.2676 91.0669 22.2676C90.8774 22.2676 90.7416 22.2141 90.6592 22.1071C90.5769 21.9918 90.5069 21.8682 90.4492 21.7365C90.3916 21.5965 90.3298 21.4689 90.2639 21.3536C90.1981 21.2383 90.0869 21.1806 89.9304 21.1806C89.7493 21.1806 89.5969 21.2589 89.4734 21.4153C89.3499 21.5718 89.2881 21.7653 89.2881 21.9959C89.2881 22.2676 89.3663 22.5229 89.5228 22.7617C89.6875 22.9923 89.8687 23.2353 90.0663 23.4905C90.2639 23.7458 90.441 24.0258 90.5975 24.3305C90.7622 24.6352 90.8445 24.9934 90.8445 25.4052C90.8445 25.6852 90.7827 25.9487 90.6592 26.1957C90.5439 26.4428 90.3833 26.661 90.1775 26.8504C89.9798 27.0316 89.7493 27.1757 89.4857 27.2828C89.2222 27.3898 88.9505 27.4433 88.6705 27.4433C88.1764 27.4433 87.7811 27.3363 87.4846 27.1222C87.1964 26.9081 87.0523 26.6281 87.0523 26.2822C87.0523 26.0434 87.1058 25.8581 87.2129 25.7264C87.3282 25.5864 87.4805 25.5164 87.6699 25.5164C88.024 25.5164 88.2258 25.7593 88.2752 26.2452C88.2999 26.5087 88.3411 26.6857 88.3987 26.7763C88.4646 26.8587 88.5922 26.8998 88.7816 26.8998C89.0781 26.8998 89.3128 26.8134 89.4857 26.6404C89.6587 26.4593 89.7451 26.2122 89.7451 25.8993C89.7451 25.5699 89.6628 25.2775 89.4981 25.0223C89.3334 24.767 89.1522 24.5199 88.9546 24.2811C88.7569 24.0341 88.5758 23.7747 88.4111 23.5029C88.2464 23.2311 88.164 22.91 88.164 22.5394Z" fill="black"/>
</svg>
