<svg width="27" height="26" viewBox="0 0 27 26" fill="none" xmlns="http://www.w3.org/2000/svg">
<circle cx="13.2002" cy="13" r="13" fill="#FFFBEB"/>
<path d="M13.1997 9.91956C15.9382 9.91956 18.1294 12.2386 18.1294 15.0621C18.1292 17.8855 15.9381 20.2037 13.1997 20.2037C10.4614 20.2036 8.2712 17.8854 8.271 15.0621C8.271 12.2387 10.4613 9.91967 13.1997 9.91956Z" stroke="#222222" stroke-width="0.758333"/>
<path d="M13.1997 5.79614C15.9382 5.79614 18.1294 8.11518 18.1294 10.9387C18.1292 13.7621 15.9381 16.0803 13.1997 16.0803C10.4614 16.0802 8.2712 13.762 8.271 10.9387C8.271 8.11525 10.4613 5.79625 13.1997 5.79614Z" stroke="#222222" stroke-width="0.758333"/>
<path d="M13.1997 7.84009C15.9382 7.84009 18.1294 10.1591 18.1294 12.9827C18.1292 15.806 15.9381 18.1243 13.1997 18.1243C10.4614 18.1242 8.2712 15.806 8.271 12.9827C8.271 10.1592 10.4613 7.8402 13.1997 7.84009Z" stroke="#222222" stroke-width="0.758333"/>
<path d="M13.2001 13.9776C13.7346 13.9776 14.1679 13.524 14.1679 12.9645C14.1679 12.405 13.7346 11.9514 13.2001 11.9514C12.6657 11.9514 12.2324 12.405 12.2324 12.9645C12.2324 13.524 12.6657 13.9776 13.2001 13.9776Z" fill="#222222"/>
</svg>
