<svg width="376" height="101" viewBox="0 0 376 101" fill="none" xmlns="http://www.w3.org/2000/svg">
<path d="M69.01 94.1729C51.9115 94.1729 38 80.2366 38 63.1071C38 45.9776 51.9115 32.0413 69.01 32.0413C86.1085 32.0413 100.02 45.9776 100.02 63.1071C100.02 80.2366 86.1085 94.1729 69.01 94.1729ZM69.01 36.1769C54.1912 36.1769 42.1336 48.2593 42.1336 63.1092C42.1336 77.959 54.1912 90.0414 69.01 90.0414C83.8289 90.0414 95.8865 77.959 95.8865 63.1092C95.8865 48.2593 83.8289 36.1769 69.01 36.1769Z" fill="#FFFBEB"/>
<path d="M69.01 69.1296C51.9115 69.1296 38 55.1933 38 38.0638C38 20.9343 51.9115 7 69.01 7C86.1085 7 100.02 20.9363 100.02 38.0658C100.02 55.1954 86.1085 69.1317 69.01 69.1317V69.1296ZM69.01 11.1336C54.1912 11.1336 42.1336 23.216 42.1336 38.0658C42.1336 52.9157 54.1912 64.9981 69.01 64.9981C83.8289 64.9981 95.8865 52.9157 95.8865 38.0658C95.8865 23.216 83.8289 11.1336 69.01 11.1336Z" fill="#FFFBEB"/>
<path d="M69.01 81.4992C51.9115 81.4992 38 67.5629 38 50.4334C38 33.3039 51.9115 19.3696 69.01 19.3696C86.1085 19.3696 100.02 33.306 100.02 50.4355C100.02 67.565 86.1085 81.5013 69.01 81.5013V81.4992ZM69.01 23.5032C54.1912 23.5032 42.1336 35.5856 42.1336 50.4355C42.1336 65.2853 54.1912 77.3677 69.01 77.3677C83.8289 77.3677 95.8865 65.2853 95.8865 50.4355C95.8865 35.5856 83.8289 23.5032 69.01 23.5032Z" fill="#FFFBEB"/>
<path d="M69.0099 56.5178C72.4194 56.5178 75.1834 53.7483 75.1834 50.3319C75.1834 46.9155 72.4194 44.146 69.0099 44.146C65.6004 44.146 62.8364 46.9155 62.8364 50.3319C62.8364 53.7483 65.6004 56.5178 69.0099 56.5178Z" fill="#FFFBEB"/>
<path d="M177.426 62.303H186.275C187.778 62.303 189.235 62.4828 190.651 62.8424C192.067 63.202 193.35 63.8593 194.503 64.8183C195.743 65.8413 196.647 67.0545 197.213 68.4599C197.779 69.8633 198.062 71.3286 198.062 72.8518C198.062 73.8315 197.949 74.8174 197.719 75.8073C197.49 76.7973 197.176 77.7563 196.773 78.6802C196.37 79.6061 195.89 80.4762 195.336 81.2926C194.78 82.109 194.177 82.8427 193.524 83.4958C192 84.9983 190.312 86.0317 188.462 86.598C186.612 87.1643 184.63 87.4475 182.52 87.4475H171.091L171.45 86.1413C172.147 86.1413 172.73 86.0979 173.197 86.0111C173.664 85.9243 174.057 85.7444 174.373 85.4716C174.689 85.1988 174.96 84.8144 175.189 84.3122C175.419 83.812 175.64 83.1362 175.859 82.2867L179.614 67.8544C179.658 67.7014 179.718 67.5071 179.794 67.2674C179.871 67.0276 179.951 66.7672 180.04 66.4841C180.127 66.2009 180.197 65.9281 180.253 65.6677C180.307 65.4073 180.336 65.1779 180.336 64.9815C180.336 64.655 180.243 64.4049 180.059 64.2313C179.873 64.0577 179.645 63.9213 179.372 63.8221C179.1 63.7249 178.806 63.665 178.49 63.6423C178.174 63.6216 177.886 63.6092 177.624 63.6092H177.004L177.428 62.303H177.426ZM179.775 79.9037C179.602 80.5568 179.459 81.0962 179.352 81.5199C179.242 81.9436 179.162 82.2929 179.106 82.5657C179.052 82.8385 179.013 83.0514 178.992 83.2023C178.969 83.3552 178.959 83.4854 178.959 83.595C178.959 84.182 179.083 84.6346 179.335 84.9508C179.585 85.267 179.885 85.5068 180.232 85.67C180.579 85.8333 180.939 85.9305 181.309 85.9635C181.679 85.9966 181.983 86.0131 182.223 86.0131C183.638 86.0131 184.922 85.8168 186.075 85.4262C187.228 85.0335 188.251 84.4961 189.144 83.8099C190.037 83.1238 190.804 82.3363 191.447 81.4435C192.089 80.5506 192.623 79.604 193.046 78.6016C193.47 77.6013 193.782 76.5824 193.976 75.549C194.173 74.5156 194.27 73.5091 194.27 72.5294C194.27 69.7868 193.536 67.6704 192.067 66.1782C190.597 64.688 188.578 63.9419 186.009 63.9419C185.376 63.9419 184.87 64.0349 184.49 64.2189C184.109 64.4049 183.82 64.8679 183.624 65.6057L179.771 79.9078L179.775 79.9037Z" fill="#FFFBEB"/>
<path d="M211.287 83.1031C209.394 86.2157 207.063 87.772 204.299 87.772C202.797 87.772 201.644 87.3091 200.837 86.3852C200.031 85.4593 199.628 84.1489 199.628 82.45C199.628 80.9475 199.938 79.4449 200.558 77.9445C201.179 76.4419 201.989 75.0882 202.991 73.8791C203.991 72.67 205.114 71.6904 206.354 70.9401C207.594 70.1899 208.836 69.8137 210.076 69.8137C211.122 69.8137 211.975 70.0803 212.639 70.6136C213.302 71.1468 213.635 71.8268 213.635 72.6535C213.635 73.4161 213.352 74.1994 212.786 75.0055C212.219 75.8115 211.452 76.5721 210.483 77.2913C209.514 78.0106 208.381 78.6637 207.087 79.2507C205.792 79.8376 204.415 80.2964 202.956 80.623C202.913 80.9289 202.879 81.2265 202.859 81.52C202.836 81.8135 202.826 82.1132 202.826 82.417C202.826 84.7896 203.663 85.976 205.341 85.976C206.147 85.976 206.978 85.6598 207.84 85.0294C208.7 84.399 209.499 83.5268 210.239 82.417L211.285 83.1031H211.287ZM209.425 71.3473C208.859 71.3473 208.272 71.5643 207.662 72.0004C207.052 72.4365 206.469 73.0172 205.916 73.7468C205.36 74.4764 204.853 75.3093 204.396 76.2456C203.94 77.1818 203.57 78.1511 203.287 79.1515C204.332 78.8683 205.3 78.4983 206.193 78.0416C207.085 77.5848 207.852 77.0681 208.495 76.4915C209.138 75.9149 209.642 75.3052 210.014 74.6624C210.384 74.0196 210.57 73.3727 210.57 72.7196C210.57 71.8061 210.19 71.3473 209.427 71.3473H209.425Z" fill="#FFFBEB"/>
<path d="M220.039 64.8821C220.148 64.4894 220.256 64.0925 220.365 63.6895C220.475 63.2865 220.528 62.9868 220.528 62.7925C220.528 62.0299 219.702 61.6496 218.046 61.6496L218.307 60.6699L224.282 60.3765L218.437 81.8297C218.263 82.4167 218.131 82.9354 218.044 83.3798C217.957 83.8262 217.914 84.2024 217.914 84.5062C217.914 84.7025 217.968 84.8761 218.077 85.0291C218.187 85.182 218.36 85.2585 218.6 85.2585C218.947 85.2585 219.319 85.1117 219.71 84.8183C220.103 84.5248 220.477 84.1755 220.836 83.7725C221.196 83.3694 221.516 82.9561 221.799 82.5324C222.083 82.1087 222.289 81.776 222.419 81.5362L223.399 82.0922C223.073 82.8321 222.649 83.5451 222.126 84.2313C221.603 84.9175 221.049 85.521 220.46 86.0439C219.873 86.5668 219.28 86.9863 218.681 87.3005C218.081 87.6167 217.532 87.7738 217.031 87.7738C216.269 87.7738 215.709 87.6105 215.349 87.2839C214.989 86.9574 214.81 86.4138 214.81 85.6512C214.81 85.2151 214.876 84.6281 215.006 83.8882C215.136 83.1483 215.366 82.1356 215.692 80.8521L220.034 64.8841L220.039 64.8821Z" fill="#FFFBEB"/>
<path d="M228.56 76.6709C228.863 75.8214 229.083 75.1352 229.213 74.6144C229.343 74.0915 229.409 73.6782 229.409 73.3743C229.409 73.0705 229.36 72.868 229.262 72.7708C229.165 72.6737 229.06 72.6241 228.952 72.6241C228.713 72.6241 228.452 72.7378 228.169 72.9672C227.886 73.1966 227.603 73.4632 227.32 73.767C227.036 74.0729 226.786 74.3767 226.569 74.6805C226.352 74.9864 226.199 75.2241 226.113 75.3998L225.166 74.8128C225.426 74.3333 225.792 73.8001 226.259 73.2131C226.726 72.6262 227.256 72.0805 227.842 71.5804C228.429 71.0802 229.039 70.6607 229.672 70.3238C230.302 69.9869 230.901 69.8174 231.468 69.8174C232.034 69.8174 232.42 69.9765 232.691 70.2907C232.964 70.6069 233.098 71.1773 233.098 72.0041C233.098 72.6365 232.908 73.4839 232.528 74.5503C232.148 75.6168 231.652 76.9891 231.042 78.6653L229.833 81.9639C229.789 82.0734 229.729 82.2408 229.653 82.4703C229.577 82.6997 229.5 82.9394 229.424 83.1895C229.347 83.4396 229.281 83.6855 229.227 83.9232C229.174 84.163 229.145 84.3593 229.145 84.5102C229.145 84.7065 229.198 84.8801 229.308 85.0331C229.417 85.186 229.591 85.2625 229.831 85.2625C230.157 85.2625 230.494 85.1261 230.843 84.8533C231.191 84.5804 231.53 84.2601 231.856 83.8901C232.183 83.5202 232.476 83.144 232.739 82.7637C232.999 82.3835 233.195 82.0838 233.326 81.8668L234.305 82.4227C234.045 82.9456 233.689 83.5223 233.245 84.1526C232.799 84.7851 232.292 85.3658 231.726 85.899C231.16 86.4323 230.54 86.8787 229.864 87.2383C229.188 87.5979 228.491 87.7778 227.774 87.7778C227.142 87.7778 226.669 87.6145 226.354 87.2879C226.038 86.9614 225.881 86.4178 225.881 85.6552C225.881 85.0248 225.984 84.3448 226.191 83.6132C226.398 82.8836 226.698 81.9639 227.088 80.854L228.558 76.675L228.56 76.6709ZM233.361 64.4582C232.817 64.4582 232.344 64.2743 231.941 63.9023C231.538 63.5323 231.337 63.0528 231.337 62.4658C231.337 61.8789 231.534 61.3767 231.924 60.9633C232.317 60.5499 232.795 60.3433 233.361 60.3433C233.971 60.3433 234.471 60.5499 234.863 60.9633C235.256 61.3767 235.45 61.8665 235.45 62.4328C235.45 62.9991 235.244 63.4786 234.83 63.8692C234.417 64.2619 233.927 64.4562 233.361 64.4562V64.4582Z" fill="#FFFBEB"/>
<path d="M249.719 89.8304C249.719 90.7667 249.517 91.6099 249.116 92.3602C248.713 93.1104 248.136 93.7532 247.386 94.2864C246.636 94.8196 245.726 95.2268 244.66 95.5099C243.594 95.7931 242.395 95.9336 241.068 95.9336C239.871 95.9336 238.782 95.8241 237.802 95.6071C236.823 95.3901 235.979 95.0738 235.273 94.6605C234.566 94.2471 234.02 93.7635 233.64 93.2075C233.26 92.6516 233.067 92.0274 233.067 91.3309C233.067 90.438 233.357 89.6981 233.933 89.1112C234.51 88.5242 235.246 88.2287 236.137 88.2287C236.397 88.2287 236.647 88.2617 236.887 88.3258C237.127 88.3919 237.43 88.5097 237.8 88.6854C236.581 89.1856 235.971 90.1322 235.971 91.5272C235.971 92.4408 236.434 93.16 237.358 93.6829C238.284 94.2058 239.551 94.4662 241.163 94.4662C242.033 94.4662 242.839 94.3691 243.579 94.1727C244.319 93.9764 244.956 93.7263 245.489 93.4225C246.022 93.1166 246.435 92.7735 246.729 92.3932C247.022 92.0129 247.169 91.6368 247.169 91.2668C247.169 90.6571 246.803 90.1074 246.076 89.6175C245.346 89.1277 244.317 88.7619 242.99 88.5242C240.617 88.1108 238.875 87.6314 237.765 87.0878C236.655 86.5442 236.099 85.7816 236.099 84.8019C236.099 84.1716 236.376 83.6383 236.932 83.2022C237.488 82.7661 238.482 82.3321 239.921 81.896L239.987 81.7658C238.331 80.5898 237.505 79.0769 237.505 77.2272C237.505 76.2268 237.711 75.274 238.125 74.3709C238.538 73.4677 239.098 72.672 239.807 71.9879C240.514 71.3017 241.343 70.7643 242.289 70.3716C243.236 69.9789 244.232 69.7847 245.278 69.7847C246.888 69.7847 248.238 70.3716 249.327 71.5476C250.35 70.3944 251.34 69.8177 252.299 69.8177C252.995 69.8177 253.605 70.0306 254.128 70.4543C254.651 70.878 254.911 71.374 254.911 71.9403C254.911 72.3764 254.764 72.7402 254.471 73.0337C254.178 73.3271 253.812 73.4739 253.378 73.4739C253.051 73.4739 252.795 73.4036 252.611 73.261C252.425 73.1205 252.268 72.9613 252.138 72.7877C252.007 72.6141 251.861 72.457 251.697 72.3144C251.534 72.1739 251.311 72.1015 251.028 72.1015C250.875 72.1015 250.734 72.1284 250.604 72.1842C250.474 72.2379 250.234 72.3868 249.885 72.6244C249.994 72.9303 250.069 73.2176 250.114 73.4904C250.158 73.7632 250.18 74.1063 250.18 74.5197C250.18 76.9151 249.517 78.8248 248.188 80.2509C246.859 81.6769 245.032 82.4768 242.703 82.6504C241.657 82.7372 240.911 82.8674 240.466 83.0431C240.02 83.2167 239.797 83.4792 239.797 83.8264C239.797 84.2832 240.043 84.6263 240.531 84.8557C241.02 85.0851 241.634 85.2752 242.376 85.4282C243.116 85.5811 243.912 85.734 244.759 85.8849C245.609 86.0379 246.402 86.2611 247.142 86.5546C247.882 86.848 248.498 87.2511 248.988 87.7636C249.478 88.2741 249.724 88.9665 249.724 89.8366L249.719 89.8304ZM242.864 81.2099C243.387 81.2099 243.897 81.0032 244.4 80.5898C244.9 80.1765 245.352 79.6267 245.755 78.9405C246.158 78.2544 246.479 77.4772 246.718 76.6051C246.958 75.7349 247.078 74.8421 247.078 73.9265C247.078 73.0109 246.882 72.364 246.491 71.8535C246.098 71.343 245.588 71.0867 244.956 71.0867C244.455 71.0867 243.943 71.31 243.42 71.7564C242.897 72.2028 242.424 72.7732 242 73.4697C241.576 74.1663 241.233 74.9558 240.971 75.8362C240.71 76.7187 240.578 77.5826 240.578 78.4321C240.578 79.2815 240.785 79.9284 241.198 80.441C241.611 80.9536 242.167 81.2078 242.864 81.2078V81.2099Z" fill="#FFFBEB"/>
<path d="M265.101 77.291C265.471 76.1812 265.737 75.2986 265.9 74.6455C266.064 73.9924 266.146 73.4158 266.146 72.9156C266.146 72.4155 266.064 72.0621 265.9 71.8554C265.737 71.6487 265.46 71.5454 265.068 71.5454C264.392 71.5454 263.728 71.8058 263.075 72.3287C262.422 72.8516 261.763 73.6679 261.099 74.7778C260.436 75.8877 259.743 77.3034 259.026 79.023C258.307 80.7426 257.546 82.8011 256.74 85.1944L255.99 87.4472H253.248L259.712 65.3078C259.865 64.7642 259.985 64.2847 260.072 63.8714C260.159 63.458 260.202 63.1315 260.202 62.8917C260.202 62.4556 259.996 62.1518 259.582 61.9782C259.169 61.8046 258.406 61.6951 257.296 61.6517L257.526 60.3455H264.187L260.465 72.9508L260.562 73.0169C261.258 71.9939 262.064 71.2043 262.978 70.6504C263.892 70.0945 264.85 69.8175 265.851 69.8175C266.851 69.8175 267.69 70.1234 268.234 70.7311C268.777 71.3408 269.05 72.2233 269.05 73.3765C269.05 74.0958 268.941 74.9328 268.724 75.8918C268.507 76.8508 268.168 77.9483 267.711 79.1904C267.275 80.3664 266.938 81.2923 266.698 81.9661C266.458 82.6419 266.285 83.1586 266.175 83.5162C266.066 83.8758 265.995 84.1197 265.962 84.2499C265.929 84.3801 265.913 84.4896 265.913 84.5764C265.913 85.0766 266.119 85.3267 266.533 85.3267C266.969 85.3267 267.506 85.0704 268.149 84.5599C268.792 84.0494 269.439 83.3364 270.092 82.4208L271.005 83.107C270.656 83.7394 270.226 84.3367 269.716 84.903C269.203 85.4693 268.649 85.9633 268.05 86.389C267.451 86.8127 266.841 87.1517 266.221 87.4017C265.601 87.6518 265.018 87.7779 264.474 87.7779C263.887 87.7779 263.462 87.6146 263.201 87.2881C262.941 86.9615 262.809 86.4386 262.809 85.7214C262.809 85.3515 262.842 84.9588 262.906 84.5454C262.972 84.1321 263.085 83.6154 263.249 82.9954C263.412 82.3753 263.641 81.6127 263.935 80.7095C264.228 79.8063 264.615 78.6696 265.094 77.2972L265.101 77.291Z" fill="#FFFBEB"/>
<path d="M279.893 72.8497L277.183 81.8299C276.813 83.0059 276.617 83.8987 276.596 84.5084C276.596 84.7048 276.646 84.8784 276.743 85.0313C276.84 85.1843 277.01 85.2608 277.249 85.2608C277.642 85.2608 278.055 85.114 278.489 84.8205C278.926 84.527 279.343 84.1778 279.746 83.7747C280.149 83.3717 280.509 82.9584 280.823 82.5347C281.139 82.111 281.373 81.7782 281.526 81.5385L282.472 82.0944C282.102 82.8343 281.633 83.5474 281.069 84.2336C280.502 84.9197 279.903 85.5232 279.273 86.0461C278.64 86.569 278.004 86.9886 277.363 87.3027C276.72 87.619 276.139 87.776 275.617 87.776C274.854 87.776 274.304 87.6128 273.967 87.2862C273.63 86.9597 273.461 86.4161 273.461 85.6534C273.461 85.2174 273.537 84.6304 273.69 83.8905C273.843 83.1506 274.104 82.1378 274.474 80.8544L276.89 72.8538H274.081L274.505 71.3513H277.347L279.045 65.7358H282.05L280.352 71.3513H283.911L283.454 72.8538H279.895L279.893 72.8497Z" fill="#FFFBEB"/>
<path d="M286.651 74.809C286.651 74.0898 286.787 73.4263 287.06 72.8166C287.333 72.2069 287.707 71.6799 288.186 71.2335C288.666 70.787 289.236 70.4398 289.9 70.1877C290.563 69.9376 291.286 69.8115 292.072 69.8115C293.118 69.8115 293.988 70.0719 294.684 70.5948C295.381 71.1177 295.73 71.7915 295.73 72.6203C295.73 73.077 295.604 73.4367 295.354 73.6971C295.104 73.9575 294.761 74.0898 294.325 74.0898C293.824 74.0898 293.465 73.943 293.248 73.6495C293.031 73.3561 292.845 73.0295 292.692 72.6699C292.539 72.3103 292.376 71.9796 292.202 71.6737C292.028 71.3699 291.733 71.2169 291.32 71.2169C290.84 71.2169 290.437 71.4236 290.11 71.837C289.784 72.2503 289.621 72.7629 289.621 73.3726C289.621 74.0918 289.833 74.7594 290.257 75.3815C290.681 76.0015 291.154 76.6505 291.677 77.3243C292.2 78.0001 292.673 78.74 293.097 79.544C293.521 80.3501 293.733 81.2966 293.733 82.3858C293.733 83.1257 293.574 83.8223 293.26 84.4754C292.944 85.1285 292.52 85.6989 291.987 86.1887C291.454 86.6786 290.838 87.065 290.141 87.3482C289.445 87.6313 288.726 87.7719 287.986 87.7719C286.68 87.7719 285.64 87.4887 284.867 86.9224C284.094 86.3561 283.708 85.6162 283.708 84.7027C283.708 84.0723 283.854 83.5763 284.148 83.2167C284.441 82.8571 284.838 82.6773 285.34 82.6773C286.277 82.6773 286.81 83.32 286.94 84.6035C287.006 85.3 287.12 85.763 287.283 85.9903C287.446 86.2177 287.777 86.3334 288.279 86.3334C289.063 86.3334 289.683 86.0999 290.141 85.6307C290.598 85.1636 290.828 84.5146 290.828 83.6879C290.828 82.8178 290.611 82.0448 290.174 81.369C289.738 80.6952 289.261 80.0359 288.738 79.3931C288.215 78.7504 287.736 78.0704 287.302 77.3512C286.866 76.6319 286.649 75.7845 286.649 74.8049L286.651 74.809Z" fill="#FFFBEB"/>
<path d="M128.744 8.72363H143.383C145.469 8.72363 147.329 9.15972 148.962 10.0298C150.594 10.9 151.886 12.1566 152.839 13.7997C153.792 15.4407 154.267 17.3959 154.267 19.6631C154.267 21.9304 153.864 23.7864 153.056 25.2269C152.248 26.6695 151.283 27.7484 150.158 28.4656C149.034 29.1827 147.99 29.6126 147.029 29.7573L155.763 44.6423H146.62L138.836 30.3835H136.877V44.6423H128.74V8.72363H128.744ZM136.881 24.7495H140.473C141.924 24.7495 143.195 24.3961 144.282 23.6892C145.372 22.9824 145.915 21.7299 145.915 19.9339C145.915 18.1378 145.38 16.8916 144.309 16.193C143.239 15.4944 141.978 15.1451 140.527 15.1451H136.881V24.7515V24.7495Z" fill="#FFFBEB"/>
<path d="M162.404 8.72363H185.344V15.854H170.512V23.1746H185.207V30.0859H170.512V37.5139H185.344V44.6443H162.404V8.72363Z" fill="#FFFBEB"/>
<path d="M199.493 15.8518H190.922V8.72144H216.174V15.8518H207.63V44.6422H199.493V15.8518Z" fill="#FFFBEB"/>
<path d="M222.161 8.72363H230.298V44.6423H222.161V8.72363Z" fill="#FFFBEB"/>
<path d="M245.424 16.1785L246.024 16.2881V44.6423H237.887V8.72363H248.989L263.548 37.0241L262.949 37.1337V8.72363H271.085V44.6423H259.929L245.424 16.1785Z" fill="#FFFBEB"/>
<path d="M290.189 8.72363H298.27L312.448 44.6423H303.768L301.155 37.4313H287.332L284.693 44.6423H275.986L290.191 8.72363H290.189ZM290.052 30.3009H298.46L294.298 18.5181H294.215L290.052 30.3009Z" fill="#FFFBEB"/>
<path d="M316.828 8.72363H324.965V37.5139H338V44.6443H316.83V8.72363H316.828Z" fill="#FFFBEB"/>
</svg>
