<svg width="334" height="101" viewBox="0 0 334 101" fill="none" xmlns="http://www.w3.org/2000/svg">
<path d="M70.8681 64.7308C70.8681 83.4956 55.6791 98.7022 36.949 98.7022C18.2189 98.7022 3.02991 83.4956 3.02991 64.7308C3.02991 45.966 18.2189 30.7594 36.949 30.7594C55.6791 30.7594 70.8681 45.966 70.8681 64.7308Z" stroke="white" stroke-width="4.2649"/>
<path d="M70.8681 36.1039C70.8681 54.8687 55.6791 70.0753 36.949 70.0753C18.2189 70.0753 3.02991 54.8687 3.02991 36.1039C3.02991 17.3391 18.2189 2.13245 36.949 2.13245C55.6791 2.13245 70.8681 17.3391 70.8681 36.1039Z" stroke="white" stroke-width="4.2649"/>
<path d="M70.8681 50.203C70.8681 68.9678 55.6791 84.1744 36.949 84.1744C18.2189 84.1744 3.02991 68.9678 3.02991 50.203C3.02991 31.4382 18.2189 16.2316 36.949 16.2316C55.6791 16.2316 70.8681 31.4382 70.8681 50.203Z" stroke="white" stroke-width="4.2649"/>
<circle cx="37.1906" cy="50.6227" r="6.66522" fill="white"/>
<path d="M111.92 2.9119H126.628C128.724 2.9119 130.593 3.34933 132.233 4.22419C133.873 5.09905 135.167 6.36578 136.115 8.02438C137.081 9.66475 137.564 11.6241 137.564 13.9024C137.564 16.1807 137.154 18.0489 136.334 19.507C135.532 20.9468 134.566 22.0313 133.436 22.7604C132.306 23.4712 131.258 23.8995 130.292 24.0453L139.068 39H129.882L122.063 24.6741H120.094V39H111.92V2.9119ZM120.094 19.0148H123.703C125.161 19.0148 126.437 18.6594 127.531 17.9486C128.624 17.2378 129.171 15.9802 129.171 14.1758C129.171 12.3714 128.633 11.1229 127.558 10.4303C126.483 9.71943 125.216 9.36401 123.758 9.36401H120.094V19.0148ZM147.177 2.9119H170.224V10.0748H155.324V17.4292H170.087V24.3734H155.324V31.8371H170.224V39H147.177V2.9119ZM185.844 10.0748H177.232V2.9119H202.603V10.0748H194.019V39H185.844V10.0748ZM210.027 2.9119H218.201V39H210.027V2.9119ZM234.824 10.4029L235.426 10.5123V39H227.251V2.9119H238.406L253.032 31.3449L252.431 31.4543V2.9119H260.605V39H249.396L234.824 10.4029ZM281.201 2.9119H289.32L303.564 39H294.843L292.218 31.755H278.33L275.678 39H266.929L281.201 2.9119ZM281.064 24.5921H289.512L285.329 12.7541H285.247L281.064 24.5921ZM309.403 2.9119H317.577V31.8371H330.673V39H309.403V2.9119Z" fill="white"/>
<path d="M154.994 58.2769H166.142C168.034 58.2769 169.871 58.51 171.654 58.9762C173.436 59.415 175.054 60.2377 176.508 61.4443C178.071 62.7332 179.209 64.2689 179.922 66.0514C180.635 67.8065 180.991 69.6438 180.991 71.5634C180.991 72.7975 180.84 74.0452 180.539 75.3067C180.265 76.5407 179.867 77.7474 179.346 78.9266C178.852 80.0783 178.249 81.1753 177.536 82.2173C176.85 83.232 176.096 84.1507 175.274 84.9734C173.354 86.8656 171.229 88.1682 168.898 88.8812C166.567 89.5942 164.071 89.9507 161.411 89.9507H147.014L147.466 88.3053C148.344 88.3053 149.071 88.2504 149.647 88.1408C150.25 88.0311 150.743 87.8117 151.127 87.4826C151.539 87.1261 151.882 86.6325 152.156 86.0017C152.457 85.371 152.745 84.5209 153.02 83.4514L157.75 65.2698C157.805 65.0779 157.874 64.831 157.956 64.5294C158.065 64.2277 158.175 63.8987 158.285 63.5422C158.395 63.1857 158.477 62.8429 158.532 62.5138C158.614 62.1847 158.655 61.8968 158.655 61.65C158.655 61.2386 158.532 60.9232 158.285 60.7039C158.065 60.4845 157.778 60.3199 157.421 60.2102C157.092 60.0731 156.722 59.9909 156.31 59.9634C155.926 59.936 155.57 59.9223 155.241 59.9223H154.459L154.994 58.2769ZM157.956 80.4486C157.736 81.2712 157.558 81.9568 157.421 82.5053C157.284 83.0263 157.174 83.4651 157.092 83.8216C157.037 84.1507 156.996 84.4112 156.969 84.6032C156.941 84.7951 156.927 84.9597 156.927 85.0968C156.927 85.8372 157.078 86.4131 157.38 86.8244C157.709 87.2084 158.093 87.51 158.532 87.7294C158.97 87.9214 159.423 88.0448 159.889 88.0996C160.355 88.127 160.739 88.1408 161.041 88.1408C162.823 88.1408 164.441 87.8939 165.895 87.4003C167.348 86.9067 168.637 86.2348 169.761 85.3847C170.886 84.5072 171.846 83.5062 172.641 82.3819C173.464 81.2575 174.135 80.0646 174.656 78.8032C175.205 77.5417 175.603 76.2665 175.849 74.9776C176.096 73.6613 176.22 72.3861 176.22 71.1521C176.22 67.6968 175.287 65.0367 173.422 63.1719C171.585 61.2797 169.048 60.3336 165.813 60.3336C165.017 60.3336 164.373 60.4571 163.879 60.7039C163.413 60.9232 163.056 61.4991 162.81 62.4315L157.956 80.4486ZM197.653 84.4798C195.267 88.4013 192.333 90.362 188.85 90.362C186.958 90.362 185.505 89.7861 184.49 88.6344C183.475 87.4552 182.968 85.7961 182.968 83.6571C182.968 81.7649 183.352 79.8727 184.12 77.9805C184.915 76.0883 185.943 74.388 187.205 72.8798C188.466 71.3441 189.879 70.11 191.442 69.1776C193.005 68.2178 194.568 67.7379 196.131 67.7379C197.447 67.7379 198.517 68.0807 199.34 68.7663C200.19 69.4244 200.615 70.2746 200.615 71.3166C200.615 72.2764 200.258 73.2637 199.545 74.2783C198.832 75.293 197.859 76.2528 196.625 77.1578C195.418 78.0627 193.992 78.8854 192.347 79.6259C190.729 80.3663 189.001 80.9422 187.164 81.3535C187.109 81.7374 187.068 82.1214 187.04 82.5053C187.013 82.8618 186.999 83.232 186.999 83.6159C186.999 86.6051 188.055 88.0996 190.167 88.0996C191.181 88.0996 192.223 87.702 193.293 86.9067C194.39 86.1114 195.404 85.0145 196.337 83.6159L197.653 84.4798ZM195.308 69.6712C194.595 69.6712 193.855 69.9455 193.087 70.4939C192.319 71.0424 191.579 71.7828 190.866 72.7152C190.18 73.6202 189.55 74.6623 188.974 75.8415C188.398 77.0207 187.932 78.241 187.575 79.5025C188.891 79.146 190.112 78.6798 191.236 78.1039C192.36 77.528 193.32 76.8835 194.115 76.1705C194.938 75.4301 195.583 74.6623 196.049 73.867C196.515 73.0443 196.748 72.2216 196.748 71.3989C196.748 70.2471 196.268 69.6712 195.308 69.6712ZM208.679 61.5266C208.817 61.0329 208.954 60.5393 209.091 60.0457C209.228 59.5247 209.296 59.1407 209.296 58.8939C209.296 57.9341 208.254 57.4542 206.17 57.4542L206.499 56.2202L214.027 55.85L206.664 82.8755C206.444 83.6159 206.28 84.2741 206.17 84.85C206.061 85.3984 206.006 85.8646 206.006 86.2486C206.006 86.4954 206.074 86.7147 206.211 86.9067C206.348 87.0987 206.568 87.1947 206.87 87.1947C207.308 87.1947 207.774 87.0164 208.268 86.6599C208.762 86.276 209.228 85.8372 209.667 85.3436C210.133 84.8225 210.544 84.3015 210.901 83.7805C211.257 83.232 211.518 82.8069 211.682 82.5053L212.916 83.2046C212.505 84.137 211.97 85.0419 211.312 85.9195C210.654 86.7696 209.955 87.5237 209.214 88.1819C208.474 88.84 207.72 89.3748 206.952 89.7861C206.211 90.1701 205.526 90.362 204.895 90.362C203.935 90.362 203.222 90.1564 202.756 89.745C202.317 89.3337 202.098 88.6481 202.098 87.6883C202.098 87.1398 202.18 86.3994 202.345 85.467C202.509 84.5346 202.797 83.2594 203.209 81.6415L208.679 61.5266ZM219.435 76.3762C219.819 75.3067 220.093 74.4429 220.258 73.7847C220.422 73.1266 220.505 72.6055 220.505 72.2216C220.505 71.8377 220.436 71.5909 220.299 71.4812C220.189 71.3441 220.066 71.2755 219.929 71.2755C219.627 71.2755 219.298 71.4263 218.942 71.728C218.585 72.0022 218.229 72.3313 217.872 72.7152C217.516 73.0991 217.2 73.4831 216.926 73.867C216.652 74.2509 216.46 74.5526 216.35 74.772L215.157 74.0315C215.486 73.4282 215.939 72.7563 216.515 72.0159C217.118 71.2755 217.79 70.5899 218.53 69.9592C219.271 69.3285 220.039 68.8074 220.834 68.3961C221.629 67.9573 222.383 67.7379 223.096 67.7379C223.782 67.7379 224.289 67.9436 224.618 68.3549C224.975 68.7389 225.153 69.4519 225.153 70.4939C225.153 71.2892 224.906 72.3587 224.413 73.7024C223.946 75.0462 223.329 76.7738 222.561 78.8854L221.039 83.04C220.985 83.1772 220.902 83.3965 220.793 83.6982C220.71 83.9724 220.614 84.2741 220.505 84.6032C220.422 84.9048 220.34 85.2065 220.258 85.5081C220.203 85.8098 220.176 86.0566 220.176 86.2486C220.176 86.4954 220.244 86.7147 220.381 86.9067C220.518 87.0987 220.738 87.1947 221.039 87.1947C221.451 87.1947 221.876 87.0301 222.315 86.701C222.753 86.3445 223.178 85.9332 223.59 85.467C224.001 85.0008 224.371 84.5346 224.7 84.0684C225.03 83.5748 225.276 83.1909 225.441 82.9166L226.675 83.6159C226.346 84.2741 225.893 85.0008 225.317 85.7961C224.769 86.5913 224.138 87.3318 223.425 88.0173C222.712 88.6755 221.931 89.2377 221.081 89.7039C220.23 90.1426 219.353 90.362 218.448 90.362C217.653 90.362 217.049 90.1564 216.638 89.745C216.254 89.3337 216.062 88.6481 216.062 87.6883C216.062 86.893 216.186 86.0429 216.432 85.1379C216.707 84.2055 217.091 83.04 217.584 81.6415L219.435 76.3762ZM225.482 60.9918C224.796 60.9918 224.193 60.7587 223.672 60.2925C223.178 59.8263 222.932 59.223 222.932 58.4826C222.932 57.7422 223.178 57.1114 223.672 56.5904C224.166 56.0693 224.769 55.8088 225.482 55.8088C226.25 55.8088 226.881 56.0693 227.374 56.5904C227.868 57.1114 228.115 57.7284 228.115 58.4414C228.115 59.1545 227.854 59.7578 227.333 60.2514C226.812 60.745 226.195 60.9918 225.482 60.9918ZM246.08 92.9535C246.08 94.1327 245.82 95.1885 245.299 96.1209C244.805 97.0807 244.078 97.8897 243.119 98.5479C242.186 99.2334 241.048 99.7545 239.704 100.111C238.361 100.467 236.852 100.646 235.18 100.646C233.671 100.646 232.3 100.509 231.066 100.234C229.832 99.9601 228.776 99.5625 227.899 99.0415C226.994 98.5204 226.308 97.9034 225.842 97.1904C225.348 96.5048 225.102 95.7233 225.102 94.8457C225.102 93.7214 225.472 92.789 226.212 92.0486C226.925 91.3081 227.844 90.9379 228.968 90.9379C229.297 90.9379 229.613 90.9791 229.914 91.0613C230.216 91.1436 230.6 91.2944 231.066 91.5138C229.53 92.1445 228.763 93.3374 228.763 95.0925C228.763 96.2443 229.338 97.1493 230.49 97.8074C231.669 98.4656 233.274 98.7947 235.303 98.7947C236.4 98.7947 237.415 98.6713 238.347 98.4244C239.279 98.1776 240.075 97.8623 240.733 97.4783C241.418 97.0944 241.939 96.6557 242.296 96.162C242.68 95.6958 242.872 95.2296 242.872 94.7635C242.872 93.9956 242.406 93.2963 241.473 92.6656C240.568 92.0623 239.279 91.6098 237.607 91.3081C234.617 90.7871 232.424 90.1838 231.025 89.4982C229.626 88.8126 228.927 87.8528 228.927 86.6188C228.927 85.8235 229.27 85.1516 229.955 84.6032C230.668 84.0547 231.93 83.5062 233.74 82.9578L233.822 82.7932C231.738 81.3124 230.696 79.4065 230.696 77.0755C230.696 75.814 230.956 74.6211 231.477 73.4968C231.998 72.345 232.698 71.3441 233.575 70.4939C234.48 69.6164 235.522 68.9308 236.702 68.4372C237.908 67.9436 239.17 67.6968 240.486 67.6968C242.515 67.6968 244.215 68.4372 245.587 69.9181C246.876 68.4646 248.123 67.7379 249.33 67.7379C250.207 67.7379 250.975 68.0121 251.633 68.5606C252.292 69.0816 252.621 69.6987 252.621 70.4117C252.621 70.9601 252.429 71.4263 252.045 71.8102C251.688 72.1668 251.236 72.345 250.687 72.345C250.276 72.345 249.947 72.2627 249.7 72.0982C249.481 71.9062 249.289 71.7006 249.124 71.4812C248.96 71.2618 248.768 71.0698 248.548 70.9053C248.356 70.7133 248.082 70.6173 247.726 70.6173C247.534 70.6173 247.355 70.6585 247.191 70.7407C247.026 70.7956 246.725 70.9738 246.286 71.2755C246.423 71.6594 246.519 72.0296 246.574 72.3861C246.629 72.7152 246.656 73.1403 246.656 73.6613C246.656 76.6779 245.82 79.0911 244.147 80.901C242.474 82.6835 240.171 83.6845 237.236 83.9039C235.92 84.0136 234.974 84.1781 234.398 84.3975C233.85 84.6169 233.575 84.946 233.575 85.3847C233.575 85.9606 233.877 86.3994 234.48 86.701C235.111 86.9753 235.893 87.2084 236.825 87.4003C237.757 87.5923 238.758 87.7843 239.828 87.9762C240.897 88.1682 241.898 88.4561 242.831 88.84C243.763 89.1965 244.531 89.6902 245.134 90.3209C245.765 90.9791 246.08 91.8566 246.08 92.9535ZM237.442 82.0939C238.1 82.0939 238.745 81.8334 239.375 81.3124C240.006 80.7913 240.568 80.1058 241.062 79.2556C241.583 78.3781 241.994 77.3909 242.296 76.2939C242.598 75.197 242.748 74.0727 242.748 72.9209C242.748 71.824 242.502 70.9601 242.008 70.3294C241.514 69.6712 240.87 69.3422 240.075 69.3422C239.444 69.3422 238.799 69.6301 238.141 70.206C237.483 70.7545 236.88 71.4675 236.331 72.345C235.81 73.2225 235.385 74.2235 235.056 75.3478C234.727 76.4448 234.563 77.528 234.563 78.5975C234.563 79.6396 234.823 80.4897 235.344 81.1478C235.865 81.7786 236.564 82.0939 237.442 82.0939ZM265.447 77.1578C265.913 75.7592 266.242 74.6485 266.434 73.8259C266.653 73.0032 266.763 72.2764 266.763 71.6457C266.763 71.015 266.653 70.5762 266.434 70.3294C266.242 70.0552 265.899 69.9181 265.406 69.9181C264.555 69.9181 263.719 70.2471 262.896 70.9053C262.074 71.5634 261.237 72.5918 260.387 73.9904C259.564 75.389 258.701 77.1715 257.796 79.3379C256.891 81.5043 255.931 84.0958 254.916 87.1124L253.97 89.9507H250.515L258.659 62.0613C258.851 61.3757 259.002 60.7724 259.112 60.2514C259.222 59.7303 259.276 59.319 259.276 59.0173C259.276 58.4689 259.016 58.0849 258.495 57.8656C257.974 57.6462 257.014 57.5091 255.616 57.4542L255.903 55.8088H264.295L259.606 71.6868L259.729 71.7691C260.607 70.4802 261.621 69.493 262.773 68.8074C263.925 68.0944 265.131 67.7379 266.393 67.7379C267.709 67.7379 268.71 68.1218 269.396 68.8897C270.081 69.6575 270.424 70.7682 270.424 72.2216C270.424 73.1266 270.287 74.1824 270.013 75.389C269.738 76.5956 269.313 77.9805 268.737 79.5436C268.189 81.0244 267.764 82.1899 267.462 83.04C267.161 83.8902 266.941 84.5483 266.804 85.0145C266.667 85.4533 266.571 85.7549 266.516 85.9195C266.489 86.084 266.475 86.2211 266.475 86.3308C266.475 86.9616 266.736 87.2769 267.257 87.2769C267.805 87.2769 268.477 86.9616 269.272 86.3308C270.095 85.6727 270.918 84.7677 271.74 83.6159L272.892 84.4798C272.453 85.275 271.905 86.0292 271.247 86.7422C270.616 87.4552 269.917 88.0859 269.149 88.6344C268.408 89.1554 267.641 89.5805 266.845 89.9095C266.077 90.2112 265.351 90.362 264.665 90.362C263.925 90.362 263.39 90.1564 263.061 89.745C262.732 89.3337 262.567 88.6755 262.567 87.7705C262.567 87.3043 262.608 86.8107 262.691 86.2897C262.773 85.7686 262.91 85.1242 263.102 84.3564C263.321 83.5611 263.609 82.6013 263.966 81.4769C264.35 80.3251 264.843 78.8854 265.447 77.1578ZM284.09 71.5634L280.676 82.8755C280.209 84.3564 279.963 85.4807 279.935 86.2486C279.935 86.4954 279.99 86.7147 280.1 86.9067C280.237 87.0987 280.456 87.1947 280.758 87.1947C281.251 87.1947 281.773 87.0164 282.321 86.6599C282.869 86.276 283.39 85.8372 283.884 85.3436C284.405 84.8225 284.858 84.3015 285.242 83.7805C285.653 83.232 285.955 82.8069 286.146 82.5053L287.339 83.2046C286.873 84.137 286.284 85.0419 285.571 85.9195C284.858 86.7696 284.103 87.5237 283.308 88.1819C282.513 88.84 281.704 89.3748 280.881 89.7861C280.086 90.1701 279.359 90.362 278.701 90.362C277.741 90.362 277.042 90.1564 276.603 89.745C276.192 89.3337 275.986 88.6481 275.986 87.6883C275.986 87.1398 276.082 86.3994 276.274 85.467C276.466 84.5346 276.795 83.2594 277.261 81.6415L280.305 71.5634H276.768L277.303 69.6712H280.881L283.02 62.5961H286.805L284.666 69.6712H289.149L288.573 71.5634H284.09ZM292.614 74.0315C292.614 73.1266 292.779 72.2902 293.108 71.5223C293.464 70.7545 293.944 70.0963 294.548 69.5478C295.151 68.972 295.864 68.5332 296.687 68.2315C297.537 67.9024 298.455 67.7379 299.443 67.7379C300.759 67.7379 301.856 68.067 302.733 68.7251C303.611 69.3833 304.05 70.2334 304.05 71.2755C304.05 71.8514 303.885 72.3039 303.556 72.6329C303.254 72.962 302.829 73.1266 302.281 73.1266C301.65 73.1266 301.198 72.9483 300.924 72.5918C300.649 72.2079 300.416 71.7965 300.224 71.3578C300.032 70.8916 299.827 70.4665 299.607 70.0826C299.388 69.6987 299.018 69.5067 298.497 69.5067C297.893 69.5067 297.386 69.7672 296.975 70.2883C296.563 70.8093 296.358 71.4537 296.358 72.2216C296.358 73.1266 296.618 73.9767 297.139 74.772C297.688 75.5398 298.291 76.3488 298.949 77.1989C299.607 78.049 300.197 78.9814 300.718 79.9961C301.266 81.0107 301.541 82.2036 301.541 83.5748C301.541 84.5072 301.335 85.3847 300.924 86.2074C300.54 87.0301 300.005 87.7568 299.319 88.3876C298.661 88.9909 297.893 89.4708 297.016 89.8273C296.138 90.1838 295.233 90.362 294.301 90.362C292.655 90.362 291.339 90.0055 290.352 89.2925C289.392 88.5795 288.912 87.6471 288.912 86.4954C288.912 85.7001 289.09 85.0831 289.447 84.6443C289.831 84.1781 290.338 83.945 290.969 83.945C292.148 83.945 292.82 84.754 292.985 86.372C293.067 87.2495 293.204 87.8391 293.396 88.1408C293.615 88.415 294.04 88.5521 294.671 88.5521C295.658 88.5521 296.44 88.2642 297.016 87.6883C297.592 87.085 297.88 86.2623 297.88 85.2202C297.88 84.1233 297.605 83.1497 297.057 82.2996C296.508 81.4495 295.905 80.6268 295.247 79.8315C294.589 79.0088 293.985 78.145 293.437 77.24C292.889 76.3351 292.614 75.2656 292.614 74.0315Z" fill="white"/>
</svg>
