<svg xmlns="http://www.w3.org/2000/svg" width="1100" height="500" fill="none"><path fill="#F2EAD5" d="M147.97 325q-.82-8.2-7-12.75-6.18-4.55-16.78-4.55-7.2 0-12.16 2.04-4.96 1.97-7.61 5.5-2.58 3.53-2.58 8-.14 3.74 1.56 6.52 1.77 2.78 4.82 4.82 3.06 1.97 7.07 3.46a73 73 0 0 0 8.56 2.44l12.5 2.99q9.1 2.04 16.71 5.43 7.61 3.4 13.19 8.35 5.57 4.95 8.62 11.67 3.13 6.72 3.2 15.4-.07 12.77-6.53 22.13-6.38 9.3-18.48 14.46-12.02 5.09-29 5.09-16.86 0-29.36-5.16-12.43-5.16-19.43-15.27Q68.34 395.4 68 380.4h28.47q.47 7 4 11.67 3.6 4.62 9.59 7 6.04 2.3 13.65 2.3 7.48 0 12.98-2.17 5.57-2.17 8.63-6.04 3.06-3.87 3.06-8.9 0-4.67-2.79-7.86-2.72-3.2-8.02-5.43-5.23-2.24-12.84-4.07l-15.15-3.8q-17.6-4.28-27.79-13.38-10.19-9.09-10.12-24.5-.07-12.62 6.73-22.06 6.86-9.43 18.82-14.72 11.95-5.3 27.17-5.3 15.5 0 27.04 5.3 11.62 5.3 18.08 14.72 6.45 9.44 6.65 21.86zm42.23 99.03v-139h29.42V399.8h59.65v24.23zm186.85-139h29.42v90.27q0 15.2-7.27 26.6-7.2 11.4-20.18 17.79Q366.05 426 348.8 426q-17.33 0-30.3-6.31-12.98-6.38-20.18-17.78-7.2-11.4-7.2-26.6v-90.28h29.41v87.76q0 7.94 3.47 14.12 3.53 6.17 9.92 9.7 6.39 3.53 14.88 3.53 8.56 0 14.88-3.53 6.38-3.53 9.85-9.7 3.53-6.18 3.53-14.12zm138.24 44.93q-1.43-4.95-4.01-8.75a24.7 24.7 0 0 0-6.32-6.52q-3.67-2.71-8.42-4.14-4.7-1.42-10.4-1.42-10.67 0-18.75 5.3-8.02 5.29-12.5 15.4-4.49 10.04-4.49 24.57 0 14.52 4.42 24.7t12.5 15.54q8.09 5.3 19.1 5.3 9.98 0 17.05-3.53 7.13-3.6 10.87-10.11 3.8-6.52 3.8-15.41l5.98.88h-35.87v-22.12h58.22v17.5q0 18.33-7.74 31.5-7.75 13.1-21.34 20.22-13.59 7.06-31.11 7.06-19.57 0-34.38-8.62-14.81-8.68-23.1-24.63-8.22-16.02-8.22-38.01 0-16.9 4.89-30.14 4.96-13.3 13.86-22.53 8.9-9.23 20.72-14.05 11.82-4.82 25.62-4.82 11.82 0 22 3.47 10.2 3.39 18.08 9.63 7.95 6.25 12.98 14.87 5.03 8.55 6.45 18.86zm137.9 0q-1.43-4.95-4.01-8.75a24.7 24.7 0 0 0-6.32-6.52q-3.67-2.71-8.43-4.14-4.68-1.42-10.4-1.42-10.66 0-18.74 5.3-8.02 5.29-12.5 15.4-4.49 10.04-4.49 24.57 0 14.52 4.42 24.7 4.41 10.18 12.5 15.54 8.08 5.3 19.09 5.3 9.99 0 17.05-3.53 7.14-3.6 10.87-10.11 3.8-6.52 3.8-15.41l5.99.88h-35.87v-22.12h58.22v17.5q0 18.33-7.75 31.5-7.74 13.1-21.33 20.22-13.59 7.06-31.12 7.06-19.56 0-34.37-8.62-14.82-8.68-23.1-24.63-8.23-16.02-8.23-38.01 0-16.9 4.9-30.14 4.96-13.3 13.86-22.53 8.9-9.23 20.72-14.05 11.82-4.82 25.61-4.82 11.83 0 22.02 3.47 10.19 3.39 18.07 9.63 7.95 6.25 12.98 14.87 5.02 8.55 6.45 18.86zm45.63 94.07v-139h93.76v24.23h-64.34v33.12h59.51v24.23h-59.51v33.2h64.6v24.22zm109.5 0v-139h54.9q15.75 0 26.9 5.64 11.2 5.56 17.05 15.81 5.91 10.18 5.91 23.96 0 13.84-5.98 23.82-5.98 9.91-17.32 15.2-11.28 5.3-27.32 5.3h-36.75v-23.62h32q8.42 0 14-2.3t8.28-6.93q2.79-4.62 2.79-11.47 0-6.93-2.79-11.68-2.71-4.75-8.35-7.19-5.58-2.51-14.07-2.51h-19.84v114.97zm75.14-63.25 34.58 63.25h-32.48l-33.83-63.25zM1001.7 325q-.81-8.21-7-12.76-6.18-4.55-16.78-4.55-7.2 0-12.16 2.04-4.96 1.97-7.6 5.5-2.6 3.53-2.6 8-.13 3.74 1.57 6.52 1.77 2.78 4.83 4.82 3.05 1.97 7.06 3.46a73 73 0 0 0 8.56 2.44l12.5 2.99a88.34 88.34 0 0 1 16.72 5.43c5.07 2.26 9.47 5.05 13.18 8.35s6.59 7.2 8.63 11.67c2.08 4.48 3.15 9.62 3.19 15.4-.04 8.51-2.22 15.89-6.52 22.13q-6.39 9.3-18.48 14.46-12.03 5.09-29.01 5.09-16.85 0-29.36-5.16Q936 415.68 929 405.57q-6.93-10.18-7.27-25.18h28.47q.48 7 4.01 11.67 3.6 4.62 9.58 7 6.05 2.3 13.66 2.3 7.47 0 12.97-2.17 5.58-2.17 8.63-6.04t3.06-8.9q0-4.67-2.79-7.86-2.71-3.2-8.01-5.43-5.23-2.24-12.84-4.07l-15.16-3.8q-17.6-4.28-27.78-13.38-10.2-9.09-10.13-24.5-.07-12.62 6.73-22.06 6.86-9.43 18.82-14.72 11.96-5.3 27.18-5.3 15.49 0 27.04 5.3c7.74 3.53 13.77 8.44 18.07 14.72q6.45 9.44 6.66 21.86zM241.43 156.76q-.81-8.21-6.99-12.76-6.17-4.55-16.76-4.54-7.2 0-12.15 2.03-4.95 1.97-7.6 5.5-2.58 3.53-2.58 8-.14 3.74 1.56 6.52 1.76 2.79 4.82 4.82 3.05 1.97 7.06 3.46a73 73 0 0 0 8.55 2.45l12.49 2.98q9.1 2.04 16.7 5.43 7.6 3.4 13.16 8.35 5.56 4.95 8.62 11.67 3.12 6.72 3.19 15.41-.07 12.76-6.52 22.13-6.38 9.3-18.46 14.45-12 5.1-28.98 5.1-16.83 0-29.32-5.17-12.42-5.16-19.4-15.27-6.93-10.18-7.27-25.18H190q.47 7 4 11.68 3.6 4.61 9.57 6.99 6.04 2.3 13.64 2.3 7.47 0 12.97-2.17 5.56-2.17 8.62-6.04 3.05-3.87 3.05-8.89 0-4.68-2.78-7.87-2.72-3.19-8.01-5.43-5.23-2.24-12.83-4.07l-15.13-3.8q-17.58-4.28-27.76-13.37-10.18-9.1-10.11-24.5-.07-12.63 6.71-22.06 6.86-9.44 18.8-14.73t27.15-5.3q15.48 0 27.01 5.3 11.61 5.3 18.06 14.73 6.44 9.43 6.65 21.85zm62.98 99.02h-31.5l47.99-139h37.87l47.92 139h-31.5l-34.81-107.23h-1.09zm-1.97-54.63h74.38v22.94h-74.38zm91.05-60.13v-24.23h114.16v24.23h-42.56v114.76h-29.04V141.02zm246.7 45.27q0 22.73-8.62 38.68-8.55 15.95-23.35 24.37-14.73 8.34-33.12 8.34-18.53 0-33.25-8.41-14.73-8.42-23.28-24.37T510 186.3q0-22.74 8.56-38.69t23.28-24.3q14.72-8.41 33.25-8.41 18.4 0 33.12 8.41 14.8 8.35 23.35 24.3 8.62 15.95 8.62 38.69m-29.8 0q0-14.73-4.4-24.84-4.35-10.12-12.3-15.34-7.93-5.23-18.59-5.23t-18.6 5.23q-7.94 5.22-12.35 15.34-4.34 10.1-4.34 24.84t4.34 24.84q4.42 10.1 12.36 15.34 7.94 5.22 18.6 5.22t18.59-5.22q7.94-5.23 12.28-15.34 4.41-10.12 4.41-24.84"/><path fill="#F09" d="M699.12 221.43q13.09 6.9 21.86 14.9 8.71 7.72 14.3 19.66 5.8 13.1 4.2 27-1.94 13.67-10.9 23.82-11.73 13.1-29.27 14.6-34.86 2.68-53.21-41.6-7.27-17.66-6.26-25.1 1.42-8.43 8.8-12.54 7.68-4.18 15.62-.54 7.94 3.63 10.62 14.6 1.18 4.62 3.05 9.7 1.81 4.8 4.78 10.89 3.2 5.74 7.65 8.52 4.4 2.5 9.38.04 5.56-2.57 4.87-9.38-.74-7.12-4.83-11.18-4.32-5.22-15.44-11.28-11.17-6.35-13.65-8.3-22.25-16.94-33.6-46.52-6.44-18.12-6.33-35.06.44-20.03 11.06-32.61 10.14-11.9 26.17-13.42 41.68-3.35 53.32 35.84 5.8 19.45 1.46 28.44-2.15 4.63-7.6 7.78-5.5 2.85-6.57 5.17-1.78 3.36-2.31 3.76-.59.11-3.06-3.35-1.64-3.92-5.46-6.52-3.82-2.6-5.48-5-2.18-3.52-3.2-12.1-.78-8.91-4.63-13.32-3.8-4.11-4.93-2.09-1.13 2.03-2.15 4.64-.78 2.26-2.04.39-.46-.82-1.36-3.98-.6-3.2-1.75-4.5-.92-1.64-2.69.2-3.11 2.7-3.48 10.33-.13 7.28.97 13.12 3.05 14.53 11.43 26.84 8.32 12.03 20.66 18.15m97.97 79.37q-3.47 3.98-8.9 5.61-6.9 1.91-13.33-1.7-6.19-3.97-8.1-10.86a163420 163420 0 0 1-19.82-76.03q-1.18-4.6-1.75-6.01-.56-1.4-2.36-2.88-1.79-1.47-3.45-3.88-4.59-6.69-1.27-17.89.54-1.91-2.26-11.96-2.35-9.23-11.94-45.49-1.67-7.23 1.13-13.2 2.74-6.26 9.52-8.76 7.31-2.9 14.09.96 7 3.51 9.03 10.99 1.9 6.89 9.47 35.68l.72 3.79.88 4.67q.68 1.98 1.41 4.26.97 1.93 1.67 2.4.46.83 1.68.9t2.68-.2l3.2-.62a15 15 0 0 0 2.87-.84q1.7-.62 2.28-.73l2.92-.55 4.08-.78 3.4-1.24q1.92-.97 2.4-1.67.42-.98.03-3.03a27.5 27.5 0 0 0-.43-3.84q-.38-2.04-1.17-4.62-.8-2.57-1.14-2.8-.1-.59-9.57-37.78-1.9-6.89 1.77-13.02 3.62-6.43 10.51-8.34 7.18-1.96 13.38 2 6.42 3.62 8.33 10.51l18.03 69.72 25.05 95.58q1.61 6.95-2 13.38-3.68 6.13-10.86 8.1-6.95 1.61-13.38-2-6.13-3.68-8.04-10.57-15.96-61.95-18.36-71.47-1.24-4.9-2.92-5.8-1.73-1.18-6.93.1-5.48 1.35-6.8 4.02-1.36 2.37.12 5.41 1.43 2.75.98 6.77-.04 4.54-2.7 1.72-1.03-.71-1.6-2.12-.11-.58-.74-2.28a16.6 16.6 0 0 0-.9-3.15 15.8 15.8 0 0 0-1.48-3.04q-.62-1.7-1.6-2.11-1.05-.71-2.1.09t-1.37 2.37q-.07 1.23.37 3.56l.72 3.8q.28 1.45 1 3.73.74 2.28.85 2.86.63 1.7 15.81 59.56 2.85 11.85-3.1 18.72m149.97-104.23q7.27.14 12.23 5.55 5.19 5.06 5.05 12.33a47 47 0 0 1-.21 3.67q.04 1.8-.79 8.61-.88 6.51-2.22 12.2-1.34 5.7-4.45 13.24-2.87 7.19-6.7 12.45-3.85 5.26-10.3 9.5-6.21 3.9-14.2 4.8-22.56 2.16-37.77-14.3-14.96-16.81-22.93-46.13l-.68-1.99q-5.33-2.61-8.13-7.83t-1.75-10.84q.7-5.88 4.76-9.97a852 852 0 0 1-.68-6.82q-2.08-18.95-1.3-37.23.93-28.58 9.4-47.7 8.76-19.2 22.98-20.67 13.94-1.43 25.43 1.83 11.8 3.2 18.15 8.05 6.65 4.79 11.82 11.36 5.12 6.29 6.26 9.1 1.37 2.45 2 4.15l.16.87.56 1.4q1.9 8.41-.25 19.4t-6.5 19.96q-6.38 14.2-19.22 27.8-5.24 5.84-6.97 9.49-1.78 3.36-1.44 9.94.17.88.04 1.8.1.59-.09 2.74.04 1.8-.54 1.92t-1.8.04q-1.05-.71-1.78-3-.74-2.27-1.07-4.02-.1-2.1-1.19-3.1-1.1-1-3.44.96-9.39 6.3-10.99 9.03-1.24 1.44 2 10.5 9.7 28.98 21.01 28.05 3.62-.08 5.37-6.76 1.7-6.97 2.1-16.1.67-9.2.92-11.06 1.58-6.04 6.1-9.31 4.75-3.62 11.05-3.9m-27.2-73.43a4.8 4.8 0 0 0-.44-2.33q-2-4.16-8.02-7.25-5.79-3.44-9.82-2.37-1.17.22-1.76 1.84-.66 1.34-.91 3.2l.08 3.6a10.7 10.7 0 0 1-.38 2.8q-.42.99-1.11.51-1.57-.3-3.21-10.57-.74-2.28-1.32-2.17l-.61 25.5q-.27 3.38-.46 10.36-.19 6.99-.46 10.36-.11 5.77 1.8 6.3 2.15.2 6.5-3.94 7.77-6.9 13.99-17.15 6.22-10.24 6.13-18.69"/></svg>