<svg xmlns="http://www.w3.org/2000/svg" width="376" height="101" fill="none"><path fill="#FFFBEB" d="M69.01 94.173C51.911 94.173 38 80.237 38 63.107s13.911-31.066 31.01-31.066 31.01 13.937 31.01 31.066c0 17.13-13.911 31.066-31.01 31.066m0-57.996c-14.819 0-26.876 12.082-26.876 26.932S54.19 90.041 69.01 90.041 95.886 77.96 95.886 63.11 83.83 36.177 69.01 36.177"/><path fill="#FFFBEB" d="M69.01 69.13C51.911 69.13 38 55.193 38 38.064 38 20.934 51.911 7 69.01 7s31.01 13.936 31.01 31.066-13.911 31.066-31.01 31.066zm0-57.996c-14.819 0-26.876 12.082-26.876 26.932S54.19 64.998 69.01 64.998s26.876-12.082 26.876-26.932S83.83 11.134 69.01 11.134"/><path fill="#FFFBEB" d="M69.01 81.5C51.911 81.5 38 67.562 38 50.432S51.911 19.37 69.01 19.37s31.01 13.936 31.01 31.065-13.911 31.066-31.01 31.066zm0-57.997c-14.819 0-26.876 12.083-26.876 26.932 0 14.85 12.057 26.933 26.876 26.933s26.876-12.083 26.876-26.932c0-14.85-12.057-26.933-26.876-26.933"/><path fill="#FFFBEB" d="M69.01 56.518c3.41 0 6.173-2.77 6.173-6.186s-2.764-6.186-6.173-6.186-6.174 2.77-6.174 6.186 2.764 6.186 6.174 6.186M177.426 62.303h8.849q2.253 0 4.376.54a9.7 9.7 0 0 1 3.852 1.975q1.86 1.534 2.71 3.642.849 2.106.849 4.392.001 1.47-.343 2.955-.343 1.487-.946 2.873a16 16 0 0 1-1.437 2.613 15 15 0 0 1-1.812 2.203q-2.286 2.253-5.062 3.102-2.776.85-5.942.85h-11.429l.359-1.307q1.046 0 1.747-.13t1.176-.54q.473-.407.816-1.159.343-.75.67-2.025l3.755-14.433q.066-.228.18-.587.114-.36.246-.783.13-.425.213-.816t.083-.687q0-.489-.277-.75a2 2 0 0 0-.687-.409 3.3 3.3 0 0 0-.882-.18q-.474-.032-.866-.033h-.62l.424-1.306zm2.349 17.6q-.261.981-.423 1.617-.163.636-.246 1.046-.082.409-.114.636a3 3 0 0 0-.033.393q-.001.881.376 1.356.376.474.897.719.521.244 1.077.293.555.05.914.05 2.123 0 3.852-.587 1.73-.588 3.069-1.616a11.3 11.3 0 0 0 2.303-2.367 14.5 14.5 0 0 0 1.599-2.841q.637-1.502.93-3.053.295-1.55.294-3.02 0-4.113-2.203-6.35-2.205-2.237-6.058-2.237-.95 0-1.519.277-.572.28-.866 1.387l-3.853 14.302zM211.287 83.103q-2.84 4.67-6.988 4.669-2.252 0-3.462-1.387-1.209-1.388-1.209-3.935 0-2.254.93-4.505a15.8 15.8 0 0 1 2.433-4.066q1.501-1.814 3.363-2.939 1.861-1.126 3.722-1.126 1.568 0 2.563.8t.996 2.04q0 1.142-.849 2.352-.85 1.207-2.303 2.285-1.454 1.08-3.396 1.96a21.2 21.2 0 0 1-4.131 1.372 13 13 0 0 0-.13 1.794q-.001 3.56 2.515 3.559 1.207 0 2.499-.947 1.29-.946 2.399-2.612l1.046.686zm-1.862-11.756q-.849 0-1.763.653-.916.653-1.746 1.747a15 15 0 0 0-1.52 2.499 17.5 17.5 0 0 0-1.109 2.906 15 15 0 0 0 2.906-1.11q1.338-.686 2.302-1.55.963-.865 1.519-1.83.555-.963.556-1.942 0-1.372-1.143-1.373zM220.039 64.882q.163-.589.326-1.193.164-.604.163-.897.001-1.142-2.482-1.142l.261-.98 5.975-.294-5.845 21.454a17 17 0 0 0-.393 1.55q-.13.67-.13 1.126 0 .294.163.523.164.23.523.23.522 0 1.11-.44a7.6 7.6 0 0 0 1.126-1.047q.54-.604.963-1.24.426-.635.62-.996l.98.556q-.489 1.11-1.273 2.14a12.7 12.7 0 0 1-1.666 1.812 9 9 0 0 1-1.779 1.257q-.9.474-1.65.473-1.143 0-1.682-.49-.54-.49-.539-1.633 0-.653.196-1.763t.686-3.036l4.342-15.968zM228.56 76.67q.456-1.274.653-2.056.196-.784.196-1.24t-.147-.603a.44.44 0 0 0-.31-.147q-.358 0-.783.343-.424.344-.849.8-.426.459-.751.913-.326.458-.456.72l-.947-.587q.391-.72 1.093-1.6t1.583-1.633q.88-.751 1.83-1.256.945-.506 1.796-.507c.566 0 .952.16 1.223.474q.408.473.407 1.713 0 .948-.57 2.546-.57 1.601-1.486 4.115l-1.209 3.299q-.066.164-.18.506-.114.345-.229.72-.116.376-.197.733-.08.36-.082.587-.001.294.163.523.163.23.523.23.489 0 1.012-.41a7.6 7.6 0 0 0 1.013-.963q.49-.556.883-1.126.39-.57.587-.897l.979.556q-.392.785-1.06 1.73a11.5 11.5 0 0 1-1.519 1.746 8.6 8.6 0 0 1-1.862 1.34q-1.014.539-2.09.539-.948 0-1.42-.49-.474-.49-.473-1.633 0-.944.31-2.042.311-1.095.897-2.759l1.47-4.179zm4.801-12.212a2.02 2.02 0 0 1-1.42-.556q-.604-.556-.604-1.436.001-.882.587-1.503.589-.62 1.437-.62.915 0 1.502.62.588.621.587 1.47 0 .85-.62 1.436a2.06 2.06 0 0 1-1.469.587zM249.719 89.83q0 1.405-.603 2.53-.605 1.126-1.73 1.926t-2.726 1.224-3.592.424q-1.796 0-3.266-.327-1.47-.326-2.529-.947-1.062-.62-1.633-1.453a3.25 3.25 0 0 1-.573-1.876q.001-1.34.866-2.22.866-.881 2.204-.882.39 0 .75.097.359.098.913.36-1.829.75-1.829 2.841 0 1.371 1.387 2.156 1.388.784 3.805.783 1.305 0 2.416-.293 1.11-.296 1.91-.75.8-.46 1.24-1.03t.44-1.126q-.001-.915-1.093-1.65-1.095-.735-3.086-1.093-3.56-.62-5.225-1.436-1.666-.816-1.666-2.286 0-.945.833-1.6.832-.653 2.989-1.306l.066-.13q-2.483-1.765-2.482-4.539 0-1.5.62-2.856a7.8 7.8 0 0 1 1.682-2.383 7.8 7.8 0 0 1 2.482-1.616 7.7 7.7 0 0 1 2.989-.587q2.415 0 4.049 1.763 1.534-1.73 2.972-1.73a2.82 2.82 0 0 1 1.829.636q.784.636.783 1.486 0 .654-.44 1.094t-1.093.44q-.49 0-.767-.213a2.4 2.4 0 0 1-.473-.473 3 3 0 0 0-.441-.474q-.245-.211-.669-.212-.23-.001-.424.082-.195.083-.719.44.162.459.229.866.066.41.066 1.03 0 3.593-1.992 5.73-1.992 2.14-5.485 2.4-1.57.13-2.237.393-.669.262-.669.783.001.685.734 1.03t1.845.572q1.111.23 2.383.457 1.274.23 2.383.67 1.11.44 1.846 1.209.736.767.736 2.073zm-6.855-8.62q.783 0 1.536-.62.75-.62 1.355-1.65a9.6 9.6 0 0 0 .963-2.335q.36-1.305.36-2.678c0-.916-.196-1.563-.587-2.074q-.588-.766-1.535-.766-.751 0-1.536.67-.784.668-1.42 1.713a10 10 0 0 0-1.029 2.366 9.1 9.1 0 0 0-.393 2.596c0 .85.207 1.496.62 2.009q.62.768 1.666.767zM265.101 77.291q.555-1.665.799-2.645.246-.98.246-1.73t-.246-1.06q-.244-.31-.832-.31-1.014 0-1.993.783-.98.784-1.976 2.449t-2.073 4.245-2.286 6.171l-.75 2.253h-2.742l6.464-22.14q.23-.815.36-1.436.13-.62.13-.98 0-.653-.62-.913t-2.286-.326l.23-1.306h6.661l-3.722 12.605.097.066q1.044-1.535 2.416-2.367 1.371-.834 2.873-.833c1 0 1.839.306 2.383.914q.815.915.816 2.645 0 1.079-.326 2.516t-1.013 3.298a239 239 0 0 0-1.013 2.776q-.359 1.014-.523 1.55-.163.54-.213.734-.05.196-.049.326 0 .75.62.75.653 0 1.616-.766t1.943-2.14l.913.687a9.7 9.7 0 0 1-1.289 1.796 10.3 10.3 0 0 1-1.666 1.486 9 9 0 0 1-1.829 1.013q-.93.376-1.747.376-.881 0-1.273-.49t-.392-1.567q0-.555.097-1.176.098-.62.343-1.55t.686-2.285 1.159-3.413zM279.893 72.85l-2.71 8.98q-.555 1.764-.587 2.678 0 .294.147.523t.506.23q.59 0 1.24-.44a8.4 8.4 0 0 0 1.257-1.046q.605-.605 1.077-1.24.474-.637.703-.996l.946.555q-.556 1.11-1.403 2.14a13.6 13.6 0 0 1-1.796 1.812 9.8 9.8 0 0 1-1.91 1.257q-.964.473-1.746.473-1.144 0-1.65-.49-.506-.489-.506-1.633 0-.654.229-1.763.23-1.11.784-3.036l2.416-8h-2.809l.424-1.503h2.842l1.698-5.615h3.005l-1.698 5.615h3.559l-.457 1.503h-3.559zM286.651 74.809a4.82 4.82 0 0 1 1.535-3.575 5.2 5.2 0 0 1 1.714-1.046 6.1 6.1 0 0 1 2.172-.377q1.568-.001 2.612.784 1.046.784 1.046 2.025 0 .686-.376 1.077-.375.392-1.029.393-.752 0-1.077-.44a4.8 4.8 0 0 1-.556-.98 10 10 0 0 0-.49-.996q-.262-.457-.882-.457-.72 0-1.21.62-.489.62-.489 1.536 0 1.077.636 2.008.636.932 1.42 1.943.784 1.014 1.42 2.22.636 1.209.636 2.842-.001 1.11-.473 2.09a5.6 5.6 0 0 1-1.273 1.713 6.1 6.1 0 0 1-1.846 1.16 5.7 5.7 0 0 1-2.155.423q-1.96 0-3.119-.85-1.16-.849-1.159-2.22 0-.946.44-1.485t1.192-.54q1.405 0 1.6 1.926.099 1.046.343 1.387.244.343.996.343 1.175 0 1.862-.702.686-.701.687-1.943 0-1.305-.654-2.319a23 23 0 0 0-1.436-1.976 18 18 0 0 1-1.436-2.042q-.654-1.079-.653-2.546zM128.744 8.724h14.639q3.13 0 5.579 1.306 2.448 1.305 3.877 3.77 1.429 2.461 1.428 5.863 0 3.401-1.211 5.564-1.211 2.162-2.898 3.239-1.687 1.075-3.129 1.291l8.734 14.885h-9.143l-7.784-14.259h-1.959v14.26h-8.137V8.722zm8.137 16.026h3.592q2.178 0 3.809-1.06 1.634-1.062 1.633-3.756t-1.606-3.741-3.782-1.048h-3.646v9.607zM162.404 8.724h22.94v7.13h-14.832v7.32h14.695v6.912h-14.695v7.428h14.832v7.13h-22.94zM199.493 15.852h-8.571v-7.13h25.252v7.13h-8.544v28.79h-8.137zM222.161 8.724h8.137v35.918h-8.137zM245.424 16.179l.6.11v28.353h-8.137V8.724h11.102l14.559 28.3-.599.11V8.724h8.136v35.918h-11.156zM290.189 8.724h8.081l14.178 35.918h-8.68l-2.613-7.21h-13.823l-2.639 7.21h-8.707l14.205-35.918zm-.137 21.577h8.408l-4.162-11.783h-.083zM316.828 8.724h8.137v28.79H338v7.13h-21.17V8.724z"/></svg>