<svg width="333" height="101" viewBox="0 0 333 101" fill="none" xmlns="http://www.w3.org/2000/svg">
<path d="M69.604 64.7308C69.604 83.2931 54.5791 98.3347 36.0525 98.3347C17.5259 98.3347 2.50098 83.2931 2.50098 64.7308C2.50098 46.1685 17.5259 31.127 36.0525 31.127C54.5791 31.127 69.604 46.1685 69.604 64.7308Z" stroke="black" stroke-width="5"/>
<path d="M69.604 36.1039C69.604 54.6662 54.5791 69.7077 36.0525 69.7077C17.5259 69.7077 2.50098 54.6662 2.50098 36.1039C2.50098 17.5415 17.5259 2.5 36.0525 2.5C54.5791 2.5 69.604 17.5415 69.604 36.1039Z" stroke="black" stroke-width="5"/>
<path d="M69.604 50.203C69.604 68.7653 54.5791 83.8069 36.0525 83.8069C17.5259 83.8069 2.50098 68.7653 2.50098 50.203C2.50098 31.6407 17.5259 16.5991 36.0525 16.5991C54.5791 16.5991 69.604 31.6407 69.604 50.203Z" stroke="black" stroke-width="5"/>
<circle cx="36.2941" cy="50.6227" r="3.72482" fill="black" stroke="black" stroke-width="5.8808"/>
<path d="M111.023 2.9119H125.732C127.828 2.9119 129.696 3.34933 131.336 4.22419C132.977 5.09905 134.271 6.36578 135.219 8.02438C136.185 9.66475 136.668 11.6241 136.668 13.9024C136.668 16.1807 136.258 18.0489 135.437 19.507C134.635 20.9468 133.669 22.0313 132.539 22.7604C131.409 23.4712 130.361 23.8995 129.395 24.0453L138.171 39H128.985L121.166 24.6741H119.198V39H111.023V2.9119ZM119.198 19.0148H122.807C124.265 19.0148 125.54 18.6594 126.634 17.9486C127.728 17.2378 128.274 15.9802 128.274 14.1758C128.274 12.3714 127.737 11.1229 126.661 10.4303C125.586 9.71943 124.319 9.36401 122.861 9.36401H119.198V19.0148ZM146.28 2.9119H169.327V10.0748H154.427V17.4292H169.191V24.3734H154.427V31.8371H169.327V39H146.28V2.9119ZM184.948 10.0748H176.336V2.9119H201.707V10.0748H193.122V39H184.948V10.0748ZM209.13 2.9119H217.305V39H209.13V2.9119ZM233.928 10.4029L234.529 10.5123V39H226.355V2.9119H237.509L252.136 31.3449L251.534 31.4543V2.9119H259.709V39H248.5L233.928 10.4029ZM280.304 2.9119H288.424L302.668 39H293.947L291.322 31.755H277.433L274.782 39H266.033L280.304 2.9119ZM280.167 24.5921H288.615L284.432 12.7541H284.35L280.167 24.5921ZM308.506 2.9119H316.681V31.8371H329.777V39H308.506V2.9119Z" fill="black"/>
<path d="M154.098 58.2769H165.245C167.137 58.2769 168.975 58.51 170.757 58.9762C172.54 59.415 174.158 60.2377 175.611 61.4443C177.174 62.7332 178.312 64.2689 179.025 66.0514C179.738 67.8065 180.095 69.6438 180.095 71.5634C180.095 72.7975 179.944 74.0452 179.642 75.3067C179.368 76.5407 178.97 77.7474 178.449 78.9266C177.956 80.0783 177.352 81.1753 176.639 82.2173C175.954 83.232 175.2 84.1507 174.377 84.9734C172.457 86.8656 170.332 88.1682 168.001 88.8812C165.67 89.5942 163.175 89.9507 160.515 89.9507H146.117L146.57 88.3053C147.447 88.3053 148.174 88.2504 148.75 88.1408C149.353 88.0311 149.847 87.8117 150.231 87.4826C150.642 87.1261 150.985 86.6325 151.259 86.0017C151.561 85.371 151.849 84.5209 152.123 83.4514L156.854 65.2698C156.908 65.0779 156.977 64.831 157.059 64.5294C157.169 64.2277 157.279 63.8987 157.388 63.5422C157.498 63.1857 157.58 62.8429 157.635 62.5138C157.717 62.1847 157.759 61.8968 157.759 61.65C157.759 61.2386 157.635 60.9232 157.388 60.7039C157.169 60.4845 156.881 60.3199 156.525 60.2102C156.195 60.0731 155.825 59.9909 155.414 59.9634C155.03 59.936 154.673 59.9223 154.344 59.9223H153.563L154.098 58.2769ZM157.059 80.4486C156.84 81.2712 156.662 81.9568 156.525 82.5053C156.387 83.0263 156.278 83.4651 156.195 83.8216C156.141 84.1507 156.099 84.4112 156.072 84.6032C156.045 84.7951 156.031 84.9597 156.031 85.0968C156.031 85.8372 156.182 86.4131 156.483 86.8244C156.812 87.2084 157.196 87.51 157.635 87.7294C158.074 87.9214 158.526 88.0448 158.993 88.0996C159.459 88.127 159.843 88.1408 160.144 88.1408C161.927 88.1408 163.545 87.8939 164.998 87.4003C166.452 86.9067 167.741 86.2348 168.865 85.3847C169.989 84.5072 170.949 83.5062 171.744 82.3819C172.567 81.2575 173.239 80.0646 173.76 78.8032C174.308 77.5417 174.706 76.2665 174.953 74.9776C175.2 73.6613 175.323 72.3861 175.323 71.1521C175.323 67.6968 174.391 65.0367 172.526 63.1719C170.689 61.2797 168.152 60.3336 164.916 60.3336C164.121 60.3336 163.476 60.4571 162.983 60.7039C162.517 60.9232 162.16 61.4991 161.913 62.4315L157.059 80.4486ZM196.757 84.4798C194.371 88.4013 191.436 90.362 187.954 90.362C186.062 90.362 184.608 89.7861 183.593 88.6344C182.579 87.4552 182.071 85.7961 182.071 83.6571C182.071 81.7649 182.455 79.8727 183.223 77.9805C184.019 76.0883 185.047 74.388 186.308 72.8798C187.57 71.3441 188.982 70.11 190.545 69.1776C192.108 68.2178 193.671 67.7379 195.235 67.7379C196.551 67.7379 197.62 68.0807 198.443 68.7663C199.293 69.4244 199.718 70.2746 199.718 71.3166C199.718 72.2764 199.362 73.2637 198.649 74.2783C197.936 75.293 196.962 76.2528 195.728 77.1578C194.522 78.0627 193.096 78.8854 191.45 79.6259C189.832 80.3663 188.105 80.9422 186.267 81.3535C186.212 81.7374 186.171 82.1214 186.144 82.5053C186.116 82.8618 186.103 83.232 186.103 83.6159C186.103 86.6051 187.158 88.0996 189.27 88.0996C190.285 88.0996 191.327 87.702 192.396 86.9067C193.493 86.1114 194.508 85.0145 195.44 83.6159L196.757 84.4798ZM194.412 69.6712C193.699 69.6712 192.958 69.9455 192.191 70.4939C191.423 71.0424 190.682 71.7828 189.969 72.7152C189.284 73.6202 188.653 74.6623 188.077 75.8415C187.501 77.0207 187.035 78.241 186.679 79.5025C187.995 79.146 189.215 78.6798 190.34 78.1039C191.464 77.528 192.424 76.8835 193.219 76.1705C194.042 75.4301 194.686 74.6623 195.152 73.867C195.619 73.0443 195.852 72.2216 195.852 71.3989C195.852 70.2471 195.372 69.6712 194.412 69.6712ZM207.783 61.5266C207.92 61.0329 208.057 60.5393 208.194 60.0457C208.331 59.5247 208.4 59.1407 208.4 58.8939C208.4 57.9341 207.358 57.4542 205.274 57.4542L205.603 56.2202L213.13 55.85L205.767 82.8755C205.548 83.6159 205.383 84.2741 205.274 84.85C205.164 85.3984 205.109 85.8646 205.109 86.2486C205.109 86.4954 205.178 86.7147 205.315 86.9067C205.452 87.0987 205.671 87.1947 205.973 87.1947C206.412 87.1947 206.878 87.0164 207.372 86.6599C207.865 86.276 208.331 85.8372 208.77 85.3436C209.236 84.8225 209.648 84.3015 210.004 83.7805C210.361 83.232 210.621 82.8069 210.786 82.5053L212.02 83.2046C211.608 84.137 211.074 85.0419 210.416 85.9195C209.757 86.7696 209.058 87.5237 208.318 88.1819C207.577 88.84 206.823 89.3748 206.055 89.7861C205.315 90.1701 204.629 90.362 203.999 90.362C203.039 90.362 202.326 90.1564 201.86 89.745C201.421 89.3337 201.201 88.6481 201.201 87.6883C201.201 87.1398 201.284 86.3994 201.448 85.467C201.613 84.5346 201.901 83.2594 202.312 81.6415L207.783 61.5266ZM218.539 76.3762C218.923 75.3067 219.197 74.4429 219.361 73.7847C219.526 73.1266 219.608 72.6055 219.608 72.2216C219.608 71.8377 219.54 71.5909 219.403 71.4812C219.293 71.3441 219.169 71.2755 219.032 71.2755C218.731 71.2755 218.402 71.4263 218.045 71.728C217.689 72.0022 217.332 72.3313 216.976 72.7152C216.619 73.0991 216.304 73.4831 216.03 73.867C215.755 74.2509 215.563 74.5526 215.454 74.772L214.261 74.0315C214.59 73.4282 215.042 72.7563 215.618 72.0159C216.221 71.2755 216.893 70.5899 217.634 69.9592C218.374 69.3285 219.142 68.8074 219.937 68.3961C220.733 67.9573 221.487 67.7379 222.2 67.7379C222.885 67.7379 223.393 67.9436 223.722 68.3549C224.078 68.7389 224.256 69.4519 224.256 70.4939C224.256 71.2892 224.01 72.3587 223.516 73.7024C223.05 75.0462 222.433 76.7738 221.665 78.8854L220.143 83.04C220.088 83.1772 220.006 83.3965 219.896 83.6982C219.814 83.9724 219.718 84.2741 219.608 84.6032C219.526 84.9048 219.444 85.2065 219.361 85.5081C219.307 85.8098 219.279 86.0566 219.279 86.2486C219.279 86.4954 219.348 86.7147 219.485 86.9067C219.622 87.0987 219.841 87.1947 220.143 87.1947C220.554 87.1947 220.979 87.0301 221.418 86.701C221.857 86.3445 222.282 85.9332 222.693 85.467C223.105 85.0008 223.475 84.5346 223.804 84.0684C224.133 83.5748 224.38 83.1909 224.544 82.9166L225.778 83.6159C225.449 84.2741 224.997 85.0008 224.421 85.7961C223.873 86.5913 223.242 87.3318 222.529 88.0173C221.816 88.6755 221.034 89.2377 220.184 89.7039C219.334 90.1426 218.456 90.362 217.551 90.362C216.756 90.362 216.153 90.1564 215.742 89.745C215.358 89.3337 215.166 88.6481 215.166 87.6883C215.166 86.893 215.289 86.0429 215.536 85.1379C215.81 84.2055 216.194 83.04 216.688 81.6415L218.539 76.3762ZM224.586 60.9918C223.9 60.9918 223.297 60.7587 222.776 60.2925C222.282 59.8263 222.035 59.223 222.035 58.4826C222.035 57.7422 222.282 57.1114 222.776 56.5904C223.269 56.0693 223.873 55.8088 224.586 55.8088C225.353 55.8088 225.984 56.0693 226.478 56.5904C226.971 57.1114 227.218 57.7284 227.218 58.4414C227.218 59.1545 226.958 59.7578 226.437 60.2514C225.916 60.745 225.299 60.9918 224.586 60.9918ZM245.184 92.9535C245.184 94.1327 244.923 95.1885 244.402 96.1209C243.909 97.0807 243.182 97.8897 242.222 98.5479C241.29 99.2334 240.152 99.7545 238.808 100.111C237.464 100.467 235.956 100.646 234.283 100.646C232.775 100.646 231.404 100.509 230.17 100.234C228.936 99.9601 227.88 99.5625 227.002 99.0415C226.097 98.5204 225.412 97.9034 224.945 97.1904C224.452 96.5048 224.205 95.7233 224.205 94.8457C224.205 93.7214 224.575 92.789 225.316 92.0486C226.029 91.3081 226.947 90.9379 228.072 90.9379C228.401 90.9379 228.716 90.9791 229.018 91.0613C229.319 91.1436 229.703 91.2944 230.17 91.5138C228.634 92.1445 227.866 93.3374 227.866 95.0925C227.866 96.2443 228.442 97.1493 229.594 97.8074C230.773 98.4656 232.377 98.7947 234.406 98.7947C235.503 98.7947 236.518 98.6713 237.45 98.4244C238.383 98.1776 239.178 97.8623 239.836 97.4783C240.522 97.0944 241.043 96.6557 241.399 96.162C241.783 95.6958 241.975 95.2296 241.975 94.7635C241.975 93.9956 241.509 93.2963 240.577 92.6656C239.672 92.0623 238.383 91.6098 236.71 91.3081C233.721 90.7871 231.527 90.1838 230.128 89.4982C228.73 88.8126 228.031 87.8528 228.031 86.6188C228.031 85.8235 228.373 85.1516 229.059 84.6032C229.772 84.0547 231.033 83.5062 232.843 82.9578L232.926 82.7932C230.841 81.3124 229.799 79.4065 229.799 77.0755C229.799 75.814 230.06 74.6211 230.581 73.4968C231.102 72.345 231.801 71.3441 232.679 70.4939C233.584 69.6164 234.626 68.9308 235.805 68.4372C237.012 67.9436 238.273 67.6968 239.589 67.6968C241.619 67.6968 243.319 68.4372 244.69 69.9181C245.979 68.4646 247.227 67.7379 248.433 67.7379C249.311 67.7379 250.079 68.0121 250.737 68.5606C251.395 69.0816 251.724 69.6987 251.724 70.4117C251.724 70.9601 251.532 71.4263 251.148 71.8102C250.792 72.1668 250.339 72.345 249.791 72.345C249.38 72.345 249.05 72.2627 248.804 72.0982C248.584 71.9062 248.392 71.7006 248.228 71.4812C248.063 71.2618 247.871 71.0698 247.652 70.9053C247.46 70.7133 247.186 70.6173 246.829 70.6173C246.637 70.6173 246.459 70.6585 246.294 70.7407C246.13 70.7956 245.828 70.9738 245.389 71.2755C245.527 71.6594 245.623 72.0296 245.677 72.3861C245.732 72.7152 245.76 73.1403 245.76 73.6613C245.76 76.6779 244.923 79.0911 243.25 80.901C241.578 82.6835 239.274 83.6845 236.34 83.9039C235.023 84.0136 234.077 84.1781 233.502 84.3975C232.953 84.6169 232.679 84.946 232.679 85.3847C232.679 85.9606 232.98 86.3994 233.584 86.701C234.215 86.9753 234.996 87.2084 235.928 87.4003C236.861 87.5923 237.862 87.7843 238.931 87.9762C240.001 88.1682 241.002 88.4561 241.934 88.84C242.867 89.1965 243.634 89.6902 244.238 90.3209C244.868 90.9791 245.184 91.8566 245.184 92.9535ZM236.545 82.0939C237.204 82.0939 237.848 81.8334 238.479 81.3124C239.11 80.7913 239.672 80.1058 240.165 79.2556C240.686 78.3781 241.098 77.3909 241.399 76.2939C241.701 75.197 241.852 74.0727 241.852 72.9209C241.852 71.824 241.605 70.9601 241.111 70.3294C240.618 69.6712 239.973 69.3422 239.178 69.3422C238.547 69.3422 237.903 69.6301 237.245 70.206C236.587 70.7545 235.983 71.4675 235.435 72.345C234.914 73.2225 234.489 74.2235 234.16 75.3478C233.831 76.4448 233.666 77.528 233.666 78.5975C233.666 79.6396 233.927 80.4897 234.448 81.1478C234.969 81.7786 235.668 82.0939 236.545 82.0939ZM264.55 77.1578C265.016 75.7592 265.346 74.6485 265.537 73.8259C265.757 73.0032 265.867 72.2764 265.867 71.6457C265.867 71.015 265.757 70.5762 265.537 70.3294C265.346 70.0552 265.003 69.9181 264.509 69.9181C263.659 69.9181 262.823 70.2471 262 70.9053C261.177 71.5634 260.341 72.5918 259.491 73.9904C258.668 75.389 257.804 77.1715 256.899 79.3379C255.994 81.5043 255.034 84.0958 254.02 87.1124L253.074 89.9507H249.618L257.763 62.0613C257.955 61.3757 258.106 60.7724 258.215 60.2514C258.325 59.7303 258.38 59.319 258.38 59.0173C258.38 58.4689 258.119 58.0849 257.598 57.8656C257.077 57.6462 256.118 57.5091 254.719 57.4542L255.007 55.8088H263.398L258.709 71.6868L258.832 71.7691C259.71 70.4802 260.725 69.493 261.876 68.8074C263.028 68.0944 264.235 67.7379 265.496 67.7379C266.813 67.7379 267.814 68.1218 268.499 68.8897C269.185 69.6575 269.528 70.7682 269.528 72.2216C269.528 73.1266 269.39 74.1824 269.116 75.389C268.842 76.5956 268.417 77.9805 267.841 79.5436C267.293 81.0244 266.867 82.1899 266.566 83.04C266.264 83.8902 266.045 84.5483 265.908 85.0145C265.771 85.4533 265.675 85.7549 265.62 85.9195C265.592 86.084 265.579 86.2211 265.579 86.3308C265.579 86.9616 265.839 87.2769 266.36 87.2769C266.909 87.2769 267.58 86.9616 268.376 86.3308C269.198 85.6727 270.021 84.7677 270.844 83.6159L271.996 84.4798C271.557 85.275 271.008 86.0292 270.35 86.7422C269.719 87.4552 269.02 88.0859 268.252 88.6344C267.512 89.1554 266.744 89.5805 265.949 89.9095C265.181 90.2112 264.454 90.362 263.769 90.362C263.028 90.362 262.493 90.1564 262.164 89.745C261.835 89.3337 261.671 88.6755 261.671 87.7705C261.671 87.3043 261.712 86.8107 261.794 86.2897C261.876 85.7686 262.014 85.1242 262.206 84.3564C262.425 83.5611 262.713 82.6013 263.069 81.4769C263.453 80.3251 263.947 78.8854 264.55 77.1578ZM283.193 71.5634L279.779 82.8755C279.313 84.3564 279.066 85.4807 279.039 86.2486C279.039 86.4954 279.094 86.7147 279.203 86.9067C279.34 87.0987 279.56 87.1947 279.861 87.1947C280.355 87.1947 280.876 87.0164 281.424 86.6599C281.973 86.276 282.494 85.8372 282.988 85.3436C283.509 84.8225 283.961 84.3015 284.345 83.7805C284.756 83.232 285.058 82.8069 285.25 82.5053L286.443 83.2046C285.977 84.137 285.387 85.0419 284.674 85.9195C283.961 86.7696 283.207 87.5237 282.412 88.1819C281.616 88.84 280.807 89.3748 279.985 89.7861C279.189 90.1701 278.463 90.362 277.805 90.362C276.845 90.362 276.146 90.1564 275.707 89.745C275.295 89.3337 275.09 88.6481 275.09 87.6883C275.09 87.1398 275.186 86.3994 275.378 85.467C275.57 84.5346 275.899 83.2594 276.365 81.6415L279.409 71.5634H275.871L276.406 69.6712H279.985L282.124 62.5961H285.908L283.769 69.6712H288.253L287.677 71.5634H283.193ZM291.718 74.0315C291.718 73.1266 291.882 72.2902 292.211 71.5223C292.568 70.7545 293.048 70.0963 293.651 69.5478C294.254 68.972 294.967 68.5332 295.79 68.2315C296.64 67.9024 297.559 67.7379 298.546 67.7379C299.862 67.7379 300.959 68.067 301.837 68.7251C302.715 69.3833 303.153 70.2334 303.153 71.2755C303.153 71.8514 302.989 72.3039 302.66 72.6329C302.358 72.962 301.933 73.1266 301.384 73.1266C300.754 73.1266 300.301 72.9483 300.027 72.5918C299.753 72.2079 299.52 71.7965 299.328 71.3578C299.136 70.8916 298.93 70.4665 298.711 70.0826C298.491 69.6987 298.121 69.5067 297.6 69.5067C296.997 69.5067 296.489 69.7672 296.078 70.2883C295.667 70.8093 295.461 71.4537 295.461 72.2216C295.461 73.1266 295.722 73.9767 296.243 74.772C296.791 75.5398 297.394 76.3488 298.053 77.1989C298.711 78.049 299.3 78.9814 299.821 79.9961C300.37 81.0107 300.644 82.2036 300.644 83.5748C300.644 84.5072 300.438 85.3847 300.027 86.2074C299.643 87.0301 299.108 87.7568 298.423 88.3876C297.765 88.9909 296.997 89.4708 296.119 89.8273C295.242 90.1838 294.337 90.362 293.404 90.362C291.759 90.362 290.443 90.0055 289.455 89.2925C288.496 88.5795 288.016 87.6471 288.016 86.4954C288.016 85.7001 288.194 85.0831 288.55 84.6443C288.934 84.1781 289.442 83.945 290.072 83.945C291.252 83.945 291.923 84.754 292.088 86.372C292.17 87.2495 292.307 87.8391 292.499 88.1408C292.719 88.415 293.144 88.5521 293.775 88.5521C294.762 88.5521 295.543 88.2642 296.119 87.6883C296.695 87.085 296.983 86.2623 296.983 85.2202C296.983 84.1233 296.709 83.1497 296.16 82.2996C295.612 81.4495 295.009 80.6268 294.35 79.8315C293.692 79.0088 293.089 78.145 292.541 77.24C291.992 76.3351 291.718 75.2656 291.718 74.0315Z" fill="black"/>
</svg>
