<svg width="267" height="246" viewBox="0 0 267 246" fill="none" xmlns="http://www.w3.org/2000/svg">
<path d="M133.01 87.1729C115.912 87.1729 102 73.2366 102 56.1071C102 38.9776 115.912 25.0413 133.01 25.0413C150.109 25.0413 164.02 38.9776 164.02 56.1071C164.02 73.2366 150.109 87.1729 133.01 87.1729ZM133.01 29.1769C118.191 29.1769 106.134 41.2593 106.134 56.1092C106.134 70.959 118.191 83.0414 133.01 83.0414C147.829 83.0414 159.887 70.959 159.887 56.1092C159.887 41.2593 147.829 29.1769 133.01 29.1769Z" fill="#FFFBEB"/>
<path d="M133.01 62.1296C115.912 62.1296 102 48.1933 102 31.0638C102 13.9343 115.912 0 133.01 0C150.109 0 164.02 13.9363 164.02 31.0658C164.02 48.1954 150.109 62.1317 133.01 62.1317V62.1296ZM133.01 4.13357C118.191 4.13357 106.134 16.216 106.134 31.0658C106.134 45.9157 118.191 57.9981 133.01 57.9981C147.829 57.9981 159.887 45.9157 159.887 31.0658C159.887 16.216 147.829 4.13357 133.01 4.13357Z" fill="#FFFBEB"/>
<path d="M133.01 74.4992C115.912 74.4992 102 60.5629 102 43.4334C102 26.3039 115.912 12.3696 133.01 12.3696C150.109 12.3696 164.02 26.306 164.02 43.4355C164.02 60.565 150.109 74.5013 133.01 74.5013V74.4992ZM133.01 16.5032C118.191 16.5032 106.134 28.5856 106.134 43.4355C106.134 58.2853 118.191 70.3677 133.01 70.3677C147.829 70.3677 159.887 58.2853 159.887 43.4355C159.887 28.5856 147.829 16.5032 133.01 16.5032Z" fill="#FFFBEB"/>
<path d="M133.01 49.5178C136.419 49.5178 139.183 46.7483 139.183 43.3319C139.183 39.9155 136.419 37.146 133.01 37.146C129.6 37.146 126.836 39.9155 126.836 43.3319C126.836 46.7483 129.6 49.5178 133.01 49.5178Z" fill="#FFFBEB"/>
<path d="M105.548 235.092H105.896V245.508H102.25V231.793H107.111L112.145 242.209H111.798V231.793H115.444V245.508H110.583L105.548 235.092Z" fill="#FFFBEB"/>
<path d="M123.43 231.793H131.763V234.918H127.075V237.001H131.415V240.126H127.075V245.508H123.43V231.793Z" fill="#FFFBEB"/>
<path d="M141.658 234.918H138.533V231.793H148.429V234.918H145.304V245.508H141.658V234.918Z" fill="#FFFBEB"/>
<path d="M160.753 231.62C161.621 231.62 162.316 231.794 163.01 231.967C163.705 232.141 164.225 232.314 164.573 232.488C164.92 232.662 165.267 232.835 165.267 232.835L163.531 235.787C163.357 235.613 163.184 235.613 163.01 235.439C162.663 235.266 162.489 235.092 162.142 235.092C161.795 234.919 161.448 234.919 161.1 234.919C160.58 234.919 160.232 234.919 160.059 235.092C159.885 235.266 159.712 235.439 159.712 235.787C159.712 235.96 159.712 236.134 159.885 236.307C160.059 236.481 160.232 236.655 160.58 236.828C160.927 237.002 161.448 237.175 161.968 237.349C162.489 237.523 163.01 237.696 163.357 238.043C163.878 238.217 164.225 238.564 164.573 238.911C164.92 239.259 165.093 239.606 165.441 240.127C165.614 240.647 165.788 241.168 165.788 241.689C165.788 242.383 165.614 243.078 165.267 243.599C164.92 244.119 164.573 244.467 164.052 244.814C163.531 245.161 163.01 245.335 162.316 245.508C161.621 245.682 161.1 245.682 160.406 245.682C159.364 245.682 158.496 245.508 157.802 245.335C157.108 245.161 156.413 244.814 155.892 244.64C155.372 244.467 155.198 244.293 155.024 244.119L156.76 241.168C156.76 241.168 156.934 241.342 157.281 241.515C157.455 241.689 157.802 241.863 158.149 242.036C158.496 242.21 158.844 242.383 159.191 242.383C159.538 242.557 159.885 242.557 160.232 242.557C160.753 242.557 161.1 242.383 161.448 242.21C161.621 242.036 161.795 241.863 161.795 241.515C161.795 241.342 161.795 240.995 161.621 240.821C161.448 240.647 161.274 240.474 160.753 240.3C160.406 240.127 159.885 239.953 159.364 239.606C158.844 239.432 158.149 239.085 157.628 238.738C157.108 238.391 156.76 237.87 156.413 237.349C156.066 236.828 155.892 236.134 155.892 235.266C155.892 234.398 156.066 233.703 156.587 233.182C157.108 232.662 157.628 232.141 158.323 231.794C159.017 231.446 160.059 231.62 160.753 231.62Z" fill="#FFFBEB"/>
<path d="M62.1188 174.674H73.4099C75.3264 174.674 77.1874 174.91 78.9929 175.382C80.7984 175.827 82.4372 176.66 83.9093 177.882C85.4926 179.188 86.6453 180.743 87.3675 182.549C88.0897 184.326 88.4508 186.187 88.4508 188.132C88.4508 189.382 88.298 190.646 87.9924 191.923C87.7147 193.173 87.3119 194.395 86.7842 195.59C86.2842 196.756 85.6731 197.867 84.9509 198.923C84.2565 199.951 83.4927 200.881 82.6594 201.714C80.715 203.631 78.5624 204.95 76.2014 205.673C73.8404 206.395 71.3128 206.756 68.6184 206.756H54.0359L54.4942 205.089C55.383 205.089 56.1191 205.034 56.7024 204.923C57.3135 204.812 57.8135 204.589 58.2023 204.256C58.619 203.895 58.9662 203.395 59.2439 202.756C59.5495 202.117 59.8411 201.256 60.1189 200.173L64.9103 181.757C64.9659 181.563 65.0353 181.313 65.1186 181.007C65.2297 180.702 65.3408 180.368 65.4519 180.007C65.563 179.646 65.6464 179.299 65.7019 178.966C65.7853 178.632 65.8269 178.341 65.8269 178.091C65.8269 177.674 65.7019 177.355 65.4519 177.132C65.2297 176.91 64.9381 176.744 64.577 176.632C64.2437 176.494 63.8687 176.41 63.452 176.382C63.0632 176.355 62.7021 176.341 62.3688 176.341H61.5771L62.1188 174.674ZM65.1186 197.131C64.8964 197.965 64.7159 198.659 64.577 199.215C64.4381 199.742 64.327 200.187 64.2437 200.548C64.1881 200.881 64.1465 201.145 64.1187 201.339C64.0909 201.534 64.077 201.701 64.077 201.839C64.077 202.589 64.2298 203.173 64.5353 203.589C64.8686 203.978 65.2575 204.284 65.7019 204.506C66.1464 204.7 66.6047 204.825 67.0769 204.881C67.5491 204.909 67.9379 204.923 68.2435 204.923C70.0489 204.923 71.6877 204.673 73.1599 204.173C74.632 203.673 75.9375 202.992 77.0763 202.131C78.2152 201.242 79.1873 200.228 79.9929 199.09C80.8261 197.951 81.5067 196.742 82.0344 195.465C82.5899 194.187 82.9927 192.895 83.2427 191.59C83.4927 190.257 83.6177 188.965 83.6177 187.715C83.6177 184.215 82.6733 181.521 80.7845 179.632C78.9235 177.716 76.3542 176.757 73.0765 176.757C72.271 176.757 71.6183 176.882 71.1183 177.132C70.6461 177.355 70.285 177.938 70.035 178.882L65.1186 197.131ZM105.327 201.214C102.911 205.186 99.9385 207.173 96.4109 207.173C94.4944 207.173 93.0222 206.589 91.9945 205.423C90.9668 204.228 90.4529 202.548 90.4529 200.381C90.4529 198.465 90.8418 196.548 91.6195 194.631C92.425 192.715 93.4667 190.993 94.7444 189.465C96.0221 187.91 97.4526 186.66 99.0358 185.715C100.619 184.743 102.202 184.257 103.786 184.257C105.119 184.257 106.202 184.604 107.035 185.299C107.896 185.965 108.327 186.826 108.327 187.882C108.327 188.854 107.966 189.854 107.244 190.882C106.522 191.909 105.535 192.882 104.286 193.798C103.063 194.715 101.619 195.548 99.9524 196.298C98.3136 197.048 96.5637 197.631 94.7027 198.048C94.6472 198.437 94.6055 198.826 94.5777 199.215C94.5499 199.576 94.536 199.951 94.536 200.34C94.536 203.367 95.6054 204.881 97.7442 204.881C98.7719 204.881 99.8274 204.478 100.911 203.673C102.022 202.867 103.049 201.756 103.994 200.34L105.327 201.214ZM102.952 186.215C102.23 186.215 101.48 186.493 100.702 187.049C99.9247 187.604 99.1747 188.354 98.4525 189.298C97.7581 190.215 97.1192 191.271 96.5359 192.465C95.9526 193.659 95.4804 194.895 95.1193 196.173C96.4526 195.812 97.6887 195.34 98.8275 194.756C99.9663 194.173 100.938 193.52 101.744 192.798C102.577 192.048 103.23 191.271 103.702 190.465C104.174 189.632 104.411 188.798 104.411 187.965C104.411 186.799 103.924 186.215 102.952 186.215ZM116.496 177.966C116.634 177.466 116.773 176.966 116.912 176.466C117.051 175.938 117.12 175.549 117.12 175.299C117.12 174.327 116.065 173.841 113.954 173.841L114.287 172.591L121.912 172.216L114.454 199.59C114.232 200.34 114.065 201.006 113.954 201.589C113.843 202.145 113.787 202.617 113.787 203.006C113.787 203.256 113.857 203.478 113.996 203.673C114.135 203.867 114.357 203.964 114.662 203.964C115.107 203.964 115.579 203.784 116.079 203.423C116.579 203.034 117.051 202.589 117.495 202.089C117.968 201.562 118.384 201.034 118.745 200.506C119.106 199.951 119.37 199.52 119.537 199.215L120.787 199.923C120.37 200.867 119.829 201.784 119.162 202.673C118.495 203.534 117.787 204.298 117.037 204.964C116.287 205.631 115.523 206.173 114.746 206.589C113.996 206.978 113.301 207.173 112.662 207.173C111.69 207.173 110.968 206.964 110.496 206.548C110.051 206.131 109.829 205.436 109.829 204.464C109.829 203.909 109.913 203.159 110.079 202.214C110.246 201.27 110.537 199.978 110.954 198.34L116.496 177.966ZM127.39 193.007C127.779 191.923 128.056 191.048 128.223 190.382C128.39 189.715 128.473 189.187 128.473 188.798C128.473 188.41 128.404 188.16 128.265 188.048C128.154 187.91 128.029 187.84 127.89 187.84C127.584 187.84 127.251 187.993 126.89 188.298C126.529 188.576 126.168 188.91 125.807 189.298C125.445 189.687 125.126 190.076 124.848 190.465C124.571 190.854 124.376 191.159 124.265 191.382L123.057 190.632C123.39 190.021 123.848 189.34 124.432 188.59C125.043 187.84 125.723 187.146 126.473 186.507C127.223 185.868 128.001 185.34 128.806 184.924C129.612 184.479 130.376 184.257 131.098 184.257C131.792 184.257 132.306 184.465 132.64 184.882C133.001 185.271 133.181 185.993 133.181 187.049C133.181 187.854 132.931 188.937 132.431 190.298C131.959 191.659 131.334 193.409 130.556 195.548L129.015 199.756C128.959 199.895 128.876 200.117 128.765 200.423C128.681 200.701 128.584 201.006 128.473 201.339C128.39 201.645 128.306 201.951 128.223 202.256C128.168 202.562 128.14 202.812 128.14 203.006C128.14 203.256 128.209 203.478 128.348 203.673C128.487 203.867 128.709 203.964 129.015 203.964C129.431 203.964 129.862 203.798 130.306 203.464C130.751 203.103 131.181 202.687 131.598 202.214C132.015 201.742 132.39 201.27 132.723 200.798C133.056 200.298 133.306 199.909 133.473 199.631L134.723 200.34C134.389 201.006 133.931 201.742 133.348 202.548C132.792 203.353 132.153 204.103 131.431 204.798C130.709 205.464 129.917 206.034 129.056 206.506C128.195 206.95 127.306 207.173 126.39 207.173C125.584 207.173 124.973 206.964 124.557 206.548C124.168 206.131 123.973 205.436 123.973 204.464C123.973 203.659 124.098 202.798 124.348 201.881C124.626 200.937 125.015 199.756 125.515 198.34L127.39 193.007ZM133.514 177.424C132.82 177.424 132.209 177.188 131.681 176.716C131.181 176.244 130.931 175.632 130.931 174.883C130.931 174.133 131.181 173.494 131.681 172.966C132.181 172.438 132.792 172.174 133.514 172.174C134.292 172.174 134.931 172.438 135.431 172.966C135.931 173.494 136.181 174.119 136.181 174.841C136.181 175.563 135.917 176.174 135.389 176.674C134.862 177.174 134.237 177.424 133.514 177.424ZM154.378 209.797C154.378 210.992 154.114 212.061 153.586 213.006C153.086 213.978 152.35 214.797 151.378 215.464C150.434 216.158 149.281 216.686 147.92 217.047C146.559 217.408 145.031 217.589 143.337 217.589C141.809 217.589 140.42 217.45 139.17 217.172C137.921 216.894 136.851 216.491 135.962 215.964C135.046 215.436 134.351 214.811 133.879 214.089C133.379 213.394 133.129 212.603 133.129 211.714C133.129 210.575 133.504 209.631 134.254 208.881C134.976 208.131 135.907 207.756 137.046 207.756C137.379 207.756 137.698 207.797 138.004 207.881C138.309 207.964 138.698 208.117 139.17 208.339C137.615 208.978 136.837 210.186 136.837 211.964C136.837 213.131 137.421 214.047 138.587 214.714C139.782 215.38 141.406 215.714 143.462 215.714C144.573 215.714 145.601 215.589 146.545 215.339C147.489 215.089 148.295 214.769 148.962 214.38C149.656 213.992 150.184 213.547 150.545 213.047C150.934 212.575 151.128 212.103 151.128 211.631C151.128 210.853 150.656 210.145 149.712 209.506C148.795 208.895 147.489 208.436 145.795 208.131C142.767 207.603 140.545 206.992 139.129 206.298C137.712 205.603 137.004 204.631 137.004 203.381C137.004 202.576 137.351 201.895 138.046 201.339C138.768 200.784 140.045 200.228 141.879 199.673L141.962 199.506C139.851 198.006 138.795 196.076 138.795 193.715C138.795 192.437 139.059 191.229 139.587 190.09C140.115 188.923 140.823 187.91 141.712 187.049C142.629 186.16 143.684 185.465 144.878 184.965C146.101 184.465 147.378 184.215 148.712 184.215C150.767 184.215 152.489 184.965 153.878 186.465C155.184 184.993 156.447 184.257 157.669 184.257C158.558 184.257 159.336 184.535 160.003 185.09C160.669 185.618 161.003 186.243 161.003 186.965C161.003 187.521 160.808 187.993 160.419 188.382C160.058 188.743 159.6 188.923 159.044 188.923C158.628 188.923 158.294 188.84 158.044 188.673C157.822 188.479 157.628 188.271 157.461 188.048C157.295 187.826 157.1 187.632 156.878 187.465C156.683 187.271 156.406 187.174 156.045 187.174C155.85 187.174 155.67 187.215 155.503 187.299C155.336 187.354 155.031 187.535 154.586 187.84C154.725 188.229 154.822 188.604 154.878 188.965C154.934 189.298 154.961 189.729 154.961 190.257C154.961 193.312 154.114 195.756 152.42 197.59C150.725 199.395 148.392 200.409 145.42 200.631C144.087 200.742 143.129 200.909 142.545 201.131C141.99 201.353 141.712 201.687 141.712 202.131C141.712 202.714 142.018 203.159 142.629 203.464C143.267 203.742 144.059 203.978 145.003 204.173C145.948 204.367 146.962 204.562 148.045 204.756C149.128 204.95 150.142 205.242 151.086 205.631C152.031 205.992 152.809 206.492 153.42 207.131C154.059 207.797 154.378 208.686 154.378 209.797ZM145.628 198.798C146.295 198.798 146.948 198.534 147.587 198.006C148.226 197.479 148.795 196.784 149.295 195.923C149.823 195.034 150.239 194.034 150.545 192.923C150.85 191.812 151.003 190.673 151.003 189.507C151.003 188.396 150.753 187.521 150.253 186.882C149.753 186.215 149.1 185.882 148.295 185.882C147.656 185.882 147.003 186.174 146.337 186.757C145.67 187.312 145.059 188.035 144.504 188.923C143.976 189.812 143.545 190.826 143.212 191.965C142.879 193.076 142.712 194.173 142.712 195.256C142.712 196.312 142.976 197.173 143.504 197.84C144.031 198.479 144.74 198.798 145.628 198.798ZM173.994 193.798C174.466 192.382 174.799 191.257 174.994 190.423C175.216 189.59 175.327 188.854 175.327 188.215C175.327 187.576 175.216 187.132 174.994 186.882C174.799 186.604 174.452 186.465 173.952 186.465C173.091 186.465 172.244 186.799 171.411 187.465C170.577 188.132 169.73 189.173 168.869 190.59C168.036 192.007 167.161 193.812 166.244 196.006C165.328 198.201 164.355 200.826 163.328 203.881L162.369 206.756H158.87L167.119 178.507C167.314 177.813 167.466 177.202 167.577 176.674C167.689 176.146 167.744 175.73 167.744 175.424C167.744 174.869 167.48 174.48 166.953 174.258C166.425 174.035 165.453 173.896 164.036 173.841L164.328 172.174H172.827L168.077 188.257L168.202 188.34C169.091 187.035 170.119 186.035 171.286 185.34C172.452 184.618 173.674 184.257 174.952 184.257C176.285 184.257 177.299 184.646 177.994 185.424C178.688 186.201 179.035 187.326 179.035 188.798C179.035 189.715 178.896 190.784 178.619 192.007C178.341 193.229 177.91 194.631 177.327 196.215C176.771 197.715 176.341 198.895 176.035 199.756C175.73 200.617 175.508 201.284 175.369 201.756C175.23 202.201 175.133 202.506 175.077 202.673C175.049 202.839 175.035 202.978 175.035 203.089C175.035 203.728 175.299 204.048 175.827 204.048C176.383 204.048 177.063 203.728 177.869 203.089C178.702 202.423 179.535 201.506 180.369 200.34L181.535 201.214C181.091 202.02 180.535 202.784 179.869 203.506C179.23 204.228 178.521 204.867 177.744 205.423C176.994 205.95 176.216 206.381 175.41 206.714C174.633 207.02 173.897 207.173 173.202 207.173C172.452 207.173 171.911 206.964 171.577 206.548C171.244 206.131 171.077 205.464 171.077 204.548C171.077 204.075 171.119 203.575 171.202 203.048C171.286 202.52 171.425 201.867 171.619 201.089C171.841 200.284 172.133 199.312 172.494 198.173C172.883 197.006 173.383 195.548 173.994 193.798ZM192.877 188.132L189.419 199.59C188.947 201.089 188.697 202.228 188.669 203.006C188.669 203.256 188.724 203.478 188.836 203.673C188.974 203.867 189.197 203.964 189.502 203.964C190.002 203.964 190.53 203.784 191.085 203.423C191.641 203.034 192.169 202.589 192.669 202.089C193.196 201.562 193.655 201.034 194.044 200.506C194.46 199.951 194.766 199.52 194.96 199.215L196.168 199.923C195.696 200.867 195.099 201.784 194.377 202.673C193.655 203.534 192.891 204.298 192.085 204.964C191.28 205.631 190.46 206.173 189.627 206.589C188.822 206.978 188.086 207.173 187.419 207.173C186.447 207.173 185.738 206.964 185.294 206.548C184.877 206.131 184.669 205.436 184.669 204.464C184.669 203.909 184.766 203.159 184.961 202.214C185.155 201.27 185.488 199.978 185.961 198.34L189.044 188.132H185.461L186.002 186.215H189.627L191.794 179.049H195.627L193.46 186.215H198.002L197.418 188.132H192.877ZM201.511 190.632C201.511 189.715 201.678 188.868 202.011 188.09C202.372 187.312 202.858 186.646 203.47 186.09C204.081 185.507 204.803 185.063 205.636 184.757C206.497 184.424 207.428 184.257 208.428 184.257C209.761 184.257 210.872 184.59 211.761 185.257C212.65 185.924 213.094 186.785 213.094 187.84C213.094 188.423 212.927 188.882 212.594 189.215C212.289 189.548 211.858 189.715 211.302 189.715C210.664 189.715 210.205 189.535 209.928 189.173C209.65 188.785 209.414 188.368 209.219 187.924C209.025 187.451 208.816 187.021 208.594 186.632C208.372 186.243 207.997 186.049 207.469 186.049C206.858 186.049 206.344 186.312 205.928 186.84C205.511 187.368 205.303 188.021 205.303 188.798C205.303 189.715 205.567 190.576 206.094 191.382C206.65 192.159 207.261 192.979 207.928 193.84C208.594 194.701 209.191 195.645 209.719 196.673C210.275 197.701 210.552 198.909 210.552 200.298C210.552 201.242 210.344 202.131 209.928 202.964C209.539 203.798 208.997 204.534 208.303 205.173C207.636 205.784 206.858 206.27 205.969 206.631C205.081 206.992 204.164 207.173 203.22 207.173C201.553 207.173 200.22 206.811 199.22 206.089C198.248 205.367 197.761 204.423 197.761 203.256C197.761 202.451 197.942 201.826 198.303 201.381C198.692 200.909 199.206 200.673 199.845 200.673C201.039 200.673 201.72 201.492 201.886 203.131C201.97 204.02 202.108 204.617 202.303 204.923C202.525 205.2 202.956 205.339 203.595 205.339C204.594 205.339 205.386 205.048 205.969 204.464C206.553 203.853 206.844 203.02 206.844 201.964C206.844 200.853 206.567 199.867 206.011 199.006C205.456 198.145 204.844 197.312 204.178 196.506C203.511 195.673 202.9 194.798 202.345 193.882C201.789 192.965 201.511 191.882 201.511 190.632Z" fill="#FFFBEB"/>
<path d="M0 106.973H18.749C21.353 106.973 23.7835 107.494 25.8667 108.709C27.9499 109.751 29.5123 111.487 30.7276 113.57C31.9428 115.653 32.4636 118.084 32.4636 121.035C32.4636 123.986 31.9428 126.243 30.9012 128.153C29.8596 130.062 28.6443 131.451 27.2555 132.319C25.8667 133.187 24.4779 133.708 23.2627 133.881L34.3732 152.804H22.7419L12.8465 134.576H10.4161V152.804H0V106.973ZM10.4161 127.458H14.9298C16.8394 127.458 18.4018 126.937 19.7906 126.069C21.1794 125.201 21.8739 123.639 21.8739 121.209C21.8739 118.778 21.1794 117.389 19.7906 116.348C18.4018 115.48 16.8394 114.959 14.9298 114.959H10.2425V127.458H10.4161Z" fill="#FFFBEB"/>
<path d="M42.8794 106.973H72.2181V116.001H53.2955V125.375H72.0445V134.229H53.2955V143.777H72.2181V152.804H42.8794V106.973Z" fill="#FFFBEB"/>
<path d="M90.2724 116.001H79.3354V106.973H111.625V116.001H100.689V152.804H90.2724V116.001Z" fill="#FFFBEB"/>
<path d="M119.264 106.973H129.68V152.804H119.264V106.973Z" fill="#FFFBEB"/>
<path d="M148.951 116.522L149.646 116.695V152.804H139.229V106.973H153.465L172.04 143.083L171.346 143.256V106.973H181.762V152.804H167.527L148.951 116.522Z" fill="#FFFBEB"/>
<path d="M206.065 106.973H216.308L234.362 152.804H223.252L219.953 143.603H202.246L198.947 152.804H187.837L206.065 106.973ZM205.892 134.576H216.655L211.273 119.473H211.1L205.892 134.576Z" fill="#FFFBEB"/>
<path d="M239.918 106.973H250.335V143.777H267V152.804H239.918V106.973Z" fill="#FFFBEB"/>
</svg>
