<svg width="10" height="10" viewBox="0 0 10 10" fill="none" xmlns="http://www.w3.org/2000/svg">
<path d="M7.83362 1.28608C7.66064 1.28585 7.48982 1.32305 7.33374 1.39496V1.12538C7.33384 0.857257 7.23465 0.597917 7.05405 0.394092C6.87344 0.190266 6.62329 0.0553577 6.34867 0.013678C6.07405 -0.0280016 5.79303 0.0262882 5.55625 0.166764C5.31946 0.30724 5.14248 0.524665 5.05721 0.779857C4.87958 0.686936 4.67998 0.640115 4.47795 0.643981C4.27592 0.647848 4.0784 0.70227 3.90474 0.801913C3.73108 0.901557 3.58724 1.043 3.48731 1.2124C3.38738 1.38179 3.3348 1.57331 3.33471 1.7682V4.33951L3.17558 4.09323C3.02102 3.83597 2.76715 3.64819 2.46946 3.57094C2.17177 3.49368 1.85448 3.53323 1.58694 3.68094C1.31939 3.82864 1.12336 4.0725 1.04168 4.3592C0.960009 4.6459 0.999336 4.95212 1.15107 5.21094C1.81757 6.56771 2.35619 7.52994 2.97229 8.13138C3.59464 8.74046 4.30114 9 5.33422 9C6.30611 8.99894 7.23787 8.6261 7.9251 7.96329C8.61233 7.30048 8.9989 6.40181 9 5.46445V2.41103C9 2.11267 8.87711 1.82654 8.65837 1.61557C8.43963 1.4046 8.14296 1.28608 7.83362 1.28608ZM8.33349 5.46445C8.33261 6.23139 8.01634 6.96667 7.45405 7.50898C6.89177 8.05128 6.12941 8.35632 5.33422 8.35717C4.48526 8.35717 3.93831 8.16111 3.44593 7.6802C2.89481 7.14143 2.38744 6.22781 1.74759 4.92528C1.74384 4.91732 1.73967 4.90954 1.73509 4.90198C1.66881 4.79122 1.65086 4.65959 1.68519 4.53606C1.71952 4.41253 1.80333 4.30722 1.91818 4.24329C2.03302 4.17935 2.16949 4.16204 2.29757 4.19515C2.42565 4.22827 2.53485 4.3091 2.60113 4.41986C2.60283 4.42308 2.60478 4.42617 2.60697 4.4291L3.38469 5.6344C3.4229 5.69386 3.48017 5.73967 3.54782 5.76489C3.61547 5.79011 3.68981 5.79335 3.75954 5.77413C3.82927 5.7549 3.8906 5.71426 3.93422 5.65838C3.97783 5.60249 4.00135 5.5344 4.00121 5.46445V1.7682C4.00121 1.64034 4.05388 1.51771 4.14762 1.42729C4.24137 1.33688 4.36851 1.28608 4.50109 1.28608C4.63367 1.28608 4.76081 1.33688 4.85456 1.42729C4.9483 1.51771 5.00097 1.64034 5.00097 1.7682V4.1788C5.00097 4.26405 5.03608 4.3458 5.09858 4.40608C5.16107 4.46635 5.24584 4.50021 5.33422 4.50021C5.42261 4.50021 5.50737 4.46635 5.56987 4.40608C5.63236 4.3458 5.66747 4.26405 5.66747 4.1788V1.12538C5.66747 0.99751 5.72014 0.87488 5.81389 0.784465C5.90763 0.69405 6.03478 0.643256 6.16735 0.643256C6.29993 0.643256 6.42708 0.69405 6.52082 0.784465C6.61457 0.87488 6.66723 0.99751 6.66723 1.12538V4.1788C6.66723 4.26405 6.70234 4.3458 6.76484 4.40608C6.82734 4.46635 6.9121 4.50021 7.00048 4.50021C7.08887 4.50021 7.17363 4.46635 7.23613 4.40608C7.29863 4.3458 7.33374 4.26405 7.33374 4.1788V2.41103C7.33374 2.28316 7.3864 2.16053 7.48015 2.07012C7.57389 1.9797 7.70104 1.92891 7.83362 1.92891C7.96619 1.92891 8.09334 1.9797 8.18708 2.07012C8.28083 2.16053 8.33349 2.28316 8.33349 2.41103V5.46445Z" fill="#E6A600"/>
</svg>
