<svg xmlns="http://www.w3.org/2000/svg" width="10" height="10" fill="none"><path stroke="#20B9C4" stroke-linecap="round" stroke-linejoin="round" stroke-width=".904" d="M4.2 6.286C4.2 7.232 3.484 8 2.6 8S1 7.232 1 6.286c0-.947.716-1.715 1.6-1.715s1.6.768 1.6 1.715m0 0a.9.9 0 0 1 .234-.606A.77.77 0 0 1 5 5.429c.212 0 .416.09.566.25a.9.9 0 0 1 .234.607m0 0C5.8 7.232 6.516 8 7.4 8S9 7.232 9 6.286c0-.947-.716-1.715-1.6-1.715s-1.6.768-1.6 1.715m-4.6-.857 1-2.572C2.48 2.3 2.76 2 3.4 2m5.4 3.429-1-2.572C7.52 2.3 7.2 2 6.6 2"/></svg>