<svg xmlns="http://www.w3.org/2000/svg" width="10" height="10" fill="none"><path fill="#3DD27A" fill-rule="evenodd" d="M8.516 5.318c-.095-.591-.121-1.193-.245-1.78-.116-.551-.334-1.073-.714-1.494a3.2 3.2 0 0 0-1.253-.828c-.92-.341-1.979-.264-2.87.134-.833.373-1.497 1.063-1.885 1.89-.251.539-.378 1.11-.434 1.7-.063.656-.07 1.319-.095 1.977q-.005.12-.008.243c-.002.09.034.167.063.25l.009.017-.066.01c-.025.003-.023.043 0 .048.198.04.402.046.604.056q.315.015.628.024l.613.02.321.012.153.005.077.002c.02.001.054.014.056 0l.013.005q.008.003.014.009c.025.017.063.015.088 0l.007-.005a.1.1 0 0 0 .04-.046.119.119 0 0 0 .183-.15c-.058-.073-.63-1.852-.394-3.207l.951-.127.498-.053s.079-.26.102-.344l.005-.02.068.121.118.24S6.895 4 7.319 4.002c.007 0 .042.52.026.75-.031.46-.064.92-.11 1.378-.03.294-.101.582-.207.853-.168.428-.654.835-1.128.835-.295 0-.962-.241-1.06-.29-.097-.049-.154.084-.066.137.18.108.674.336 1.126.336.656 0 1.152-.628 1.213-.718.598-.033 1.21-.018 1.806.042.05.005.094-.056.078-.102a11 11 0 0 1-.481-1.904" clip-rule="evenodd"/></svg>