<svg xmlns="http://www.w3.org/2000/svg" width="10" height="10" fill="none"><path fill="#9836FB" d="M5 1a4.5 4.5 0 0 0-3.18 1.326A4.54 4.54 0 0 0 .5 5.522v2.435c0 .276.11.542.304.737a1.036 1.036 0 0 0 1.348.104c.526-.384 1.446-.841 2.848-.841s2.322.457 2.848.84a1.035 1.035 0 0 0 1.498-.294c.1-.165.154-.354.154-.546V5.522a4.54 4.54 0 0 0-1.32-3.196A4.5 4.5 0 0 0 5 1m3.808 4.522v.385a7.2 7.2 0 0 0-1.772-.792 7.3 7.3 0 0 0-1.249-3.337c.854.183 1.62.654 2.17 1.335s.85 1.532.85 2.409M5 1.882a6.65 6.65 0 0 1 1.315 3.063 7.4 7.4 0 0 0-2.632 0A6.7 6.7 0 0 1 5 1.88m-.787-.104a7.3 7.3 0 0 0-1.25 3.338 7.2 7.2 0 0 0-1.77.792v-.386a3.84 3.84 0 0 1 .85-2.409 3.8 3.8 0 0 1 2.17-1.335M8.62 8.266a.35.35 0 0 1-.365-.03C7.646 7.79 6.588 7.26 5 7.26s-2.646.53-3.255.975a.35.35 0 0 1-.365.03.34.34 0 0 1-.188-.31V6.743a6.555 6.555 0 0 1 7.616 0v1.215a.34.34 0 0 1-.188.309"/></svg>