<svg xmlns="http://www.w3.org/2000/svg" width="10" height="10" fill="none"><path stroke="#D04844" stroke-linecap="round" stroke-linejoin="round" stroke-width=".8" d="M8.439 1.584 6.64 1c0 .424-.173.831-.48 1.131-.308.3-.726.469-1.161.469s-.853-.169-1.16-.469A1.58 1.58 0 0 1 3.358 1l-1.798.584a.82.82 0 0 0-.444.347.78.78 0 0 0-.106.545l.238 1.388c.016.094.066.18.14.241a.42.42 0 0 0 .267.095h.882v4c0 .44.37.8.82.8h3.283a.83.83 0 0 0 .58-.234.8.8 0 0 0 .241-.566v-4h.882a.42.42 0 0 0 .267-.095.4.4 0 0 0 .14-.241l.238-1.388a.78.78 0 0 0-.106-.545.82.82 0 0 0-.444-.347"/></svg>