<svg xmlns="http://www.w3.org/2000/svg" width="10" height="10" fill="none"><path fill="#E6A600" d="M7.834 1.286c-.173 0-.344.037-.5.109v-.27c0-.268-.1-.527-.28-.73A1.202 1.202 0 0 0 5.556.167c-.237.14-.414.357-.499.612a1.2 1.2 0 0 0-1.152.022c-.174.1-.318.241-.418.41-.1.17-.152.361-.152.556V4.34l-.16-.247a1.16 1.16 0 0 0-.706-.522 1.2 1.2 0 0 0-.882.11 1.13 1.13 0 0 0-.545.678 1.1 1.1 0 0 0 .11.852c.666 1.357 1.204 2.319 1.82 2.92.623.61 1.33.869 2.362.869a3.74 3.74 0 0 0 2.591-1.037A3.48 3.48 0 0 0 9 5.464V2.411c0-.298-.123-.584-.342-.795a1.2 1.2 0 0 0-.824-.33m.5 4.178c-.001.767-.318 1.503-.88 2.045a3.06 3.06 0 0 1-2.12.848c-.849 0-1.396-.196-1.888-.677-.551-.539-1.059-1.452-1.698-2.755l-.013-.023a.47.47 0 0 1-.05-.366.49.49 0 0 1 .233-.293.52.52 0 0 1 .38-.048.5.5 0 0 1 .309.234l.778 1.205a.33.33 0 0 0 .163.13.345.345 0 0 0 .386-.106.3.3 0 0 0 .067-.194V1.768c0-.128.053-.25.147-.34a.51.51 0 0 1 .707 0c.093.09.146.212.146.34v2.41c0 .086.035.168.098.228a.34.34 0 0 0 .47 0 .32.32 0 0 0 .098-.227V1.125c0-.127.053-.25.147-.34a.51.51 0 0 1 .707 0c.094.09.146.213.146.34V4.18c0 .085.035.167.098.227a.34.34 0 0 0 .471 0 .32.32 0 0 0 .098-.227V2.41c0-.128.052-.25.146-.34a.51.51 0 0 1 .707 0c.094.09.146.212.146.34z"/></svg>