<svg xmlns="http://www.w3.org/2000/svg" width="1200" height="528" fill="none" viewBox="0 0 1200 528"><path fill="#f2f2f2" d="M182.816 341.454c-.564-5.687-2.984-10.105-7.261-13.254-4.277-3.147-10.081-4.722-17.412-4.722-4.982 0-9.188.704-12.619 2.115-3.43 1.363-6.062 3.266-7.895 5.71-1.786 2.443-2.679 5.217-2.679 8.318-.094 2.585.447 4.841 1.622 6.768 1.222 1.926 2.89 3.594 5.005 5.005 2.115 1.363 4.558 2.561 7.331 3.595q4.1595 1.4805 8.883 2.538l12.971 3.101c6.297 1.411 12.078 3.29 17.341 5.639 5.264 2.35 9.822 5.241 13.676 8.672 3.854 3.43 6.838 7.472 8.952 12.125 2.162 4.652 3.267 9.986 3.314 16.002-.047 8.835-2.303 16.496-6.768 22.981-4.417 6.438-10.808 11.444-19.174 15.016-8.318 3.524-18.352 5.286-30.101 5.286-11.655 0-21.806-1.785-30.454-5.357-8.6-3.572-15.32-8.859-20.161-15.861-4.794-7.05-7.308-15.768-7.5429-26.154h29.5369c.329 4.841 1.716 8.883 4.159 12.125 2.491 3.196 5.804 5.616 9.94 7.261 4.183 1.598 8.906 2.397 14.17 2.397 5.169 0 9.657-.752 13.464-2.255 3.854-1.505 6.838-3.596 8.953-6.275s3.172-5.756 3.172-9.235c0-3.243-.963-5.968-2.89-8.177-1.88-2.209-4.653-4.089-8.319-5.639-3.618-1.551-8.059-2.962-13.323-4.23l-15.72-3.948c-12.172-2.96-21.783-7.59-28.833-13.887q-10.5735-9.447-10.503-25.449c-.047-8.741 2.279-16.378 6.979-22.91 4.746-6.533 11.255-11.632 19.527-15.298 8.271-3.665 17.67-5.498 28.197-5.498 10.716 0 20.068 1.833 28.057 5.498 8.036 3.666 14.288 8.765 18.751 15.298 4.465 6.532 6.768 14.099 6.909 22.699zm43.82 102.852V299.932h30.524v119.207h61.894v25.167zm193.867-144.374h30.525v93.759c0 10.526-2.514 19.738-7.543 27.633-4.982 7.895-11.961 14.052-20.937 18.47-8.977 4.37-19.433 6.555-31.37 6.555-11.984 0-22.464-2.185-31.441-6.555-8.976-4.418-15.955-10.575-20.937-18.47-4.981-7.895-7.472-17.107-7.472-27.633v-93.759h30.524v91.15c0 5.498 1.198 10.386 3.595 14.663 2.445 4.277 5.874 7.637 10.293 10.081 4.418 2.443 9.563 3.665 15.438 3.665 5.921 0 11.068-1.222 15.438-3.665 4.418-2.444 7.826-5.804 10.222-10.081 2.444-4.277 3.665-9.165 3.665-14.663zM563.932 346.6c-.986-3.43-2.374-6.462-4.159-9.094-1.786-2.679-3.971-4.934-6.556-6.767-2.537-1.88-5.451-3.313-8.741-4.3-3.243-.987-6.838-1.481-10.786-1.481-7.378 0-13.863 1.833-19.456 5.499-5.546 3.666-9.869 9-12.971 16.002-3.102 6.955-4.653 15.462-4.653 25.519s1.527 18.611 4.583 25.66c3.054 7.05 7.377 12.43 12.97 16.143 5.592 3.666 12.196 5.499 19.809 5.499q10.3635 0 17.694-3.666c4.935-2.49 8.695-5.992 11.28-10.504 2.632-4.512 3.947-9.846 3.947-16.002l6.204.917h-37.221v-22.982h60.413v18.188c0 12.688-2.678 23.592-8.036 32.71-5.357 9.07-12.736 16.072-22.135 21.007-9.4 4.887-20.162 7.331-32.287 7.331q-20.3025 0-35.67-8.952c-10.245-6.016-18.234-14.546-23.968-25.591-5.686-11.09-8.53-24.25-8.53-39.476 0-11.702 1.691-22.135 5.075-31.3 3.431-9.211 8.225-17.013 14.381-23.404q9.2355-9.588 21.501-14.592c8.178-3.337 17.036-5.005 26.577-5.005 8.177 0 15.79 1.198 22.84 3.595 7.049 2.35 13.3 5.687 18.751 10.01 5.499 4.324 9.987 9.47 13.465 15.439 3.478 5.921 5.71 12.454 6.697 19.597zm143.076 0c-.987-3.43-2.373-6.462-4.159-9.094-1.785-2.679-3.97-4.934-6.556-6.767-2.538-1.88-5.452-3.313-8.741-4.3-3.243-.987-6.838-1.481-10.786-1.481-7.378 0-13.864 1.833-19.456 5.499-5.545 3.666-9.87 9-12.971 16.002-3.102 6.955-4.653 15.462-4.653 25.519s1.528 18.611 4.582 25.66c3.055 7.05 7.379 12.43 12.971 16.143 5.593 3.666 12.196 5.499 19.81 5.499 6.907 0 12.806-1.222 17.693-3.666 4.935-2.49 8.695-5.992 11.279-10.504q3.948-6.768 3.948-16.002l6.204.917h-37.221v-22.982h60.414v18.188c0 12.688-2.679 23.592-8.037 32.71-5.358 9.07-12.736 16.072-22.136 21.007-9.398 4.887-20.16 7.331-32.286 7.331q-20.3025 0-35.67-8.952c-10.246-6.016-18.235-14.546-23.968-25.591-5.686-11.09-8.53-24.25-8.53-39.476 0-11.702 1.692-22.135 5.076-31.3 3.431-9.211 8.224-17.013 14.381-23.404q9.234-9.588 21.501-14.592c8.176-3.337 17.036-5.005 26.576-5.005 8.177 0 15.791 1.198 22.84 3.595 7.05 2.35 13.3 5.687 18.752 10.01 5.499 4.324 9.986 9.47 13.464 15.439 3.478 5.921 5.71 12.454 6.697 19.597zm47.345 97.706V299.932h97.283v25.167h-66.758V359.5h61.753v25.167h-61.753v34.472h67.04v25.167zm113.61 0V299.932h56.959c10.903 0 20.209 1.951 27.916 5.851 7.754 3.855 13.652 9.329 17.694 16.426 4.089 7.049 6.134 15.345 6.134 24.884 0 9.587-2.068 17.835-6.205 24.744-4.135 6.861-10.127 12.125-17.975 15.791-7.802 3.666-17.248 5.498-28.339 5.498h-38.138v-24.532h33.204c5.827 0 10.668-.799 14.521-2.397 3.854-1.598 6.72-3.994 8.601-7.19 1.926-3.196 2.889-7.167 2.889-11.914 0-4.794-.963-8.835-2.889-12.125-1.881-3.289-4.77-5.78-8.671-7.472-3.855-1.739-8.718-2.608-14.593-2.608h-20.584v119.418zm77.967-65.701 35.881 65.701h-33.696l-35.107-65.701zm122.69-37.151c-.57-5.687-2.99-10.105-7.27-13.254-4.27-3.147-10.08-4.722-17.41-4.722-4.98 0-9.19.704-12.62 2.115-3.43 1.363-6.06 3.266-7.89 5.71-1.79 2.443-2.68 5.217-2.68 8.318q-.135 3.8775 1.62 6.768c1.22 1.926 2.89 3.594 5.01 5.005 2.11 1.363 4.55 2.561 7.33 3.595q4.155 1.4805 8.88 2.538l12.97 3.101c6.3 1.411 12.08 3.29 17.34 5.639 5.27 2.35 9.82 5.241 13.68 8.672 3.85 3.43 6.84 7.472 8.95 12.125 2.16 4.652 3.27 9.986 3.31 16.002-.04 8.835-2.3 16.496-6.76 22.981-4.42 6.438-10.81 11.444-19.18 15.016-8.32 3.524-18.35 5.286-30.1 5.286-11.65 0-21.8-1.785-30.45-5.357-8.6-3.572-15.323-8.859-20.164-15.861-4.794-7.05-7.308-15.768-7.543-26.154h29.537c.33 4.841 1.72 8.883 4.16 12.125 2.49 3.196 5.8 5.616 9.94 7.261 4.18 1.598 8.91 2.397 14.17 2.397 5.17 0 9.66-.752 13.46-2.255 3.86-1.505 6.84-3.596 8.96-6.275 2.11-2.679 3.17-5.756 3.17-9.235 0-3.243-.97-5.968-2.89-8.177-1.88-2.209-4.65-4.089-8.32-5.639-3.62-1.551-8.06-2.962-13.32-4.23l-15.72-3.948c-12.18-2.96-21.79-7.59-28.836-13.887-7.05-6.298-10.551-14.781-10.504-25.449-.047-8.741 2.279-16.378 6.979-22.91 4.751-6.533 11.251-11.632 19.531-15.298 8.27-3.665 17.67-5.498 28.19-5.498 10.72 0 20.07 1.833 28.06 5.498 8.04 3.666 14.29 8.765 18.75 15.298 4.47 6.532 6.77 14.099 6.91 22.699zM279.791 166.899c-.564-5.686-2.986-10.104-7.262-13.252-4.277-3.149-10.081-4.723-17.412-4.723q-7.473 0-12.618 2.115-5.1465 2.0445-7.896 5.709c-1.786 2.444-2.678 5.217-2.678 8.319-.095 2.585.445 4.841 1.621 6.767 1.221 1.927 2.89 3.596 5.005 5.006 2.115 1.363 4.559 2.56 7.331 3.594 2.773.988 5.734 1.833 8.883 2.539l12.97 3.101q9.447 2.115 17.343 5.64c5.263 2.35 9.821 5.24 13.675 8.67 3.853 3.431 6.839 7.473 8.953 12.126 2.162 4.652 3.266 9.986 3.313 16.002-.047 8.835-2.303 16.496-6.767 22.981-4.418 6.439-10.809 11.443-19.174 15.016-8.319 3.524-18.352 5.287-30.102 5.287-11.655 0-21.807-1.786-30.453-5.359-8.6-3.571-15.322-8.858-20.162-15.86-4.794-7.05-7.308-15.767-7.543-26.153h29.538c.328 4.84 1.714 8.882 4.158 12.124 2.492 3.196 5.804 5.616 9.94 7.261 4.183 1.598 8.906 2.397 14.17 2.397 5.17 0 9.657-.751 13.464-2.256 3.854-1.504 6.838-3.595 8.953-6.274 2.114-2.679 3.172-5.757 3.172-9.234 0-3.243-.963-5.969-2.891-8.178-1.879-2.208-4.652-4.088-8.318-5.639q-5.427-2.3265-13.323-4.23l-15.72-3.948c-12.172-2.96-21.783-7.589-28.832-13.887-7.05-6.298-10.551-14.781-10.504-25.449-.047-8.741 2.28-16.378 6.978-22.91 4.747-6.533 11.257-11.632 19.528-15.298 8.271-3.665 17.67-5.498 28.198-5.498 10.715 0 20.067 1.833 28.056 5.498 8.036 3.666 14.287 8.765 18.752 15.298q6.696 9.798 6.909 22.698zm65.408 102.852H312.49l49.839-144.372h39.336l49.769 144.372h-32.709L382.561 158.37h-1.128zm-2.044-56.747h77.261v23.826h-77.261zm94.576-62.459v-25.166h118.571v25.166h-44.2v119.206h-30.171V150.545zm256.238 47.02c0 15.744-2.985 29.137-8.954 40.182-5.921 11.044-14.004 19.48-24.25 25.307-10.197 5.78-21.665 8.671-34.401 8.671-12.829 0-24.344-2.914-34.542-8.741s-18.259-14.264-24.18-25.308-8.882-24.414-8.882-40.111c0-15.743 2.961-29.138 8.882-40.182s13.982-19.456 24.18-25.237c10.198-5.827 21.713-8.741 34.542-8.741 12.736 0 24.204 2.914 34.401 8.741 10.246 5.781 18.329 14.193 24.25 25.237 5.969 11.044 8.954 24.439 8.954 40.182m-30.947 0c0-10.199-1.528-18.799-4.583-25.801-3.008-7.003-7.261-12.314-12.76-15.932-5.498-3.619-11.937-5.428-19.315-5.428s-13.817 1.809-19.316 5.428c-5.497 3.618-9.775 8.929-12.829 15.932-3.008 7.002-4.512 15.602-4.512 25.801 0 10.198 1.504 18.798 4.512 25.801 3.054 7.002 7.332 12.313 12.829 15.932 5.499 3.618 11.938 5.428 19.316 5.428s13.817-1.81 19.315-5.428c5.499-3.619 9.752-8.93 12.76-15.932 3.055-7.003 4.583-15.603 4.583-25.801"/><path fill="#f09" d="M754.561 234.035q13.587 7.152 22.689 15.468c6.03 5.341 10.976 12.141 14.84 20.403 4.017 9.068 5.471 18.412 4.364 28.031-1.348 9.456-5.12 17.698-11.318 24.727q-12.1695 13.5945-30.381 15.159c-24.116 1.846-42.524-12.55-55.223-43.186-5.032-12.222-7.198-20.909-6.5-26.06.987-5.832 4.034-10.173 9.141-13.022q7.9635-4.329 16.206-.558c5.495 2.515 9.17 7.571 11.025 15.166.813 3.192 1.867 6.547 3.16 10.067 1.255 3.317 2.909 7.082 4.961 11.295 2.215 3.972 4.865 6.92 7.947 8.846 3.045 1.724 6.289 1.738 9.732.041 3.846-1.774 5.532-5.021 5.057-9.74-.513-4.922-2.186-8.788-5.018-11.598-2.984-3.617-8.324-7.521-16.017-11.711-7.732-4.391-12.458-7.261-14.177-8.609-15.393-11.724-27.013-27.823-34.861-48.295-4.464-12.538-6.656-24.671-6.574-36.396.305-13.86 4.129-25.144 11.473-33.852 7.016-8.229 16.07-12.87 27.163-13.924q43.2555-3.4815 55.347 37.203c4.011 13.461 4.513 23.299 1.507 29.514q-2.226 4.812-7.881 8.079c-3.809 1.976-6.084 3.765-6.825 5.369-1.234 2.324-2.033 3.626-2.398 3.904-.404.077-1.46-1.083-3.169-3.478-1.139-2.712-3.03-4.967-5.672-6.768-2.641-1.8-4.537-3.532-5.688-5.197-1.506-2.434-2.611-6.616-3.316-12.546-.54-6.172-2.145-10.782-4.812-13.833-2.631-2.847-4.336-3.57-5.117-2.168-.779 1.402-1.521 3.006-2.226 4.813-.539 1.566-1.246 1.699-2.119.401-.317-.567-.786-1.942-1.408-4.125-.42-2.221-1.029-3.778-1.826-4.673-.633-1.136-1.56-1.064-2.782.213q-3.2325 2.8065-3.618 10.722c-.092 5.036.244 9.573 1.008 13.61 2.113 10.057 6.066 19.346 11.862 27.868 5.756 8.32 12.905 14.601 21.444 18.84m101.688 82.385c-2.406 2.756-5.489 4.698-9.249 5.827-4.769 1.321-9.376.73-13.824-1.775-4.284-2.743-7.085-6.5-8.405-11.269-12.946-49.62-19.807-75.924-20.581-78.914-.814-3.192-1.417-5.273-1.81-6.245-.393-.971-1.209-1.967-2.448-2.987-1.238-1.02-2.433-2.363-3.584-4.027-3.177-4.626-3.616-10.817-1.319-18.571.376-1.326-.407-5.464-2.35-12.415-1.627-6.385-5.756-22.123-12.386-47.217-1.157-5.008-.768-9.578 1.169-13.709 1.899-4.332 5.195-7.361 9.887-9.085 5.058-2.003 9.931-1.67 14.618.997 4.85 2.428 7.975 6.228 9.372 11.401q1.98 7.1535 9.831 37.035c.115.605.364 1.917.746 3.937.344 1.816.649 3.431.916 4.844.47 1.375.958 2.852 1.466 4.428.671 1.337 1.247 2.169 1.727 2.497.317.567.898.875 1.744.924.845.049 1.772-.021 2.782-.213 1.211-.229 2.322-.439 3.331-.63 1.01-.191 2-.483 2.971-.876 1.173-.432 1.961-.685 2.365-.761.404-.077 1.414-.268 3.028-.573 1.818-.344 3.23-.612 4.24-.803 1.174-.431 2.346-.862 3.519-1.293 1.337-.672 2.169-1.248 2.497-1.727.289-.683.299-1.73.033-3.143-.067-1.452-.214-2.783-.443-3.994-.268-1.413-.674-3.009-1.219-4.788-.547-1.779-.94-2.75-1.18-2.914-.076-.404-3.386-13.474-9.93-39.211-1.32-4.769-.71-9.276 1.833-13.522 2.503-4.447 6.14-7.33 10.909-8.6512 4.971-1.359 9.597-.6663 13.881 2.0782 4.448 2.504 7.331 6.141 8.652 10.909l18.714 72.367 25.993 99.22c1.118 4.807.425 9.434-2.078 13.881-2.543 4.245-6.299 7.048-11.27 8.407-4.807 1.118-9.435.426-13.881-2.079-4.245-2.542-7.029-6.198-8.35-10.966-11.04-42.871-17.393-67.598-19.057-74.184-.852-3.394-1.859-5.399-3.021-6.016-1.201-.818-3.599-.782-7.194.107-3.798.928-6.15 2.314-7.055 4.159q-1.416 2.463.123 5.622c.988 1.904 1.326 4.245 1.015 7.022-.032 3.143-.965 3.738-2.798 1.785-.721-.491-1.278-1.222-1.67-2.194-.077-.403-.33-1.192-.762-2.365q-.3435-1.8165-.933-3.273c-.432-1.174-.944-2.227-1.539-3.159-.431-1.174-.988-1.905-1.67-2.194-.72-.491-1.445-.459-2.177.098-.731.557-1.203 1.378-1.416 2.464-.048.846.08 2.076.385 3.691.268 1.413.516 2.726.745 3.937.191 1.01.54 2.302 1.048 3.88.508 1.576.8 2.567.877 2.971.43 1.172 5.899 21.78 16.405 61.825 1.97 8.2.895 14.677-3.223 19.43M1011.9 208.23c5.04.092 9.27 2.01 12.7 5.753 3.59 3.502 5.34 7.772 5.25 12.809-.01 1.047-.09 2.316-.22 3.805.02 1.25-.25 4.229-.82 8.938-.61 4.506-1.38 8.73-2.31 12.67-.93 3.939-2.47 8.517-4.61 13.733-1.99 4.977-4.31 9.285-6.97 12.925-2.66 3.639-6.22 6.927-10.68 9.863-4.299 2.696-9.212 4.357-14.739 4.985-15.611 1.491-28.676-3.461-39.197-14.852-10.358-11.633-18.292-27.593-23.804-47.879l-.703-2.062c-3.69-1.812-6.503-4.52-8.44-8.127s-2.543-7.361-1.817-11.262c.485-4.065 2.133-7.514 4.943-10.346-.258-2.461-.495-4.82-.712-7.079-1.437-13.112-1.887-25.992-1.354-38.639.648-19.78 3.902-36.288 9.761-49.526 6.062-13.2757 14.014-20.4268 23.857-21.4532 9.641-.9881 18.44-.353 26.396 1.9054 8.157 2.2203 14.434 5.0053 18.833 8.3553 4.596 3.3117 8.686 7.2428 12.266 11.7935 3.54 4.348 5.71 7.494 6.49 9.436.95 1.702 1.64 3.14 2.08 4.313l.17.909.59 1.457c1.31 5.816 1.22 12.525-.27 20.125q-2.235 11.4015-6.75 20.724c-4.41 9.827-11.06 19.45-19.939 28.868-3.629 4.033-6.04 7.312-7.235 9.839-1.233 2.324-1.732 5.764-1.497 10.321.114.605.129 1.23.041 1.874.076.404.047 1.35-.09 2.84.027 1.249-.16 1.913-.564 1.989s-1.029.089-1.875.041c-.72-.491-1.334-1.525-1.841-3.103-.508-1.576-.877-2.97-1.106-4.181-.066-1.452-.477-2.523-1.236-3.217-.758-.693-1.95-.363-3.576.991-6.494 4.365-10.293 7.489-11.401 9.372-.856.999-.169 4.632 2.064 10.901 6.723 20.058 13.997 29.764 21.821 29.12 2.499-.055 4.357-2.393 5.573-7.014 1.179-4.824 1.902-10.398 2.168-16.722.469-6.362.791-10.186.965-11.475 1.091-4.179 3.2-7.401 6.328-9.666 3.29-2.504 7.11-3.856 11.46-4.052m-28.22-76.213c.049-.846-.104-1.653-.459-2.423-1.381-2.875-4.155-5.382-8.324-7.521-4.005-2.379-7.402-3.2-10.19-2.463-.808.153-1.418.792-1.833 1.916-.453.922-.767 2.027-.941 3.314.027 1.25.055 2.499.082 3.749-.011 1.047-.142 2.013-.393 2.897-.289.682-.673.86-1.154.532-1.086-.212-2.196-3.871-3.332-10.975-.507-1.577-.963-2.327-1.367-2.251 0 0-.211 8.823-.637 26.469-.185 2.336-.343 5.92-.473 10.755q-.1965 7.251-.474 10.755c-.082 3.988.54 6.17 1.866 6.547 1.489.136 3.741-1.231 6.752-4.101 5.369-4.78 10.206-10.715 14.51-17.802 4.305-7.088 6.427-13.554 6.367-19.398"/></svg>