<svg width="179" height="132" viewBox="0 0 179 132" fill="none" xmlns="http://www.w3.org/2000/svg">
<path d="M36.5391 78.3031C41.2039 80.7595 45.0988 83.4156 48.2238 86.2714C51.3293 89.0229 53.8766 92.5262 55.8663 96.782C57.9351 101.453 58.6841 106.267 58.1138 111.223C57.4198 116.094 55.4774 120.34 52.2854 123.96C48.1069 128.629 42.8917 131.232 36.6392 131.77C24.2191 132.721 14.739 125.305 8.19924 109.522C5.60788 103.226 4.49197 98.7512 4.85153 96.0977C5.35995 93.093 6.92924 90.8569 9.55938 89.3894C12.2933 87.9025 15.0755 87.8065 17.9053 89.1021C20.7351 90.3976 22.6278 93.0018 23.5833 96.9146C24.0021 98.5588 24.5446 100.287 25.2108 102.1C25.857 103.81 26.7088 105.749 27.7654 107.919C28.9065 109.965 30.2709 111.484 31.8585 112.476C33.4262 113.364 35.0972 113.372 36.8703 112.497C38.8511 111.583 39.7191 109.911 39.4748 107.48C39.2106 104.944 38.3489 102.953 36.8902 101.505C35.3535 99.642 32.6033 97.6308 28.6413 95.4723C24.6594 93.2099 22.2258 91.7314 21.3405 91.0372C13.4129 84.9974 7.42874 76.704 3.38708 66.1578C1.0882 59.699 -0.0408052 53.4489 0.00112618 47.4085C0.158369 40.2686 2.12757 34.4557 5.90978 29.9694C9.52321 25.7304 14.186 23.3394 19.8991 22.7966C34.7502 21.6011 44.2513 27.9896 48.4025 41.9621C50.4681 48.8964 50.727 53.9643 49.1787 57.1661C48.4145 58.8187 47.0617 60.206 45.1198 61.328C43.1584 62.3457 41.987 63.2674 41.6049 64.0937C40.9696 65.2912 40.5582 65.9617 40.37 66.1049C40.1619 66.1447 39.6184 65.547 38.7384 64.3133C38.1513 62.9161 37.1775 61.7543 35.8173 60.8268C34.4572 59.8993 33.4807 59.0069 32.8879 58.1492C32.1121 56.8956 31.5429 54.7413 31.1802 51.6862C30.9019 48.5069 30.0753 46.1318 28.7016 44.5605C27.3467 43.0935 26.4687 42.7213 26.0667 43.4432C25.6652 44.1657 25.2831 44.992 24.9204 45.9226C24.6426 46.7295 24.2783 46.7982 23.8286 46.1292C23.6656 45.8371 23.424 45.1288 23.1037 44.0042C22.8873 42.8602 22.5738 42.058 22.1634 41.5972C21.8374 41.012 21.3599 41.0488 20.7304 41.7067C19.6208 42.6709 18.9997 44.5117 18.8676 47.2302C18.8199 49.8244 18.9929 52.1617 19.3865 54.2416C20.4746 59.4222 22.5104 64.2074 25.4954 68.5979C28.4599 72.884 32.1415 76.1194 36.5391 78.3031ZM88.9082 120.744C87.6691 122.164 86.0815 123.164 84.1453 123.746C81.6892 124.427 79.3164 124.122 77.0259 122.832C74.8198 121.418 73.3768 119.483 72.697 117.026C66.0299 91.4645 62.4966 77.9136 62.0978 76.3732C61.679 74.729 61.3682 73.6568 61.1659 73.1561C60.9636 72.6559 60.5432 72.1432 59.9053 71.6173C59.2674 71.092 58.6521 70.4004 58.0593 69.5432C56.4235 67.1597 56.197 63.9705 57.38 59.9764C57.5739 59.2932 57.1703 57.1614 56.1697 53.5805C55.3322 50.2916 53.2057 42.1839 49.7909 29.2569C49.195 26.6766 49.3958 24.3225 50.3932 22.1946C51.3712 19.9627 53.0684 18.4026 55.4847 17.5142C58.0897 16.4824 60.5993 16.6538 63.013 18.0281C65.511 19.2788 67.1201 21.2365 67.8398 23.9011C68.5196 26.3578 70.2073 32.7173 72.903 42.9797C72.9622 43.2917 73.0901 43.9675 73.2867 45.0077C73.4638 45.9436 73.621 46.7756 73.7589 47.5034C74.0005 48.2117 74.2521 48.9724 74.5137 49.7846C74.8591 50.473 75.1557 50.9018 75.4031 51.0707C75.5662 51.3627 75.8654 51.5216 76.301 51.5467C76.7365 51.5719 77.214 51.5357 77.734 51.4372C78.3577 51.3192 78.9295 51.2107 79.4495 51.1126C79.9694 51.014 80.4794 50.8636 80.9795 50.6612C81.5838 50.4389 81.9895 50.3083 82.1976 50.269C82.4057 50.2297 82.9256 50.1311 83.7569 49.9738C84.693 49.7966 85.4205 49.6587 85.9405 49.5602C86.5448 49.3384 87.1487 49.1161 87.753 48.8943C88.4412 48.5483 88.8699 48.2515 89.0387 48.0046C89.1876 47.6528 89.1928 47.1133 89.0555 46.3856C89.0214 45.6374 88.9454 44.9516 88.8274 44.3277C88.6896 43.6 88.4805 42.7779 88.1995 41.8614C87.9181 40.9449 87.7158 40.4448 87.5921 40.3604C87.5528 40.1522 85.8482 33.419 82.478 20.1604C81.7982 17.7037 82.1127 15.3819 83.422 13.195C84.7114 10.9041 86.5841 9.41844 89.0403 8.73806C91.6002 8.03797 93.9829 8.3948 96.189 9.80857C98.4795 11.0986 99.9644 12.972 100.645 15.4286L110.283 52.7086L123.669 103.822C124.245 106.298 123.888 108.682 122.598 110.973C121.289 113.159 119.355 114.603 116.795 115.303C114.319 115.879 111.936 115.523 109.646 114.233C107.46 112.923 106.026 111.04 105.346 108.583C99.6599 86.4984 96.3882 73.7601 95.5312 70.3674C95.0925 68.6189 94.5741 67.586 93.9756 67.2683C93.3571 66.8467 92.1222 66.8651 90.2704 67.3233C88.3148 67.8015 87.1035 68.5156 86.6371 69.4656C86.1512 70.3118 86.1721 71.277 86.7005 72.3618C87.2094 73.3428 87.3834 74.5487 87.2236 75.9795C87.2068 77.5985 86.7262 77.9052 85.7822 76.8991C85.4111 76.6458 85.1244 76.2694 84.9221 75.7687C84.8828 75.5611 84.7522 75.1547 84.53 74.5502C84.4121 73.9263 84.2517 73.3643 84.0494 72.8641C83.8271 72.2596 83.563 71.7169 83.2569 71.2367C83.0346 70.6322 82.7479 70.2557 82.3968 70.1068C82.0262 69.8536 81.6525 69.8704 81.2756 70.1572C80.8993 70.4439 80.6561 70.867 80.5466 71.4265C80.5214 71.8622 80.5874 72.496 80.7447 73.3281C80.8825 74.0558 81.0104 74.7322 81.1283 75.3561C81.2269 75.8762 81.4067 76.542 81.6682 77.3547C81.9297 78.1668 82.0802 78.677 82.1195 78.8851C82.3412 79.4891 85.1574 90.1056 90.5681 110.735C91.5829 114.959 91.0294 118.295 88.9082 120.744ZM169.071 65.0096C171.665 65.0573 173.844 66.0451 175.609 67.9735C177.458 69.7776 178.359 71.977 178.311 74.5717C178.305 75.1112 178.268 75.765 178.197 76.5321C178.211 77.1759 178.071 78.7105 177.776 81.1364C177.461 83.458 177.066 85.6338 176.588 87.6634C176.11 89.6929 175.318 92.0512 174.211 94.7383C173.189 97.3021 171.993 99.5214 170.625 101.396C169.256 103.271 167.423 104.965 165.124 106.477C162.91 107.866 160.38 108.722 157.533 109.045C149.494 109.813 142.765 107.263 137.347 101.394C132.013 95.4015 127.926 87.18 125.088 76.7292L124.725 75.667C122.825 74.7337 121.377 73.3386 120.379 71.4805C119.381 69.6224 119.069 67.6888 119.443 65.6791C119.693 63.5846 120.542 61.8083 121.989 60.3491C121.856 59.0814 121.734 57.8661 121.622 56.7021C120.882 49.9476 120.65 43.3127 120.925 36.7972C121.259 26.6078 122.934 18.1034 125.952 11.2841C129.074 4.44507 133.169 0.761159 138.238 0.232406C143.204 -0.276633 147.735 0.0505273 151.832 1.21399C156.033 2.35774 159.266 3.79248 161.531 5.5182C163.9 7.22426 166.006 9.24936 167.85 11.5935C169.674 13.8336 170.788 15.454 171.193 16.4547C171.682 17.3316 172.037 18.0723 172.259 18.6766L172.347 19.1446L172.651 19.8951C173.326 22.8914 173.28 26.3474 172.512 30.263C171.746 34.1785 170.588 37.7373 169.04 40.9386C166.767 46.0013 163.343 50.9585 158.769 55.8103C156.9 57.8876 155.659 59.5768 155.043 60.8787C154.408 62.0762 154.151 63.8483 154.272 66.1956C154.331 66.5075 154.338 66.8294 154.293 67.1608C154.333 67.3689 154.317 67.8565 154.247 68.6241C154.261 69.2674 154.164 69.6093 153.956 69.6486C153.748 69.6879 153.426 69.6947 152.991 69.6695C152.62 69.4168 152.304 68.8842 152.043 68.0715C151.781 67.2594 151.591 66.5411 151.473 65.9172C151.439 65.1695 151.228 64.6174 150.837 64.2604C150.446 63.9033 149.832 64.0732 148.995 64.7705C145.651 67.0192 143.694 68.6288 143.123 69.5988C142.683 70.1131 143.036 71.9848 144.186 75.2145C147.649 85.5473 151.395 90.5476 155.424 90.2157C156.711 90.1874 157.668 88.983 158.295 86.6022C158.902 84.1171 159.274 81.246 159.411 77.988C159.653 74.7107 159.818 72.7404 159.908 72.0766C160.47 69.9238 161.556 68.2639 163.166 67.0974C164.861 65.8071 166.829 65.1108 169.071 65.0096ZM154.535 25.7484C154.561 25.3127 154.482 24.8968 154.299 24.5004C153.588 23.0192 152.159 21.7277 150.012 20.6259C147.95 19.4005 146.2 18.9776 144.764 19.3571C144.348 19.4359 144.034 19.7647 143.82 20.3438C143.587 20.8188 143.425 21.3881 143.336 22.0514C143.35 22.6951 143.364 23.3388 143.378 23.9825C143.372 24.5222 143.305 25.0197 143.176 25.4751C143.027 25.8264 142.829 25.9178 142.581 25.7492C142.022 25.6396 141.45 23.755 140.865 20.0952C140.604 19.2829 140.369 18.8964 140.161 18.9358C140.161 18.9358 140.052 23.481 139.833 32.5713C139.738 33.7744 139.657 35.6211 139.59 38.1116C139.522 40.6021 139.441 42.4486 139.345 43.6519C139.303 45.7066 139.624 46.8307 140.307 47.0247C141.073 47.0949 142.233 46.3908 143.784 44.9123C146.549 42.4497 149.04 39.3925 151.256 35.7412C153.474 32.0898 154.566 28.7589 154.535 25.7484Z" fill="#FF0099"/>
</svg>
