<svg width="1100" height="500" viewBox="0 0 1100 500" fill="none" xmlns="http://www.w3.org/2000/svg">
<path d="M147.968 325.009C147.425 319.535 145.092 315.281 140.97 312.249C136.848 309.219 131.255 307.703 124.188 307.703C119.387 307.703 115.333 308.381 112.027 309.739C108.72 311.051 106.184 312.883 104.417 315.236C102.696 317.589 101.835 320.259 101.835 323.244C101.745 325.733 102.266 327.906 103.398 329.761C104.576 331.615 106.184 333.221 108.222 334.58C110.26 335.892 112.616 337.045 115.288 338.04C117.96 338.991 120.814 339.805 123.849 340.484L136.35 343.47C142.42 344.828 147.991 346.638 153.064 348.899C158.137 351.162 162.531 353.945 166.245 357.248C169.959 360.551 172.835 364.442 174.873 368.922C176.957 373.401 178.022 378.536 178.067 384.328C178.022 392.834 175.847 400.21 171.544 406.453C167.287 412.652 161.127 417.471 153.064 420.91C145.047 424.304 135.376 426 124.053 426C112.819 426 103.036 424.281 94.7015 420.842C86.4125 417.403 79.9352 412.313 75.2698 405.571C70.6498 398.784 68.2265 390.39 68 380.391H96.468C96.785 385.052 98.1212 388.943 100.477 392.065C102.877 395.142 106.07 397.472 110.056 399.055C114.088 400.594 118.64 401.363 123.713 401.363C128.695 401.363 133.021 400.639 136.69 399.192C140.404 397.743 143.28 395.73 145.319 393.151C147.357 390.572 148.376 387.609 148.376 384.259C148.376 381.138 147.448 378.514 145.59 376.387C143.779 374.26 141.106 372.45 137.573 370.958C134.085 369.465 129.805 368.106 124.732 366.886L109.581 363.085C97.8494 360.234 88.5866 355.777 81.7923 349.714C74.9981 343.651 71.6236 335.484 71.6689 325.213C71.6236 316.797 73.8657 309.444 78.3952 303.155C82.97 296.866 89.2434 291.956 97.2153 288.427C105.187 284.899 114.246 283.134 124.392 283.134C134.72 283.134 143.733 284.899 151.434 288.427C159.179 291.956 165.204 296.866 169.506 303.155C173.809 309.444 176.029 316.729 176.164 325.009H147.968ZM190.202 424.032V285.034H219.621V399.802H279.274V424.032H190.202ZM377.052 285.034H406.471V375.302C406.471 385.436 404.048 394.305 399.201 401.906C394.4 409.508 387.674 415.435 379.022 419.688C370.371 423.896 360.293 426 348.788 426C337.237 426 327.137 423.896 318.485 419.688C309.834 415.435 303.108 409.508 298.306 401.906C293.506 394.305 291.104 385.436 291.104 375.302V285.034H320.524V372.79C320.524 378.083 321.678 382.79 323.988 386.907C326.344 391.024 329.65 394.26 333.908 396.613C338.166 398.965 343.126 400.141 348.788 400.141C354.495 400.141 359.455 398.965 363.667 396.613C367.925 394.26 371.209 391.024 373.519 386.907C375.874 382.79 377.052 378.083 377.052 372.79V285.034ZM515.288 329.964C514.338 326.661 513.001 323.742 511.28 321.208C509.559 318.629 507.453 316.458 504.961 314.693C502.516 312.883 499.707 311.504 496.536 310.553C493.411 309.603 489.946 309.128 486.141 309.128C479.03 309.128 472.779 310.892 467.389 314.422C462.044 317.951 457.877 323.087 454.888 329.828C451.898 336.525 450.403 344.714 450.403 354.397C450.403 364.08 451.875 372.315 454.82 379.101C457.764 385.889 461.931 391.07 467.321 394.644C472.711 398.174 479.075 399.938 486.413 399.938C493.072 399.938 498.756 398.761 503.466 396.409C508.223 394.011 511.846 390.639 514.338 386.296C516.874 381.952 518.142 376.816 518.142 370.889L524.121 371.772H488.247V349.646H546.474V367.157C546.474 379.373 543.892 389.87 538.729 398.649C533.565 407.381 526.454 414.123 517.395 418.874C508.335 423.579 497.963 425.932 486.277 425.932C473.232 425.932 461.773 423.059 451.898 417.313C442.024 411.521 434.324 403.309 428.797 392.676C423.317 381.998 420.576 369.328 420.576 354.669C420.576 343.402 422.207 333.358 425.468 324.534C428.775 315.666 433.395 308.155 439.328 302.001C445.262 295.848 452.17 291.165 460.051 287.953C467.933 284.74 476.471 283.134 485.666 283.134C493.547 283.134 500.884 284.287 507.679 286.595C514.473 288.857 520.498 292.07 525.751 296.233C531.051 300.395 535.377 305.35 538.729 311.096C542.081 316.797 544.232 323.087 545.183 329.964H515.288ZM653.185 329.964C652.234 326.661 650.898 323.742 649.176 321.208C647.456 318.629 645.35 316.458 642.858 314.693C640.412 312.883 637.604 311.504 634.433 310.553C631.308 309.603 627.843 309.128 624.038 309.128C616.927 309.128 610.676 310.892 605.286 314.422C599.942 317.951 595.774 323.087 592.785 329.828C589.795 336.525 588.3 344.714 588.3 354.397C588.3 364.08 589.773 372.315 592.716 379.101C595.661 385.889 599.828 391.07 605.218 394.644C610.608 398.174 616.972 399.938 624.31 399.938C630.968 399.938 636.653 398.761 641.363 396.409C646.12 394.011 649.743 390.639 652.234 386.296C654.771 381.952 656.039 376.816 656.039 370.889L662.018 371.772H626.145V349.646H684.371V367.157C684.371 379.373 681.79 389.87 676.625 398.649C671.462 407.381 664.351 414.123 655.291 418.874C646.233 423.579 635.861 425.932 624.174 425.932C611.129 425.932 599.669 423.059 589.795 417.313C579.92 411.521 572.22 403.309 566.695 392.676C561.214 381.998 558.474 369.328 558.474 354.669C558.474 343.402 560.104 333.358 563.365 324.534C566.672 315.666 571.292 308.155 577.226 302.001C583.159 295.848 590.067 291.165 597.948 287.953C605.829 284.74 614.368 283.134 623.563 283.134C631.444 283.134 638.782 284.287 645.575 286.595C652.37 288.857 658.394 292.07 663.649 296.233C668.949 300.395 673.273 305.35 676.625 311.096C679.978 316.797 682.129 323.087 683.081 329.964H653.185ZM698.816 424.032V285.034H792.578V309.264H728.236V342.384H787.753V366.614H728.236V399.802H792.849V424.032H698.816ZM808.313 424.032V285.034H863.211C873.719 285.034 882.688 286.912 890.116 290.667C897.59 294.378 903.274 299.648 907.169 306.481C911.111 313.267 913.081 321.254 913.081 330.439C913.081 339.669 911.088 347.61 907.102 354.261C903.116 360.867 897.341 365.935 889.777 369.465C882.257 372.994 873.153 374.758 862.463 374.758H825.707V351.139H857.708C863.325 351.139 867.99 350.37 871.704 348.832C875.418 347.293 878.181 344.986 879.993 341.909C881.85 338.832 882.778 335.009 882.778 330.439C882.778 325.823 881.85 321.932 879.993 318.765C878.181 315.599 875.396 313.2 871.636 311.571C867.921 309.897 863.233 309.06 857.572 309.06H837.733V424.032H808.313ZM883.458 360.777L918.041 424.032H885.564L851.728 360.777H883.458ZM1001.7 325.009C1001.16 319.535 998.827 315.281 994.705 312.249C990.583 309.219 984.989 307.703 977.922 307.703C973.121 307.703 969.068 308.381 965.761 309.739C962.454 311.051 959.918 312.883 958.151 315.236C956.43 317.589 955.569 320.259 955.569 323.244C955.479 325.733 956 327.906 957.132 329.761C958.31 331.615 959.918 333.221 961.956 334.58C963.994 335.892 966.35 337.045 969.022 338.04C971.695 338.991 974.548 339.805 977.583 340.484L990.085 343.47C996.154 344.828 1001.73 346.638 1006.8 348.899C1011.87 351.162 1016.27 353.945 1019.98 357.248C1023.69 360.551 1026.57 364.442 1028.61 368.922C1030.69 373.401 1031.76 378.536 1031.8 384.328C1031.76 392.834 1029.58 400.21 1025.28 406.453C1021.02 412.652 1014.86 417.471 1006.8 420.91C998.78 424.304 989.111 426 977.787 426C966.554 426 956.77 424.281 948.435 420.842C940.147 417.403 933.67 412.313 929.003 405.571C924.383 398.784 921.961 390.39 921.734 380.391H950.202C950.519 385.052 951.856 388.943 954.211 392.065C956.611 395.142 959.805 397.472 963.79 399.055C967.822 400.594 972.374 401.363 977.447 401.363C982.43 401.363 986.755 400.639 990.424 399.192C994.138 397.743 997.015 395.73 999.053 393.151C1001.09 390.572 1002.11 387.609 1002.11 384.259C1002.11 381.138 1001.18 378.514 999.325 376.387C997.513 374.26 994.84 372.45 991.307 370.958C987.82 369.465 983.539 368.106 978.466 366.886L963.315 363.085C951.583 360.234 942.32 355.777 935.526 349.714C928.732 343.651 925.357 335.484 925.403 325.213C925.357 316.797 927.6 309.444 932.13 303.155C936.704 296.866 942.977 291.956 950.949 288.427C958.921 284.899 967.98 283.134 978.126 283.134C988.453 283.134 997.467 284.899 1005.17 288.427C1012.91 291.956 1018.94 296.866 1023.24 303.155C1027.54 309.444 1029.76 316.729 1029.9 325.009H1001.7Z" fill="#F2EAD5"/>
<path d="M241.434 156.762C240.891 151.287 238.56 147.034 234.443 144.003C230.326 140.971 224.737 139.456 217.68 139.456C212.883 139.456 208.834 140.134 205.531 141.492C202.228 142.804 199.694 144.636 197.93 146.989C196.21 149.341 195.351 152.011 195.351 154.998C195.26 157.486 195.78 159.658 196.912 161.513C198.087 163.368 199.694 164.975 201.731 166.332C203.767 167.644 206.119 168.797 208.788 169.793C211.459 170.743 214.309 171.558 217.341 172.237L229.828 175.222C235.891 176.58 241.457 178.39 246.524 180.653C251.591 182.915 255.98 185.697 259.691 189C263.4 192.303 266.274 196.194 268.311 200.674C270.392 205.153 271.455 210.288 271.5 216.08C271.455 224.586 269.283 231.962 264.985 238.205C260.731 244.405 254.578 249.223 246.524 252.662C238.515 256.055 228.856 257.753 217.543 257.753C206.323 257.753 196.549 256.033 188.224 252.594C179.945 249.155 173.474 244.065 168.813 237.324C164.198 230.536 161.778 222.144 161.552 212.144H189.989C190.306 216.804 191.64 220.695 193.993 223.817C196.391 226.894 199.581 229.224 203.563 230.808C207.59 232.346 212.137 233.115 217.204 233.115C222.182 233.115 226.502 232.392 230.168 230.944C233.878 229.496 236.75 227.482 238.787 224.903C240.823 222.324 241.841 219.361 241.841 216.013C241.841 212.891 240.914 210.266 239.058 208.14C237.248 206.013 234.579 204.203 231.05 202.71C227.566 201.217 223.29 199.86 218.222 198.638L203.088 194.837C191.369 191.987 182.116 187.53 175.329 181.467C168.542 175.404 165.171 167.236 165.216 156.966C165.171 148.55 167.411 141.198 171.935 134.908C176.505 128.619 182.772 123.71 190.736 120.181C198.699 116.651 207.748 114.887 217.883 114.887C228.199 114.887 237.203 116.651 244.895 120.181C252.632 123.71 258.65 128.619 262.949 134.908C267.246 141.198 269.464 148.482 269.6 156.762H241.434ZM304.407 255.784H272.916L320.899 116.787H358.77L406.686 255.784H375.195L340.378 148.55H339.292L304.407 255.784ZM302.439 201.149H376.823V224.089H302.439V201.149ZM393.493 141.017V116.787H507.649V141.017H465.095V255.784H436.047V141.017H393.493ZM640.189 186.286C640.189 201.443 637.316 214.338 631.569 224.972C625.868 235.604 618.086 243.726 608.222 249.337C598.404 254.901 587.364 257.684 575.102 257.684C562.75 257.684 551.664 254.879 541.846 249.269C532.028 243.658 524.267 235.536 518.567 224.903C512.866 214.271 510.015 201.398 510.015 186.286C510.015 171.128 512.866 158.233 518.567 147.6C524.267 136.967 532.028 128.868 541.846 123.303C551.664 117.692 562.75 114.887 575.102 114.887C587.364 114.887 598.404 117.692 608.222 123.303C618.086 128.868 625.868 136.967 631.569 147.6C637.316 158.233 640.189 171.128 640.189 186.286ZM610.394 186.286C610.394 176.467 608.924 168.187 605.982 161.446C603.087 154.703 598.992 149.59 593.698 146.107C588.405 142.623 582.205 140.881 575.102 140.881C567.998 140.881 561.8 142.623 556.505 146.107C551.212 149.59 547.094 154.703 544.153 161.446C541.258 168.187 539.81 176.467 539.81 186.286C539.81 196.104 541.258 204.384 544.153 211.126C547.094 217.868 551.212 222.98 556.505 226.465C561.8 229.948 567.998 231.69 575.102 231.69C582.205 231.69 588.405 229.948 593.698 226.465C598.992 222.98 603.087 217.868 605.982 211.126C608.924 204.384 610.394 196.104 610.394 186.286Z" fill="#F2EAD5"/>
<path d="M699.12 221.432C707.847 226.026 715.134 230.993 720.98 236.334C726.79 241.479 731.555 248.031 735.278 255.989C739.148 264.725 740.549 273.727 739.483 282.994C738.184 292.104 734.55 300.044 728.578 306.815C720.761 315.546 711.004 320.414 699.307 321.419C676.071 323.198 658.335 309.329 646.1 279.815C641.252 268.04 639.165 259.672 639.837 254.71C640.788 249.091 643.724 244.909 648.645 242.165C653.76 239.384 658.965 239.204 664.259 241.627C669.553 244.05 673.094 248.92 674.881 256.237C675.665 259.312 676.68 262.545 677.926 265.935C679.135 269.131 680.729 272.758 682.706 276.816C684.84 280.643 687.393 283.484 690.363 285.339C693.296 287 696.422 287.013 699.739 285.378C703.445 283.669 705.069 280.541 704.612 275.995C704.118 271.253 702.506 267.529 699.777 264.822C696.902 261.338 691.756 257.577 684.344 253.54C676.895 249.309 672.342 246.544 670.686 245.246C655.854 233.951 644.659 218.442 637.097 198.72C632.797 186.641 630.684 174.953 630.763 163.657C631.057 150.305 634.741 139.435 641.817 131.045C648.577 123.118 657.301 118.646 667.989 117.631C695.773 115.396 713.548 127.343 721.314 153.472C725.179 166.44 725.663 175.917 722.766 181.905C721.337 184.995 718.806 187.59 715.173 189.688C711.503 191.591 709.312 193.314 708.597 194.86C707.409 197.099 706.639 198.353 706.287 198.621C705.897 198.695 704.881 197.578 703.234 195.271C702.136 192.658 700.314 190.485 697.769 188.75C695.225 187.016 693.398 185.347 692.289 183.743C690.838 181.399 689.773 177.37 689.094 171.657C688.573 165.711 687.027 161.27 684.457 158.331C681.922 155.588 680.28 154.892 679.527 156.242C678.776 157.593 678.062 159.138 677.383 160.879C676.863 162.388 676.182 162.516 675.34 161.265C675.035 160.719 674.583 159.394 673.984 157.291C673.579 155.152 672.993 153.652 672.225 152.79C671.615 151.695 670.722 151.764 669.544 152.995C667.468 154.798 666.306 158.24 666.059 163.324C665.97 168.175 666.293 172.546 667.03 176.436C669.066 186.124 672.874 195.072 678.459 203.283C684.005 211.298 690.892 217.349 699.12 221.432ZM797.094 300.8C794.776 303.455 791.806 305.326 788.183 306.414C783.588 307.686 779.149 307.117 774.864 304.704C770.737 302.061 768.037 298.442 766.765 293.847C754.292 246.045 747.682 220.704 746.936 217.823C746.152 214.749 745.571 212.744 745.193 211.807C744.814 210.872 744.028 209.913 742.834 208.929C741.641 207.947 740.49 206.654 739.381 205.051C736.32 200.594 735.897 194.629 738.11 187.16C738.473 185.883 737.717 181.896 735.846 175.199C734.279 169.049 730.3 153.887 723.912 129.713C722.797 124.887 723.172 120.485 725.039 116.505C726.868 112.332 730.043 109.414 734.564 107.753C739.437 105.823 744.133 106.144 748.648 108.714C753.322 111.053 756.332 114.714 757.678 119.697C758.95 124.291 762.108 136.184 767.151 155.375C767.262 155.959 767.501 157.222 767.869 159.168C768.2 160.918 768.494 162.474 768.752 163.835C769.204 165.159 769.675 166.582 770.164 168.101C770.81 169.388 771.365 170.19 771.828 170.506C772.133 171.052 772.693 171.349 773.508 171.396C774.323 171.443 775.216 171.375 776.189 171.191C777.356 170.971 778.426 170.768 779.398 170.584C780.371 170.4 781.325 170.119 782.261 169.74C783.391 169.324 784.15 169.08 784.54 169.007C784.929 168.933 785.902 168.749 787.457 168.455C789.208 168.123 790.569 167.865 791.542 167.681C792.673 167.266 793.802 166.851 794.933 166.436C796.22 165.789 797.022 165.234 797.338 164.772C797.617 164.114 797.626 163.105 797.37 161.744C797.306 160.345 797.164 159.063 796.943 157.896C796.685 156.535 796.294 154.998 795.768 153.284C795.242 151.57 794.863 150.635 794.632 150.477C794.558 150.087 791.369 137.496 785.064 112.701C783.792 108.107 784.381 103.765 786.83 99.6756C789.242 95.3914 792.746 92.6132 797.341 91.3408C802.13 90.0316 806.588 90.6989 810.715 93.3427C815.001 95.7552 817.779 99.2585 819.051 103.853L837.082 173.569L862.126 269.154C863.203 273.785 862.535 278.243 860.123 282.527C857.674 286.616 854.054 289.316 849.265 290.625C844.634 291.703 840.175 291.036 835.891 288.623C831.801 286.174 829.119 282.652 827.846 278.059C817.209 236.758 811.088 212.937 809.485 206.592C808.664 203.322 807.694 201.391 806.574 200.796C805.417 200.008 803.107 200.042 799.643 200.899C795.984 201.794 793.718 203.129 792.845 204.906C791.936 206.488 791.975 208.293 792.964 210.322C793.916 212.156 794.241 214.411 793.942 217.087C793.911 220.115 793.012 220.688 791.246 218.807C790.552 218.333 790.015 217.629 789.637 216.693C789.563 216.305 789.319 215.545 788.903 214.414C788.683 213.247 788.382 212.196 788.004 211.261C787.588 210.131 787.094 209.116 786.521 208.218C786.106 207.087 785.569 206.383 784.912 206.105C784.219 205.631 783.52 205.663 782.815 206.199C782.111 206.735 781.656 207.526 781.451 208.573C781.404 209.387 781.527 210.573 781.821 212.129C782.079 213.49 782.319 214.754 782.539 215.921C782.724 216.894 783.06 218.139 783.549 219.659C784.038 221.178 784.32 222.132 784.393 222.521C784.808 223.65 790.077 243.504 800.2 282.081C802.098 289.981 801.062 296.221 797.094 300.8ZM947.066 196.573C951.919 196.662 955.995 198.509 959.297 202.115C962.756 205.489 964.442 209.602 964.353 214.454C964.342 215.463 964.271 216.686 964.14 218.12C964.167 219.324 963.904 222.194 963.353 226.731C962.763 231.072 962.023 235.141 961.129 238.937C960.235 242.732 958.754 247.142 956.683 252.167C954.769 256.962 952.533 261.112 949.973 264.618C947.412 268.124 943.982 271.291 939.682 274.12C935.539 276.717 930.806 278.317 925.48 278.922C910.44 280.359 897.851 275.589 887.715 264.614C877.736 253.408 870.091 238.033 864.78 218.489L864.102 216.503C860.548 214.757 857.837 212.148 855.971 208.674C854.104 205.199 853.521 201.583 854.22 197.825C854.688 193.908 856.275 190.586 858.983 187.857C858.735 185.486 858.506 183.214 858.296 181.037C856.913 168.406 856.478 155.998 856.992 143.813C857.617 124.758 860.752 108.855 866.397 96.1021C872.237 83.3126 879.899 76.4234 889.383 75.4346C898.672 74.4827 907.149 75.0945 914.814 77.2703C922.674 79.4092 928.722 82.0922 932.96 85.3194C937.392 88.5099 941.332 92.297 944.781 96.6807C948.194 100.87 950.278 103.9 951.035 105.771C951.95 107.411 952.615 108.797 953.031 109.927L953.196 110.802L953.764 112.205C955.026 117.809 954.94 124.271 953.505 131.594C952.07 138.916 949.905 145.571 947.008 151.558C942.756 161.026 936.35 170.296 927.793 179.369C924.297 183.254 921.974 186.413 920.823 188.847C919.634 191.087 919.154 194.401 919.38 198.79C919.49 199.374 919.504 199.976 919.419 200.595C919.493 200.985 919.464 201.897 919.333 203.332C919.359 204.535 919.178 205.174 918.789 205.248C918.4 205.321 917.797 205.334 916.983 205.287C916.289 204.814 915.697 203.818 915.209 202.299C914.719 200.78 914.364 199.437 914.144 198.27C914.08 196.872 913.684 195.839 912.952 195.172C912.222 194.504 911.074 194.821 909.507 196.126C903.25 200.331 899.59 203.341 898.522 205.155C897.697 206.117 898.359 209.617 900.511 215.656C906.988 234.98 913.997 244.33 921.535 243.71C923.943 243.657 925.733 241.405 926.905 236.952C928.041 232.305 928.737 226.936 928.994 220.843C929.446 214.714 929.756 211.03 929.923 209.788C930.975 205.763 933.006 202.658 936.019 200.477C939.189 198.064 942.871 196.762 947.066 196.573ZM919.872 123.151C919.919 122.337 919.772 121.559 919.43 120.817C918.099 118.047 915.426 115.632 911.41 113.572C907.551 111.28 904.278 110.489 901.592 111.199C900.814 111.346 900.225 111.961 899.826 113.044C899.39 113.933 899.087 114.997 898.919 116.238C898.946 117.442 898.972 118.645 898.999 119.849C898.988 120.858 898.861 121.789 898.62 122.64C898.342 123.297 897.971 123.468 897.508 123.153C896.462 122.948 895.392 119.423 894.298 112.579C893.809 111.06 893.37 110.338 892.981 110.411C892.981 110.411 892.777 118.911 892.367 135.911C892.188 138.16 892.036 141.614 891.911 146.271C891.784 150.929 891.632 154.382 891.454 156.632C891.376 160.475 891.975 162.577 893.252 162.939C894.687 163.071 896.856 161.754 899.758 158.989C904.93 154.384 909.591 148.667 913.738 141.839C917.886 135.01 919.93 128.781 919.872 123.151Z" fill="#FF0099"/>
</svg>
