<svg width="1200" height="528" viewBox="0 0 1200 528" fill="none" xmlns="http://www.w3.org/2000/svg">
<path d="M182.816 341.454C182.252 335.767 179.832 331.349 175.555 328.2C171.278 325.053 165.474 323.478 158.143 323.478C153.161 323.478 148.955 324.182 145.524 325.593C142.094 326.956 139.462 328.859 137.629 331.303C135.843 333.746 134.95 336.52 134.95 339.621C134.856 342.206 135.397 344.462 136.572 346.389C137.794 348.315 139.462 349.983 141.577 351.394C143.692 352.757 146.135 353.955 148.908 354.989C151.681 355.976 154.642 356.822 157.791 357.527L170.762 360.628C177.059 362.039 182.84 363.918 188.103 366.267C193.367 368.617 197.925 371.508 201.779 374.939C205.633 378.369 208.617 382.411 210.731 387.064C212.893 391.716 213.998 397.05 214.045 403.066C213.998 411.901 211.742 419.562 207.277 426.047C202.86 432.485 196.469 437.491 188.103 441.063C179.785 444.587 169.751 446.349 158.002 446.349C146.347 446.349 136.196 444.564 127.548 440.992C118.948 437.42 112.228 432.133 107.387 425.131C102.593 418.081 100.079 409.363 99.8441 398.977H129.381C129.71 403.818 131.097 407.86 133.54 411.102C136.031 414.298 139.344 416.718 143.48 418.363C147.663 419.961 152.386 420.76 157.65 420.76C162.819 420.76 167.307 420.008 171.114 418.505C174.968 417 177.952 414.909 180.067 412.23C182.182 409.551 183.239 406.474 183.239 402.995C183.239 399.752 182.276 397.027 180.349 394.818C178.469 392.609 175.696 390.729 172.03 389.179C168.412 387.628 163.971 386.217 158.707 384.949L142.987 381.001C130.815 378.041 121.204 373.411 114.154 367.114C107.105 360.816 103.604 352.333 103.651 341.665C103.604 332.924 105.93 325.287 110.63 318.755C115.376 312.222 121.885 307.123 130.157 303.457C138.428 299.792 147.827 297.959 158.354 297.959C169.07 297.959 178.422 299.792 186.411 303.457C194.447 307.123 200.699 312.222 205.162 318.755C209.627 325.287 211.93 332.854 212.071 341.454H182.816ZM226.636 444.306V299.932H257.16V419.139H319.054V444.306H226.636ZM420.503 299.932H451.028V393.691C451.028 404.217 448.514 413.429 443.485 421.324C438.503 429.219 431.524 435.376 422.548 439.794C413.571 444.164 403.115 446.349 391.178 446.349C379.194 446.349 368.714 444.164 359.737 439.794C350.761 435.376 343.782 429.219 338.8 421.324C333.819 413.429 331.328 404.217 331.328 393.691V299.932H361.852V391.082C361.852 396.58 363.05 401.468 365.447 405.745C367.892 410.022 371.321 413.382 375.74 415.826C380.158 418.269 385.303 419.491 391.178 419.491C397.099 419.491 402.246 418.269 406.616 415.826C411.034 413.382 414.442 410.022 416.838 405.745C419.282 401.468 420.503 396.58 420.503 391.082V299.932ZM563.932 346.6C562.946 343.17 561.558 340.138 559.773 337.506C557.987 334.827 555.802 332.572 553.217 330.739C550.68 328.859 547.766 327.426 544.476 326.439C541.233 325.452 537.638 324.958 533.69 324.958C526.312 324.958 519.827 326.791 514.234 330.457C508.688 334.123 504.365 339.457 501.263 346.459C498.161 353.414 496.61 361.921 496.61 371.978C496.61 382.035 498.137 390.589 501.193 397.638C504.247 404.688 508.57 410.068 514.163 413.781C519.755 417.447 526.359 419.28 533.972 419.28C540.881 419.28 546.779 418.058 551.666 415.614C556.601 413.124 560.361 409.622 562.946 405.11C565.578 400.598 566.893 395.264 566.893 389.108L573.097 390.025H535.876V367.043H596.289V385.231C596.289 397.919 593.611 408.823 588.253 417.941C582.896 427.011 575.517 434.013 566.118 438.948C556.718 443.835 545.956 446.279 533.831 446.279C520.296 446.279 508.406 443.295 498.161 437.327C487.916 431.311 479.927 422.781 474.193 411.736C468.507 400.646 465.663 387.486 465.663 372.26C465.663 360.558 467.354 350.125 470.738 340.96C474.169 331.749 478.963 323.947 485.119 317.556C491.276 311.164 498.443 306.3 506.62 302.964C514.798 299.627 523.656 297.959 533.197 297.959C541.374 297.959 548.987 299.157 556.037 301.554C563.086 303.904 569.337 307.241 574.788 311.564C580.287 315.888 584.775 321.034 588.253 327.003C591.731 332.924 593.963 339.457 594.95 346.6H563.932ZM707.008 346.6C706.021 343.17 704.635 340.138 702.849 337.506C701.064 334.827 698.879 332.572 696.293 330.739C693.755 328.859 690.841 327.426 687.552 326.439C684.309 325.452 680.714 324.958 676.766 324.958C669.388 324.958 662.902 326.791 657.31 330.457C651.765 334.123 647.44 339.457 644.339 346.459C641.237 353.414 639.686 361.921 639.686 371.978C639.686 382.035 641.214 390.589 644.268 397.638C647.323 404.688 651.647 410.068 657.239 413.781C662.832 417.447 669.435 419.28 677.049 419.28C683.956 419.28 689.855 418.058 694.742 415.614C699.677 413.124 703.437 409.622 706.021 405.11C708.653 400.598 709.969 395.264 709.969 389.108L716.173 390.025H678.952V367.043H739.366V385.231C739.366 397.919 736.687 408.823 731.329 417.941C725.971 427.011 718.593 434.013 709.193 438.948C699.795 443.835 689.033 446.279 676.907 446.279C663.372 446.279 651.482 443.295 641.237 437.327C630.991 431.311 623.002 422.781 617.269 411.736C611.583 400.646 608.739 387.486 608.739 372.26C608.739 360.558 610.431 350.125 613.815 340.96C617.246 331.749 622.039 323.947 628.196 317.556C634.352 311.164 641.519 306.3 649.697 302.964C657.873 299.627 666.733 297.959 676.273 297.959C684.45 297.959 692.064 299.157 699.113 301.554C706.163 303.904 712.413 307.241 717.865 311.564C723.364 315.888 727.851 321.034 731.329 327.003C734.807 332.924 737.039 339.457 738.026 346.6H707.008ZM754.353 444.306V299.932H851.636V325.099H784.878V359.5H846.631V384.667H784.878V419.139H851.918V444.306H754.353ZM867.963 444.306V299.932H924.922C935.825 299.932 945.131 301.883 952.838 305.783C960.592 309.638 966.49 315.112 970.532 322.209C974.621 329.258 976.666 337.554 976.666 347.093C976.666 356.68 974.598 364.928 970.461 371.837C966.326 378.698 960.334 383.962 952.486 387.628C944.684 391.294 935.238 393.126 924.147 393.126H886.009V368.594H919.213C925.04 368.594 929.881 367.795 933.734 366.197C937.588 364.599 940.454 362.203 942.335 359.007C944.261 355.811 945.224 351.84 945.224 347.093C945.224 342.299 944.261 338.258 942.335 334.968C940.454 331.679 937.565 329.188 933.664 327.496C929.809 325.757 924.946 324.888 919.071 324.888H898.487V444.306H867.963ZM945.93 378.605L981.811 444.306H948.115L913.008 378.605H945.93ZM1068.62 341.454C1068.05 335.767 1065.63 331.349 1061.35 328.2C1057.08 325.053 1051.27 323.478 1043.94 323.478C1038.96 323.478 1034.75 324.182 1031.32 325.593C1027.89 326.956 1025.26 328.859 1023.43 331.303C1021.64 333.746 1020.75 336.52 1020.75 339.621C1020.66 342.206 1021.2 344.462 1022.37 346.389C1023.59 348.315 1025.26 349.983 1027.38 351.394C1029.49 352.757 1031.93 353.955 1034.71 354.989C1037.48 355.976 1040.44 356.822 1043.59 357.527L1056.56 360.628C1062.86 362.039 1068.64 363.918 1073.9 366.267C1079.17 368.617 1083.72 371.508 1087.58 374.939C1091.43 378.369 1094.42 382.411 1096.53 387.064C1098.69 391.716 1099.8 397.05 1099.84 403.066C1099.8 411.901 1097.54 419.562 1093.08 426.047C1088.66 432.485 1082.27 437.491 1073.9 441.063C1065.58 444.587 1055.55 446.349 1043.8 446.349C1032.15 446.349 1022 444.564 1013.35 440.992C1004.75 437.42 998.027 432.133 993.186 425.131C988.392 418.081 985.878 409.363 985.643 398.977H1015.18C1015.51 403.818 1016.9 407.86 1019.34 411.102C1021.83 414.298 1025.14 416.718 1029.28 418.363C1033.46 419.961 1038.19 420.76 1043.45 420.76C1048.62 420.76 1053.11 420.008 1056.91 418.505C1060.77 417 1063.75 414.909 1065.87 412.23C1067.98 409.551 1069.04 406.474 1069.04 402.995C1069.04 399.752 1068.07 397.027 1066.15 394.818C1064.27 392.609 1061.5 390.729 1057.83 389.179C1054.21 387.628 1049.77 386.217 1044.51 384.949L1028.79 381.001C1016.61 378.041 1007 373.411 999.954 367.114C992.904 360.816 989.403 352.333 989.45 341.665C989.403 332.924 991.729 325.287 996.429 318.755C1001.18 312.222 1007.68 307.123 1015.96 303.457C1024.23 299.792 1033.63 297.959 1044.15 297.959C1054.87 297.959 1064.22 299.792 1072.21 303.457C1080.25 307.123 1086.5 312.222 1090.96 318.755C1095.43 325.287 1097.73 332.854 1097.87 341.454H1068.62Z" fill="#F2F2F2"/>
<path d="M279.791 166.899C279.227 161.213 276.805 156.795 272.529 153.647C268.252 150.498 262.448 148.924 255.117 148.924C250.135 148.924 245.929 149.629 242.499 151.039C239.068 152.402 236.436 154.305 234.603 156.748C232.817 159.192 231.925 161.965 231.925 165.067C231.83 167.652 232.37 169.908 233.546 171.834C234.767 173.761 236.436 175.43 238.551 176.84C240.666 178.203 243.11 179.4 245.882 180.434C248.655 181.422 251.616 182.267 254.765 182.973L267.735 186.074C274.033 187.484 279.814 189.364 285.078 191.714C290.341 194.064 294.899 196.954 298.753 200.384C302.606 203.815 305.592 207.857 307.706 212.51C309.868 217.162 310.972 222.496 311.019 228.512C310.972 237.347 308.716 245.008 304.252 251.493C299.834 257.932 293.443 262.936 285.078 266.509C276.759 270.033 266.726 271.796 254.976 271.796C243.321 271.796 233.169 270.01 224.523 266.437C215.923 262.866 209.201 257.579 204.361 250.577C199.567 243.527 197.053 234.81 196.818 224.424H226.356C226.684 229.264 228.07 233.306 230.514 236.548C233.006 239.744 236.318 242.164 240.454 243.809C244.637 245.407 249.36 246.206 254.624 246.206C259.794 246.206 264.281 245.455 268.088 243.95C271.942 242.446 274.926 240.355 277.041 237.676C279.155 234.997 280.213 231.919 280.213 228.442C280.213 225.199 279.25 222.473 277.322 220.264C275.443 218.056 272.67 216.176 269.004 214.625C265.386 213.074 260.945 211.664 255.681 210.395L239.961 206.447C227.789 203.487 218.178 198.858 211.129 192.56C204.079 186.262 200.578 177.779 200.625 167.111C200.578 158.37 202.905 150.733 207.603 144.201C212.35 137.668 218.86 132.569 227.131 128.903C235.402 125.238 244.801 123.405 255.329 123.405C266.044 123.405 275.396 125.238 283.385 128.903C291.421 132.569 297.672 137.668 302.137 144.201C306.601 150.733 308.904 158.299 309.046 166.899H279.791ZM345.199 269.751H312.49L362.329 125.379H401.665L451.434 269.751H418.725L382.561 158.37H381.433L345.199 269.751ZM343.155 213.004H420.416V236.83H343.155V213.004ZM437.731 150.545V125.379H556.302V150.545H512.102V269.751H481.931V150.545H437.731ZM693.969 197.565C693.969 213.309 690.984 226.702 685.015 237.747C679.094 248.791 671.011 257.227 660.765 263.054C650.568 268.834 639.1 271.725 626.364 271.725C613.535 271.725 602.02 268.811 591.822 262.984C581.624 257.157 573.563 248.72 567.642 237.676C561.721 226.632 558.76 213.262 558.76 197.565C558.76 181.822 561.721 168.427 567.642 157.383C573.563 146.339 581.624 137.927 591.822 132.146C602.02 126.319 613.535 123.405 626.364 123.405C639.1 123.405 650.568 126.319 660.765 132.146C671.011 137.927 679.094 146.339 685.015 157.383C690.984 168.427 693.969 181.822 693.969 197.565ZM663.022 197.565C663.022 187.366 661.494 178.766 658.439 171.764C655.431 164.761 651.178 159.45 645.679 155.832C640.181 152.213 633.742 150.404 626.364 150.404C618.986 150.404 612.547 152.213 607.048 155.832C601.551 159.45 597.273 164.761 594.219 171.764C591.211 178.766 589.707 187.366 589.707 197.565C589.707 207.763 591.211 216.363 594.219 223.366C597.273 230.368 601.551 235.679 607.048 239.298C612.547 242.916 618.986 244.726 626.364 244.726C633.742 244.726 640.181 242.916 645.679 239.298C651.178 235.679 655.431 230.368 658.439 223.366C661.494 216.363 663.022 207.763 663.022 197.565Z" fill="#F2F2F2"/>
<path d="M754.561 234.035C763.619 238.803 771.182 243.959 777.25 249.503C783.28 254.844 788.226 261.644 792.09 269.906C796.107 278.974 797.561 288.318 796.454 297.937C795.106 307.393 791.334 315.635 785.136 322.664C777.023 331.727 766.896 336.78 754.755 337.823C730.639 339.669 712.231 325.273 699.532 294.637C694.5 282.415 692.334 273.728 693.032 268.577C694.019 262.745 697.066 258.404 702.173 255.555C707.482 252.669 712.884 252.483 718.379 254.997C723.874 257.512 727.549 262.568 729.404 270.163C730.217 273.355 731.271 276.71 732.564 280.23C733.819 283.547 735.473 287.312 737.525 291.525C739.74 295.497 742.39 298.445 745.472 300.371C748.517 302.095 751.761 302.109 755.204 300.412C759.05 298.638 760.736 295.391 760.261 290.672C759.748 285.75 758.075 281.884 755.243 279.074C752.259 275.457 746.919 271.553 739.226 267.363C731.494 262.972 726.768 260.102 725.049 258.754C709.656 247.03 698.036 230.931 690.188 210.459C685.724 197.921 683.532 185.788 683.614 174.063C683.919 160.203 687.743 148.919 695.087 140.211C702.103 131.982 711.157 127.341 722.25 126.287C751.087 123.966 769.536 136.367 777.597 163.49C781.608 176.951 782.11 186.789 779.104 193.004C777.62 196.212 774.993 198.905 771.223 201.083C767.414 203.059 765.139 204.848 764.398 206.452C763.164 208.776 762.365 210.078 762 210.356C761.596 210.433 760.54 209.273 758.831 206.878C757.692 204.166 755.801 201.911 753.159 200.11C750.518 198.31 748.622 196.578 747.471 194.913C745.965 192.479 744.86 188.297 744.155 182.367C743.615 176.195 742.01 171.585 739.343 168.534C736.712 165.687 735.007 164.964 734.226 166.366C733.447 167.768 732.705 169.372 732 171.179C731.461 172.745 730.754 172.878 729.881 171.58C729.564 171.013 729.095 169.638 728.473 167.455C728.053 165.234 727.444 163.677 726.647 162.782C726.014 161.646 725.087 161.718 723.865 162.995C721.71 164.866 720.504 168.44 720.247 173.717C720.155 178.753 720.491 183.29 721.255 187.327C723.368 197.384 727.321 206.673 733.117 215.195C738.873 223.515 746.022 229.796 754.561 234.035ZM856.249 316.42C853.843 319.176 850.76 321.118 847 322.247C842.231 323.568 837.624 322.977 833.176 320.472C828.892 317.729 826.091 313.972 824.771 309.203C811.825 259.583 804.964 233.279 804.19 230.289C803.376 227.097 802.773 225.016 802.38 224.044C801.987 223.073 801.171 222.077 799.932 221.057C798.694 220.037 797.499 218.694 796.348 217.03C793.171 212.404 792.732 206.213 795.029 198.459C795.405 197.133 794.622 192.995 792.679 186.044C791.052 179.659 786.923 163.921 780.293 138.827C779.136 133.819 779.525 129.249 781.462 125.118C783.361 120.786 786.657 117.757 791.349 116.033C796.407 114.03 801.28 114.363 805.967 117.03C810.817 119.458 813.942 123.258 815.339 128.431C816.659 133.2 819.936 145.545 825.17 165.466C825.285 166.071 825.534 167.383 825.916 169.403C826.26 171.219 826.565 172.834 826.832 174.247C827.302 175.622 827.79 177.099 828.298 178.675C828.969 180.012 829.545 180.844 830.025 181.172C830.342 181.739 830.923 182.047 831.769 182.096C832.614 182.145 833.541 182.075 834.551 181.883C835.762 181.654 836.873 181.444 837.882 181.253C838.892 181.062 839.882 180.77 840.853 180.377C842.026 179.945 842.814 179.692 843.218 179.616C843.622 179.539 844.632 179.348 846.246 179.043C848.064 178.699 849.476 178.431 850.486 178.24C851.66 177.809 852.832 177.378 854.005 176.947C855.342 176.275 856.174 175.699 856.502 175.22C856.791 174.537 856.801 173.49 856.535 172.077C856.468 170.625 856.321 169.294 856.092 168.083C855.824 166.67 855.418 165.074 854.873 163.295C854.326 161.516 853.933 160.545 853.693 160.381C853.617 159.977 850.307 146.907 843.763 121.17C842.443 116.401 843.053 111.894 845.596 107.648C848.099 103.201 851.736 100.318 856.505 98.9968C861.476 97.6378 866.102 98.3305 870.386 101.075C874.834 103.579 877.717 107.216 879.038 111.984L897.752 184.351L923.745 283.571C924.863 288.378 924.17 293.005 921.667 297.452C919.124 301.697 915.368 304.5 910.397 305.859C905.59 306.977 900.962 306.285 896.516 303.78C892.271 301.238 889.487 297.582 888.166 292.814C877.126 249.943 870.773 225.216 869.109 218.63C868.257 215.236 867.25 213.231 866.088 212.614C864.887 211.796 862.489 211.832 858.894 212.721C855.096 213.649 852.744 215.035 851.839 216.88C850.895 218.522 850.936 220.396 851.962 222.502C852.95 224.406 853.288 226.747 852.977 229.524C852.945 232.667 852.012 233.262 850.179 231.309C849.458 230.818 848.901 230.087 848.509 229.115C848.432 228.712 848.179 227.923 847.747 226.75C847.518 225.539 847.207 224.448 846.814 223.477C846.382 222.303 845.87 221.25 845.275 220.318C844.844 219.144 844.287 218.413 843.605 218.124C842.885 217.633 842.16 217.665 841.428 218.222C840.697 218.779 840.225 219.6 840.012 220.686C839.964 221.532 840.092 222.762 840.397 224.377C840.665 225.79 840.913 227.103 841.142 228.314C841.333 229.324 841.682 230.616 842.19 232.194C842.698 233.77 842.99 234.761 843.067 235.165C843.497 236.337 848.966 256.945 859.472 296.99C861.442 305.19 860.367 311.667 856.249 316.42ZM1011.9 208.23C1016.94 208.322 1021.17 210.24 1024.6 213.983C1028.19 217.485 1029.94 221.755 1029.85 226.792C1029.84 227.839 1029.76 229.108 1029.63 230.597C1029.65 231.847 1029.38 234.826 1028.81 239.535C1028.2 244.041 1027.43 248.265 1026.5 252.205C1025.57 256.144 1024.03 260.722 1021.89 265.938C1019.9 270.915 1017.58 275.223 1014.92 278.863C1012.26 282.502 1008.7 285.79 1004.24 288.726C999.941 291.422 995.028 293.083 989.501 293.711C973.89 295.202 960.825 290.25 950.304 278.859C939.946 267.226 932.012 251.266 926.5 230.98L925.797 228.918C922.107 227.106 919.294 224.398 917.357 220.791C915.42 217.184 914.814 213.43 915.54 209.529C916.025 205.464 917.673 202.015 920.483 199.183C920.225 196.722 919.988 194.363 919.771 192.104C918.334 178.992 917.884 166.112 918.417 153.465C919.065 133.685 922.319 117.177 928.178 103.939C934.24 90.6633 942.192 83.5122 952.035 82.4858C961.676 81.4977 970.475 82.1328 978.431 84.3912C986.588 86.6115 992.865 89.3965 997.264 92.7465C1001.86 96.0582 1005.95 99.9893 1009.53 104.54C1013.07 108.888 1015.24 112.034 1016.02 113.976C1016.97 115.678 1017.66 117.116 1018.1 118.289L1018.27 119.198L1018.86 120.655C1020.17 126.471 1020.08 133.18 1018.59 140.78C1017.1 148.381 1014.85 155.289 1011.84 161.504C1007.43 171.331 1000.78 180.954 991.901 190.372C988.272 194.405 985.861 197.684 984.666 200.211C983.433 202.535 982.934 205.975 983.169 210.532C983.283 211.137 983.298 211.762 983.21 212.406C983.286 212.81 983.257 213.756 983.12 215.246C983.147 216.495 982.96 217.159 982.556 217.235C982.152 217.311 981.527 217.324 980.681 217.276C979.961 216.785 979.347 215.751 978.84 214.173C978.332 212.597 977.963 211.203 977.734 209.992C977.668 208.54 977.257 207.469 976.498 206.775C975.74 206.082 974.548 206.412 972.922 207.766C966.428 212.131 962.629 215.255 961.521 217.138C960.665 218.137 961.352 221.77 963.585 228.039C970.308 248.097 977.582 257.803 985.406 257.159C987.905 257.104 989.763 254.766 990.979 250.145C992.158 245.321 992.881 239.747 993.147 233.423C993.616 227.061 993.938 223.237 994.112 221.948C995.203 217.769 997.312 214.547 1000.44 212.282C1003.73 209.778 1007.55 208.426 1011.9 208.23ZM983.68 132.017C983.729 131.171 983.576 130.364 983.221 129.594C981.84 126.719 979.066 124.212 974.897 122.073C970.892 119.694 967.495 118.873 964.707 119.61C963.899 119.763 963.289 120.402 962.874 121.526C962.421 122.448 962.107 123.553 961.933 124.84C961.96 126.09 961.988 127.339 962.015 128.589C962.004 129.636 961.873 130.602 961.622 131.486C961.333 132.168 960.949 132.346 960.468 132.018C959.382 131.806 958.272 128.147 957.136 121.043C956.629 119.466 956.173 118.716 955.769 118.792C955.769 118.792 955.558 127.615 955.132 145.261C954.947 147.597 954.789 151.181 954.659 156.016C954.528 160.85 954.37 164.435 954.185 166.771C954.103 170.759 954.725 172.941 956.051 173.318C957.54 173.454 959.792 172.087 962.803 169.217C968.172 164.437 973.009 158.502 977.313 151.415C981.618 144.327 983.74 137.861 983.68 132.017Z" fill="#FF0099"/>
</svg>
