<svg width="10" height="10" viewBox="0 0 10 10" fill="none" xmlns="http://www.w3.org/2000/svg">
<path d="M4.2 6.28571C4.2 7.23249 3.48366 8 2.6 8C1.71634 8 1 7.23249 1 6.28571C1 5.33894 1.71634 4.57143 2.6 4.57143C3.48366 4.57143 4.2 5.33894 4.2 6.28571ZM4.2 6.28571C4.2 6.05839 4.28429 5.84037 4.43431 5.67962C4.58434 5.51888 4.78783 5.42857 5 5.42857C5.21217 5.42857 5.41566 5.51888 5.56569 5.67962C5.71571 5.84037 5.8 6.05839 5.8 6.28571M5.8 6.28571C5.8 7.23249 6.51634 8 7.4 8C8.28366 8 9 7.23249 9 6.28571C9 5.33894 8.28366 4.57143 7.4 4.57143C6.51634 4.57143 5.8 5.33894 5.8 6.28571ZM1.2 5.42857L2.2 2.85714C2.48 2.3 2.76 2 3.4 2M8.8 5.42857L7.8 2.85714C7.52 2.3 7.2 2 6.6 2" stroke="#20B9C4" stroke-width="0.903936" stroke-linecap="round" stroke-linejoin="round"/>
</svg>
