<svg width="10" height="10" viewBox="0 0 10 10" fill="none" xmlns="http://www.w3.org/2000/svg">
<path d="M5 1C3.80695 1.00138 2.66315 1.47822 1.81954 2.32591C0.975921 3.1736 0.501374 4.32292 0.5 5.52174V7.95652C0.5 8.23327 0.609409 8.49868 0.804158 8.69437C0.998908 8.89006 1.26304 9 1.53846 9C1.75906 8.99963 1.97387 8.929 2.15202 8.79826C2.67774 8.41435 3.59808 7.95652 5 7.95652C6.40192 7.95652 7.32226 8.41391 7.84755 8.79783C8.00229 8.91182 8.18544 8.9805 8.37667 8.99626C8.5679 9.01202 8.75974 8.97423 8.93089 8.88709C9.10205 8.79995 9.24584 8.66686 9.34629 8.5026C9.44675 8.33834 9.49995 8.14932 9.5 7.95652V5.52174C9.49863 4.32292 9.02408 3.1736 8.18046 2.32591C7.33685 1.47822 6.19305 1.00138 5 1ZM8.80769 5.52174V5.90739C8.25556 5.56409 7.65965 5.29761 7.03625 5.11522C6.90232 3.91587 6.47299 2.76897 5.78707 1.77826C6.64087 1.96067 7.40657 2.43186 7.95631 3.11316C8.50606 3.79446 8.80657 4.64463 8.80769 5.52174ZM5 1.8813C5.69121 2.77308 6.14402 3.82764 6.31538 4.94478C5.44495 4.78652 4.55332 4.78652 3.68288 4.94478C3.85631 3.82792 4.30956 2.77373 5 1.8813ZM4.21293 1.77826C3.52695 2.7691 3.09761 3.91615 2.96375 5.11565C2.34035 5.29804 1.74444 5.56453 1.19231 5.90783V5.52174C1.19343 4.64463 1.49395 3.79446 2.04369 3.11316C2.59343 2.43186 3.35913 1.96067 4.21293 1.77826ZM8.6199 8.26565C8.56234 8.29549 8.49759 8.30849 8.43303 8.30319C8.36848 8.29788 8.30669 8.27449 8.25471 8.23565C7.64635 7.7913 6.58798 7.26087 5 7.26087C3.41202 7.26087 2.35365 7.7913 1.74529 8.23565C1.69331 8.27449 1.63152 8.29788 1.56697 8.30319C1.50241 8.30849 1.43766 8.29549 1.3801 8.26565C1.32282 8.23735 1.27475 8.19325 1.24149 8.13851C1.20824 8.08377 1.19118 8.02065 1.19231 7.95652V6.74217C2.30485 5.9484 3.63553 5.52198 5 5.52198C6.36447 5.52198 7.69515 5.9484 8.80769 6.74217V7.95652C8.80882 8.02065 8.79176 8.08377 8.75851 8.13851C8.72525 8.19325 8.67718 8.23735 8.6199 8.26565Z" fill="#9836FB"/>
</svg>
